G04 (created by PCBNEW-RS274X (2012-apr-16-27)-stable) date Sat 01 Mar 2014 16:34:46 GMT*
G01*
G70*
G90*
%MOIN*%
G04 Gerber Fmt 3.4, Leading zero omitted, Abs format*
%FSLAX34Y34*%
G04 APERTURE LIST*
%ADD10C,0.006000*%
%ADD11C,0.160000*%
%ADD12R,0.060000X0.080000*%
%ADD13R,0.080000X0.060000*%
%ADD14R,0.055000X0.055000*%
%ADD15C,0.055000*%
%ADD16O,0.059300X0.118700*%
%ADD17R,0.060000X0.060000*%
%ADD18C,0.060000*%
%ADD19C,0.035000*%
%ADD20C,0.020000*%
%ADD21C,0.040000*%
%ADD22C,0.010000*%
G04 APERTURE END LIST*
G54D10*
G54D11*
X57240Y-34940D03*
G54D12*
X68630Y-42680D03*
X69930Y-42680D03*
G54D13*
X62860Y-44890D03*
X62860Y-43590D03*
X61380Y-43590D03*
X61380Y-44890D03*
X71390Y-41740D03*
X71390Y-40440D03*
X61770Y-42000D03*
X61770Y-40700D03*
X60580Y-42000D03*
X60580Y-40700D03*
G54D12*
X69930Y-40520D03*
X68630Y-40520D03*
X68650Y-43980D03*
X69950Y-43980D03*
X65060Y-37550D03*
X63760Y-37550D03*
X69950Y-38180D03*
X68650Y-38180D03*
X68650Y-39440D03*
X69950Y-39440D03*
G54D13*
X60080Y-44870D03*
X60080Y-43570D03*
G54D12*
X68650Y-41580D03*
X69950Y-41580D03*
G54D14*
X63980Y-39600D03*
G54D15*
X63980Y-40600D03*
X63980Y-41600D03*
X63980Y-42600D03*
X66980Y-42600D03*
X66980Y-41600D03*
X66980Y-40600D03*
X66980Y-39600D03*
G54D16*
X64940Y-34940D03*
X65940Y-34940D03*
X67520Y-34960D03*
X68520Y-34960D03*
G54D13*
X59460Y-40710D03*
X59460Y-42010D03*
X60470Y-25630D03*
X60470Y-24330D03*
X71550Y-31000D03*
X71550Y-29700D03*
X61740Y-26700D03*
X61740Y-28000D03*
X67730Y-29220D03*
X67730Y-30520D03*
X69040Y-29210D03*
X69040Y-30510D03*
X70340Y-29210D03*
X70340Y-30510D03*
G54D12*
X69960Y-37070D03*
X68660Y-37070D03*
G54D13*
X61350Y-38660D03*
X61350Y-37360D03*
X60190Y-37370D03*
X60190Y-38670D03*
G54D12*
X59380Y-39710D03*
X60680Y-39710D03*
G54D13*
X62530Y-38670D03*
X62530Y-37370D03*
X62950Y-25660D03*
X62950Y-24360D03*
X69290Y-27780D03*
X69290Y-26480D03*
X71460Y-26480D03*
X71460Y-27780D03*
X64480Y-21690D03*
X64480Y-22990D03*
X63220Y-22990D03*
X63220Y-21690D03*
X62970Y-26670D03*
X62970Y-27970D03*
X60440Y-27920D03*
X60440Y-26620D03*
G54D16*
X59800Y-34970D03*
X60800Y-34970D03*
X62390Y-34970D03*
X63390Y-34970D03*
X63380Y-19620D03*
X64380Y-19620D03*
X68990Y-19650D03*
X69990Y-19650D03*
X60480Y-19620D03*
X61480Y-19620D03*
G54D14*
X64720Y-24325D03*
G54D15*
X64720Y-25325D03*
X64720Y-26325D03*
X64720Y-27325D03*
X67720Y-27325D03*
X67720Y-26325D03*
X67720Y-25325D03*
X67720Y-24325D03*
G54D17*
X70390Y-24280D03*
G54D18*
X70390Y-25280D03*
G54D17*
X65970Y-29430D03*
G54D18*
X65970Y-30430D03*
G54D17*
X63340Y-29430D03*
G54D18*
X63340Y-30430D03*
G54D17*
X69460Y-21850D03*
G54D18*
X69460Y-22850D03*
G54D17*
X60950Y-22040D03*
G54D18*
X60950Y-23040D03*
G54D17*
X66400Y-37580D03*
G54D18*
X67400Y-37580D03*
G54D16*
X66300Y-19630D03*
X67300Y-19630D03*
G54D18*
X59550Y-30190D03*
X60550Y-29190D03*
X61550Y-30190D03*
G54D11*
X71380Y-45780D03*
X71380Y-34840D03*
X57430Y-19530D03*
X57260Y-30240D03*
X71710Y-19710D03*
X57240Y-45750D03*
G54D13*
X61690Y-25660D03*
X61690Y-24360D03*
X70380Y-26480D03*
X70380Y-27780D03*
G54D17*
X65830Y-44980D03*
G54D18*
X65830Y-45980D03*
G54D17*
X58080Y-42920D03*
G54D18*
X58080Y-43920D03*
G54D19*
X59500Y-27890D03*
X59550Y-18840D03*
X70350Y-28550D03*
X65570Y-22960D03*
X67870Y-43440D03*
X71250Y-42470D03*
X63940Y-38800D03*
X66060Y-43150D03*
X71390Y-39710D03*
X65730Y-40215D03*
X71460Y-37035D03*
X59444Y-20988D03*
X58740Y-24178D03*
X58785Y-18540D03*
X62520Y-36610D03*
X66520Y-27410D03*
X58900Y-42670D03*
X57830Y-28810D03*
X57150Y-24885D03*
X57000Y-27990D03*
X58030Y-37415D03*
X59110Y-38680D03*
X70950Y-43300D03*
X59730Y-36210D03*
X69050Y-31280D03*
X69420Y-44890D03*
X61810Y-39710D03*
X63400Y-36580D03*
X65500Y-36580D03*
X67970Y-45830D03*
X71300Y-25670D03*
X70330Y-31260D03*
X61730Y-28700D03*
X71490Y-28860D03*
X69090Y-25730D03*
G54D20*
X66320Y-28510D02*
X62860Y-28510D01*
X67860Y-27780D02*
X67530Y-28110D01*
X69290Y-27780D02*
X67860Y-27780D01*
X62180Y-29190D02*
X60550Y-29190D01*
X67530Y-28110D02*
X67130Y-28510D01*
X62860Y-28510D02*
X62180Y-29190D01*
X67130Y-28510D02*
X66320Y-28510D01*
X59550Y-18840D02*
X60410Y-17980D01*
X68540Y-17980D02*
X68700Y-17980D01*
X68990Y-18270D02*
X68990Y-19650D01*
X60440Y-27920D02*
X59530Y-27920D01*
X60410Y-17980D02*
X68540Y-17980D01*
X68700Y-17980D02*
X68990Y-18270D01*
X59530Y-27920D02*
X59500Y-27890D01*
X70340Y-28560D02*
X70350Y-28550D01*
X70340Y-29210D02*
X70340Y-28560D01*
X65540Y-22990D02*
X65570Y-22960D01*
X64480Y-22990D02*
X65540Y-22990D01*
X64480Y-22990D02*
X63220Y-22990D01*
X64720Y-24325D02*
X62985Y-24325D01*
X61690Y-24360D02*
X62950Y-24360D01*
X62985Y-24325D02*
X62950Y-24360D01*
X59720Y-42640D02*
X60570Y-42640D01*
X59050Y-45390D02*
X59050Y-43310D01*
X59050Y-43310D02*
X59720Y-42640D01*
X60570Y-42640D02*
X61890Y-42640D01*
X67020Y-45000D02*
X66700Y-45320D01*
X63760Y-38190D02*
X63900Y-38330D01*
X60580Y-42000D02*
X60580Y-42490D01*
X64410Y-41600D02*
X63980Y-41600D01*
X64450Y-38330D02*
X64710Y-38590D01*
X62390Y-42640D02*
X61890Y-42640D01*
X63900Y-38330D02*
X64450Y-38330D01*
X64980Y-41030D02*
X64980Y-38860D01*
X58100Y-42920D02*
X58490Y-43310D01*
X63760Y-37550D02*
X63760Y-38190D01*
X58080Y-42920D02*
X58100Y-42920D01*
X64410Y-41600D02*
X64980Y-41030D01*
X66700Y-45320D02*
X66700Y-46280D01*
X68650Y-44780D02*
X68430Y-45000D01*
X63980Y-41600D02*
X63430Y-41600D01*
X63430Y-41600D02*
X62390Y-42640D01*
X66250Y-46570D02*
X60230Y-46570D01*
X60580Y-42490D02*
X60570Y-42500D01*
X60230Y-46570D02*
X59050Y-45390D01*
X68650Y-44760D02*
X68650Y-44780D01*
X66410Y-46570D02*
X66250Y-46570D01*
X68650Y-43980D02*
X68650Y-44760D01*
X58490Y-43310D02*
X59050Y-43310D01*
X68430Y-45000D02*
X67020Y-45000D01*
X66700Y-46280D02*
X66410Y-46570D01*
X60570Y-42500D02*
X60570Y-42640D01*
X64980Y-38860D02*
X64710Y-38590D01*
X67860Y-43020D02*
X67860Y-43430D01*
X63310Y-40600D02*
X63980Y-40600D01*
X67860Y-43020D02*
X67860Y-42940D01*
X61910Y-42000D02*
X63310Y-40600D01*
X68120Y-42680D02*
X68630Y-42680D01*
X61770Y-42000D02*
X61910Y-42000D01*
X67860Y-43430D02*
X67870Y-43440D01*
X67860Y-42940D02*
X68120Y-42680D01*
X64420Y-44030D02*
X64420Y-44040D01*
X66980Y-42600D02*
X65850Y-42600D01*
X64420Y-44040D02*
X63570Y-44890D01*
X65850Y-42600D02*
X64420Y-44030D01*
X67460Y-42600D02*
X66980Y-42600D01*
X62860Y-44890D02*
X61380Y-44890D01*
X68650Y-41580D02*
X68100Y-41580D01*
X68100Y-41580D02*
X67800Y-41880D01*
X67220Y-42600D02*
X66980Y-42600D01*
X63570Y-44890D02*
X62860Y-44890D01*
X67800Y-42260D02*
X67460Y-42600D01*
X67800Y-41880D02*
X67800Y-42260D01*
X71390Y-41740D02*
X71390Y-42340D01*
X67820Y-41210D02*
X67430Y-41600D01*
X71390Y-42340D02*
X71260Y-42470D01*
X67820Y-40720D02*
X67820Y-41210D01*
X71260Y-42470D02*
X71250Y-42470D01*
X67430Y-41600D02*
X66980Y-41600D01*
X68020Y-40520D02*
X67820Y-40720D01*
X68630Y-40520D02*
X68020Y-40520D01*
X64310Y-44930D02*
X63490Y-45750D01*
X71390Y-40440D02*
X71390Y-39710D01*
X60440Y-45750D02*
X63390Y-45750D01*
X60440Y-45750D02*
X60080Y-45390D01*
X64310Y-44900D02*
X64310Y-44930D01*
X63490Y-45750D02*
X63390Y-45750D01*
X61350Y-38660D02*
X62520Y-38660D01*
X60080Y-45390D02*
X60080Y-44870D01*
X66060Y-43150D02*
X64310Y-44900D01*
X62530Y-38670D02*
X63440Y-38670D01*
X62520Y-38660D02*
X62530Y-38670D01*
X63440Y-38670D02*
X63570Y-38800D01*
X63570Y-38800D02*
X63940Y-38800D01*
X62430Y-40700D02*
X61770Y-40700D01*
X63530Y-39600D02*
X62430Y-40700D01*
X60580Y-40700D02*
X61770Y-40700D01*
X59460Y-40710D02*
X59460Y-39790D01*
X63980Y-39600D02*
X63530Y-39600D01*
X59460Y-40710D02*
X60570Y-40710D01*
X59460Y-39790D02*
X59380Y-39710D01*
X60570Y-40710D02*
X60580Y-40700D01*
G54D21*
X69950Y-44530D02*
X69590Y-44890D01*
X71460Y-37035D02*
X71550Y-36945D01*
X71550Y-36945D02*
X72000Y-36945D01*
X65824Y-40309D02*
X65730Y-40215D01*
X63980Y-42600D02*
X64650Y-42600D01*
X64650Y-42600D02*
X65824Y-41426D01*
X63220Y-21010D02*
X62900Y-20690D01*
X69590Y-44890D02*
X69420Y-44890D01*
X65824Y-41426D02*
X65824Y-40309D01*
X69950Y-43980D02*
X69950Y-44530D01*
X59422Y-20966D02*
X60056Y-20966D01*
X58784Y-24816D02*
X58784Y-24222D01*
X59444Y-20988D02*
X59422Y-20966D01*
X59410Y-20980D02*
X60070Y-20980D01*
X58715Y-24885D02*
X58784Y-24816D01*
X58905Y-19410D02*
X58905Y-18660D01*
X60056Y-20966D02*
X60070Y-20980D01*
X57150Y-24885D02*
X58715Y-24885D01*
X59410Y-19915D02*
X58905Y-19410D01*
X57498Y-28498D02*
X57436Y-28560D01*
X58784Y-24222D02*
X58740Y-24178D01*
X58905Y-18660D02*
X58785Y-18540D01*
X62530Y-37370D02*
X62530Y-36620D01*
X60950Y-20980D02*
X61520Y-20410D01*
X57435Y-28560D02*
X57435Y-28435D01*
X57498Y-28488D02*
X57498Y-28498D01*
X57090Y-24945D02*
X57090Y-25200D01*
X57000Y-27990D02*
X57498Y-28488D01*
X63220Y-21690D02*
X63220Y-21010D01*
X60070Y-20980D02*
X60950Y-20980D01*
X69040Y-30510D02*
X69040Y-31270D01*
X61510Y-23040D02*
X61980Y-22570D01*
X68660Y-37070D02*
X68660Y-38170D01*
X70030Y-43900D02*
X69950Y-43980D01*
X61800Y-20690D02*
X61520Y-20410D01*
X62860Y-42900D02*
X63160Y-42600D01*
X57150Y-24885D02*
X57090Y-24945D01*
X59410Y-20980D02*
X59410Y-19915D01*
X57436Y-28560D02*
X57435Y-28560D01*
X62530Y-36620D02*
X62520Y-36610D01*
X59460Y-42010D02*
X59460Y-42110D01*
X59120Y-38670D02*
X60190Y-38670D01*
X62900Y-20690D02*
X61800Y-20690D01*
X64030Y-27970D02*
X64675Y-27325D01*
X69950Y-42700D02*
X69970Y-42680D01*
X59505Y-36210D02*
X59730Y-36210D01*
X61980Y-22570D02*
X61980Y-22130D01*
X57810Y-28810D02*
X57830Y-28810D01*
X68660Y-38170D02*
X68650Y-38180D01*
X69950Y-41580D02*
X69950Y-42660D01*
X63160Y-42600D02*
X63980Y-42600D01*
X58930Y-36785D02*
X59505Y-36210D01*
X58030Y-37415D02*
X58660Y-36785D01*
X58660Y-36785D02*
X58930Y-36785D01*
X62420Y-21690D02*
X63220Y-21690D01*
X61520Y-20410D02*
X61480Y-20370D01*
X62970Y-27970D02*
X64030Y-27970D01*
X67910Y-37070D02*
X67400Y-37580D01*
X59110Y-38680D02*
X59120Y-38670D01*
X64675Y-27325D02*
X64720Y-27325D01*
X70950Y-43300D02*
X70950Y-43530D01*
X62860Y-43590D02*
X62860Y-42900D01*
X68660Y-37070D02*
X67910Y-37070D01*
X61480Y-20370D02*
X61480Y-19620D01*
X69950Y-42700D02*
X69930Y-42680D01*
X60950Y-23040D02*
X61510Y-23040D01*
X57435Y-28435D02*
X57810Y-28810D01*
X64720Y-27325D02*
X66435Y-27325D01*
X70340Y-30510D02*
X69040Y-30510D01*
X69950Y-43980D02*
X69950Y-42700D01*
X70580Y-43900D02*
X70030Y-43900D01*
X69040Y-31270D02*
X69050Y-31280D01*
X69950Y-42660D02*
X69930Y-42680D01*
X70950Y-43530D02*
X70580Y-43900D01*
X61980Y-22130D02*
X62420Y-21690D01*
X66435Y-27325D02*
X66520Y-27410D01*
X59460Y-42110D02*
X58900Y-42670D01*
G54D20*
X69820Y-36250D02*
X68640Y-36250D01*
X69960Y-36390D02*
X69820Y-36250D01*
X68640Y-36250D02*
X68520Y-36130D01*
X69960Y-37070D02*
X69960Y-36390D01*
X68520Y-36130D02*
X68520Y-34960D01*
X61350Y-36950D02*
X61350Y-37360D01*
X62280Y-36020D02*
X61350Y-36950D01*
X67240Y-36020D02*
X62280Y-36020D01*
X67520Y-35740D02*
X67240Y-36020D01*
X67520Y-34960D02*
X67520Y-35740D01*
X60680Y-39710D02*
X61850Y-39710D01*
X61850Y-39710D02*
X61810Y-39710D01*
X63400Y-36580D02*
X65500Y-36580D01*
X63400Y-36580D02*
X63430Y-36550D01*
X61360Y-43570D02*
X61380Y-43590D01*
X60080Y-43570D02*
X61360Y-43570D01*
X61310Y-36310D02*
X61480Y-36140D01*
X61290Y-36310D02*
X61310Y-36310D01*
X60190Y-36730D02*
X60610Y-36310D01*
X61480Y-36140D02*
X61480Y-34260D01*
X65710Y-33890D02*
X65940Y-34120D01*
X60190Y-37370D02*
X60190Y-36730D01*
X61480Y-34260D02*
X61850Y-33890D01*
X65940Y-34120D02*
X65940Y-34940D01*
X60610Y-36310D02*
X61290Y-36310D01*
X61850Y-33890D02*
X65710Y-33890D01*
X68690Y-45830D02*
X67970Y-45830D01*
X69930Y-39460D02*
X69950Y-39440D01*
X72300Y-38940D02*
X72300Y-42930D01*
X69950Y-38180D02*
X69950Y-39440D01*
X69400Y-45830D02*
X68690Y-45830D01*
X69930Y-39460D02*
X69950Y-39440D01*
X71540Y-38180D02*
X72300Y-38940D01*
X72300Y-42930D02*
X69400Y-45830D01*
X69930Y-40520D02*
X69930Y-39460D01*
X69950Y-39440D02*
X69930Y-39460D01*
X71540Y-38180D02*
X69950Y-38180D01*
X60530Y-30190D02*
X59550Y-30190D01*
X61180Y-29540D02*
X60530Y-30190D01*
X62830Y-29430D02*
X62720Y-29540D01*
X63340Y-29430D02*
X62830Y-29430D01*
X62720Y-29540D02*
X61180Y-29540D01*
X70090Y-25280D02*
X69570Y-24760D01*
X69570Y-24450D02*
X68430Y-23310D01*
X68430Y-23310D02*
X66810Y-21690D01*
X66810Y-21690D02*
X64480Y-21690D01*
X69570Y-24760D02*
X69570Y-24450D01*
X70390Y-25280D02*
X70090Y-25280D01*
X72090Y-27780D02*
X72290Y-27580D01*
X71460Y-27780D02*
X72090Y-27780D01*
X70380Y-27780D02*
X71460Y-27780D01*
X71890Y-25670D02*
X71300Y-25670D01*
X72290Y-27580D02*
X72290Y-26070D01*
X72290Y-26070D02*
X71890Y-25670D01*
X67210Y-31040D02*
X67210Y-31050D01*
X58520Y-27110D02*
X59010Y-26620D01*
X58520Y-29420D02*
X58520Y-27110D01*
X67730Y-30520D02*
X67210Y-31040D01*
X59630Y-31220D02*
X58790Y-30380D01*
X60440Y-26620D02*
X61660Y-26620D01*
X67210Y-31050D02*
X67150Y-31110D01*
X58790Y-30380D02*
X58790Y-29690D01*
X61770Y-26670D02*
X61740Y-26700D01*
X62540Y-31110D02*
X61730Y-31110D01*
X61660Y-26620D02*
X61740Y-26700D01*
X59520Y-26620D02*
X60440Y-26620D01*
X67150Y-31110D02*
X66430Y-31110D01*
X66430Y-31110D02*
X62540Y-31110D01*
X62970Y-26670D02*
X61770Y-26670D01*
X61730Y-31110D02*
X61620Y-31220D01*
X58790Y-29690D02*
X58520Y-29420D01*
X59010Y-26620D02*
X59520Y-26620D01*
X61620Y-31220D02*
X59630Y-31220D01*
X60470Y-23840D02*
X60460Y-23840D01*
X60930Y-22060D02*
X60950Y-22040D01*
X60470Y-24330D02*
X60470Y-23840D01*
X59860Y-22230D02*
X60050Y-22040D01*
X59860Y-23240D02*
X59860Y-22420D01*
X59860Y-22420D02*
X59860Y-22230D01*
X60460Y-23840D02*
X59860Y-23240D01*
X60050Y-22040D02*
X60950Y-22040D01*
X66770Y-29430D02*
X65970Y-29430D01*
X67730Y-27335D02*
X67720Y-27325D01*
X66980Y-29220D02*
X66770Y-29430D01*
X71550Y-31000D02*
X71460Y-31000D01*
X67730Y-29220D02*
X66980Y-29220D01*
X71550Y-31000D02*
X71410Y-31000D01*
X71410Y-31000D02*
X71150Y-31260D01*
X67740Y-29210D02*
X67730Y-29220D01*
X71150Y-31260D02*
X70330Y-31260D01*
X69040Y-29210D02*
X67740Y-29210D01*
X61740Y-28690D02*
X61730Y-28700D01*
X61740Y-28000D02*
X61740Y-28690D01*
X64380Y-18960D02*
X64380Y-19620D01*
X60480Y-18920D02*
X60700Y-18700D01*
X60700Y-18700D02*
X64120Y-18700D01*
X60480Y-19620D02*
X60480Y-18920D01*
X64120Y-18700D02*
X64380Y-18960D01*
X68320Y-26310D02*
X67735Y-26310D01*
X67735Y-26310D02*
X67720Y-26325D01*
X68510Y-26500D02*
X68500Y-26490D01*
X68500Y-26490D02*
X68320Y-26310D01*
X69290Y-26480D02*
X68510Y-26480D01*
X71460Y-26480D02*
X70380Y-26480D01*
X69290Y-26480D02*
X70380Y-26480D01*
X68510Y-26480D02*
X68500Y-26490D01*
X62950Y-25660D02*
X61690Y-25660D01*
X60470Y-25630D02*
X61660Y-25630D01*
X61660Y-25630D02*
X61690Y-25660D01*
X63840Y-25660D02*
X62950Y-25660D01*
X64175Y-25325D02*
X63840Y-25660D01*
X64720Y-25325D02*
X64175Y-25325D01*
X63840Y-25660D02*
X63810Y-25690D01*
X62920Y-25630D02*
X62950Y-25660D01*
G54D21*
X69090Y-25730D02*
X68760Y-25400D01*
X67720Y-24325D02*
X67895Y-24325D01*
X71550Y-28920D02*
X71550Y-29700D01*
X63380Y-20350D02*
X63380Y-19620D01*
X71550Y-28920D02*
X71490Y-28860D01*
X68760Y-25190D02*
X68760Y-25400D01*
X67895Y-24325D02*
X68760Y-25190D01*
X67040Y-20870D02*
X63900Y-20870D01*
X63900Y-20870D02*
X63380Y-20350D01*
X69460Y-21850D02*
X68020Y-21850D01*
X68020Y-21850D02*
X67040Y-20870D01*
X68020Y-39440D02*
X67860Y-39600D01*
X67860Y-39600D02*
X66980Y-39600D01*
X66400Y-38260D02*
X66400Y-37580D01*
X65090Y-37580D02*
X65060Y-37550D01*
X66400Y-37580D02*
X65090Y-37580D01*
X66980Y-39600D02*
X66980Y-38840D01*
X68650Y-39440D02*
X68020Y-39440D01*
X66980Y-38840D02*
X66400Y-38260D01*
G54D10*
G36*
X68300Y-44635D02*
X68285Y-44650D01*
X67020Y-44650D01*
X66886Y-44677D01*
X66772Y-44753D01*
X66453Y-45073D01*
X66379Y-45183D01*
X66379Y-44631D01*
X66341Y-44539D01*
X66271Y-44469D01*
X66180Y-44431D01*
X66081Y-44431D01*
X65481Y-44431D01*
X65389Y-44469D01*
X65319Y-44539D01*
X65281Y-44630D01*
X65281Y-44729D01*
X65281Y-45329D01*
X65319Y-45421D01*
X65389Y-45491D01*
X65480Y-45529D01*
X65542Y-45529D01*
X65522Y-45602D01*
X65830Y-45909D01*
X66138Y-45602D01*
X66117Y-45529D01*
X66179Y-45529D01*
X66271Y-45491D01*
X66341Y-45421D01*
X66350Y-45399D01*
X66350Y-45816D01*
X66302Y-45699D01*
X66208Y-45672D01*
X65901Y-45980D01*
X65830Y-46051D01*
X65759Y-45980D01*
X65724Y-45945D01*
X65452Y-45672D01*
X65358Y-45699D01*
X65287Y-45901D01*
X65298Y-46114D01*
X65341Y-46220D01*
X60374Y-46220D01*
X59400Y-45245D01*
X59400Y-43454D01*
X59431Y-43423D01*
X59431Y-43919D01*
X59469Y-44011D01*
X59539Y-44081D01*
X59630Y-44119D01*
X59729Y-44119D01*
X60529Y-44119D01*
X60621Y-44081D01*
X60691Y-44011D01*
X60729Y-43920D01*
X60731Y-43920D01*
X60731Y-43939D01*
X60769Y-44031D01*
X60839Y-44101D01*
X60930Y-44139D01*
X61029Y-44139D01*
X61829Y-44139D01*
X61921Y-44101D01*
X61991Y-44031D01*
X62029Y-43940D01*
X62029Y-43841D01*
X62029Y-43241D01*
X61991Y-43149D01*
X61921Y-43079D01*
X61830Y-43041D01*
X61731Y-43041D01*
X60931Y-43041D01*
X60839Y-43079D01*
X60769Y-43149D01*
X60739Y-43220D01*
X60728Y-43220D01*
X60691Y-43129D01*
X60621Y-43059D01*
X60530Y-43021D01*
X60431Y-43021D01*
X59833Y-43021D01*
X59864Y-42990D01*
X60570Y-42990D01*
X61890Y-42990D01*
X62390Y-42990D01*
X62390Y-42989D01*
X62524Y-42963D01*
X62637Y-42887D01*
X63574Y-41950D01*
X63587Y-41950D01*
X63682Y-42045D01*
X63822Y-42103D01*
X63713Y-42148D01*
X63690Y-42239D01*
X63980Y-42529D01*
X64270Y-42239D01*
X64247Y-42148D01*
X64128Y-42106D01*
X64277Y-42045D01*
X64372Y-41950D01*
X64410Y-41950D01*
X64410Y-41949D01*
X64544Y-41923D01*
X64657Y-41847D01*
X65227Y-41278D01*
X65227Y-41277D01*
X65303Y-41164D01*
X65329Y-41030D01*
X65330Y-41030D01*
X65330Y-38860D01*
X65329Y-38859D01*
X65303Y-38726D01*
X65227Y-38613D01*
X65227Y-38612D01*
X64958Y-38344D01*
X64957Y-38343D01*
X64957Y-38342D01*
X64813Y-38199D01*
X65409Y-38199D01*
X65501Y-38161D01*
X65571Y-38091D01*
X65596Y-38030D01*
X65898Y-38030D01*
X65950Y-38082D01*
X65950Y-38260D01*
X65984Y-38433D01*
X66082Y-38578D01*
X66530Y-39026D01*
X66530Y-39314D01*
X66455Y-39495D01*
X66455Y-39704D01*
X66535Y-39897D01*
X66682Y-40045D01*
X66815Y-40100D01*
X66683Y-40155D01*
X66535Y-40302D01*
X66455Y-40495D01*
X66455Y-40704D01*
X66535Y-40897D01*
X66682Y-41045D01*
X66815Y-41100D01*
X66683Y-41155D01*
X66535Y-41302D01*
X66455Y-41495D01*
X66455Y-41704D01*
X66535Y-41897D01*
X66682Y-42045D01*
X66815Y-42100D01*
X66683Y-42155D01*
X66587Y-42250D01*
X65850Y-42250D01*
X65716Y-42277D01*
X65602Y-42353D01*
X64499Y-43456D01*
X64499Y-42674D01*
X64488Y-42470D01*
X64432Y-42333D01*
X64341Y-42310D01*
X64051Y-42600D01*
X64341Y-42890D01*
X64432Y-42867D01*
X64499Y-42674D01*
X64499Y-43456D01*
X64270Y-43685D01*
X64270Y-42961D01*
X63980Y-42671D01*
X63909Y-42742D01*
X63909Y-42600D01*
X63619Y-42310D01*
X63528Y-42333D01*
X63461Y-42526D01*
X63472Y-42730D01*
X63528Y-42867D01*
X63619Y-42890D01*
X63909Y-42600D01*
X63909Y-42742D01*
X63690Y-42961D01*
X63713Y-43052D01*
X63906Y-43119D01*
X64110Y-43108D01*
X64247Y-43052D01*
X64270Y-42961D01*
X64270Y-43685D01*
X64173Y-43783D01*
X64154Y-43810D01*
X63510Y-44454D01*
X63510Y-43702D01*
X63510Y-43478D01*
X63509Y-43241D01*
X63471Y-43149D01*
X63401Y-43079D01*
X63310Y-43041D01*
X63211Y-43041D01*
X62972Y-43040D01*
X62910Y-43102D01*
X62910Y-43540D01*
X63448Y-43540D01*
X63510Y-43478D01*
X63510Y-43702D01*
X63448Y-43640D01*
X62910Y-43640D01*
X62910Y-44078D01*
X62972Y-44140D01*
X63211Y-44139D01*
X63310Y-44139D01*
X63401Y-44101D01*
X63471Y-44031D01*
X63509Y-43939D01*
X63510Y-43702D01*
X63510Y-44454D01*
X63484Y-44481D01*
X63471Y-44449D01*
X63401Y-44379D01*
X63310Y-44341D01*
X63211Y-44341D01*
X62810Y-44341D01*
X62810Y-44078D01*
X62810Y-43640D01*
X62810Y-43540D01*
X62810Y-43102D01*
X62748Y-43040D01*
X62509Y-43041D01*
X62410Y-43041D01*
X62319Y-43079D01*
X62249Y-43149D01*
X62211Y-43241D01*
X62210Y-43478D01*
X62272Y-43540D01*
X62810Y-43540D01*
X62810Y-43640D01*
X62272Y-43640D01*
X62210Y-43702D01*
X62211Y-43939D01*
X62249Y-44031D01*
X62319Y-44101D01*
X62410Y-44139D01*
X62509Y-44139D01*
X62748Y-44140D01*
X62810Y-44078D01*
X62810Y-44341D01*
X62411Y-44341D01*
X62319Y-44379D01*
X62249Y-44449D01*
X62211Y-44540D01*
X62028Y-44540D01*
X61991Y-44449D01*
X61921Y-44379D01*
X61830Y-44341D01*
X61731Y-44341D01*
X60931Y-44341D01*
X60839Y-44379D01*
X60769Y-44449D01*
X60731Y-44540D01*
X60731Y-44639D01*
X60731Y-45239D01*
X60769Y-45331D01*
X60838Y-45400D01*
X60584Y-45400D01*
X60581Y-45397D01*
X60621Y-45381D01*
X60691Y-45311D01*
X60729Y-45220D01*
X60729Y-45121D01*
X60729Y-44521D01*
X60691Y-44429D01*
X60621Y-44359D01*
X60530Y-44321D01*
X60431Y-44321D01*
X59631Y-44321D01*
X59539Y-44359D01*
X59469Y-44429D01*
X59431Y-44520D01*
X59431Y-44619D01*
X59431Y-45219D01*
X59469Y-45311D01*
X59539Y-45381D01*
X59630Y-45419D01*
X59729Y-45419D01*
X59735Y-45419D01*
X59736Y-45419D01*
X59757Y-45524D01*
X59833Y-45637D01*
X60192Y-45997D01*
X60193Y-45997D01*
X60306Y-46073D01*
X60440Y-46100D01*
X63390Y-46100D01*
X63490Y-46100D01*
X63490Y-46099D01*
X63624Y-46073D01*
X63737Y-45997D01*
X64557Y-45178D01*
X64557Y-45177D01*
X64618Y-45085D01*
X66129Y-43575D01*
X66144Y-43575D01*
X66300Y-43511D01*
X66420Y-43391D01*
X66485Y-43235D01*
X66485Y-43066D01*
X66437Y-42950D01*
X66587Y-42950D01*
X66682Y-43045D01*
X66875Y-43125D01*
X67084Y-43125D01*
X67277Y-43045D01*
X67372Y-42950D01*
X67460Y-42950D01*
X67460Y-42949D01*
X67510Y-42939D01*
X67510Y-42940D01*
X67510Y-43020D01*
X67510Y-43199D01*
X67445Y-43355D01*
X67445Y-43524D01*
X67509Y-43680D01*
X67629Y-43800D01*
X67785Y-43865D01*
X67954Y-43865D01*
X68101Y-43804D01*
X68101Y-44429D01*
X68139Y-44521D01*
X68209Y-44591D01*
X68300Y-44629D01*
X68300Y-44635D01*
X68300Y-44635D01*
G37*
G54D22*
X68300Y-44635D02*
X68285Y-44650D01*
X67020Y-44650D01*
X66886Y-44677D01*
X66772Y-44753D01*
X66453Y-45073D01*
X66379Y-45183D01*
X66379Y-44631D01*
X66341Y-44539D01*
X66271Y-44469D01*
X66180Y-44431D01*
X66081Y-44431D01*
X65481Y-44431D01*
X65389Y-44469D01*
X65319Y-44539D01*
X65281Y-44630D01*
X65281Y-44729D01*
X65281Y-45329D01*
X65319Y-45421D01*
X65389Y-45491D01*
X65480Y-45529D01*
X65542Y-45529D01*
X65522Y-45602D01*
X65830Y-45909D01*
X66138Y-45602D01*
X66117Y-45529D01*
X66179Y-45529D01*
X66271Y-45491D01*
X66341Y-45421D01*
X66350Y-45399D01*
X66350Y-45816D01*
X66302Y-45699D01*
X66208Y-45672D01*
X65901Y-45980D01*
X65830Y-46051D01*
X65759Y-45980D01*
X65724Y-45945D01*
X65452Y-45672D01*
X65358Y-45699D01*
X65287Y-45901D01*
X65298Y-46114D01*
X65341Y-46220D01*
X60374Y-46220D01*
X59400Y-45245D01*
X59400Y-43454D01*
X59431Y-43423D01*
X59431Y-43919D01*
X59469Y-44011D01*
X59539Y-44081D01*
X59630Y-44119D01*
X59729Y-44119D01*
X60529Y-44119D01*
X60621Y-44081D01*
X60691Y-44011D01*
X60729Y-43920D01*
X60731Y-43920D01*
X60731Y-43939D01*
X60769Y-44031D01*
X60839Y-44101D01*
X60930Y-44139D01*
X61029Y-44139D01*
X61829Y-44139D01*
X61921Y-44101D01*
X61991Y-44031D01*
X62029Y-43940D01*
X62029Y-43841D01*
X62029Y-43241D01*
X61991Y-43149D01*
X61921Y-43079D01*
X61830Y-43041D01*
X61731Y-43041D01*
X60931Y-43041D01*
X60839Y-43079D01*
X60769Y-43149D01*
X60739Y-43220D01*
X60728Y-43220D01*
X60691Y-43129D01*
X60621Y-43059D01*
X60530Y-43021D01*
X60431Y-43021D01*
X59833Y-43021D01*
X59864Y-42990D01*
X60570Y-42990D01*
X61890Y-42990D01*
X62390Y-42990D01*
X62390Y-42989D01*
X62524Y-42963D01*
X62637Y-42887D01*
X63574Y-41950D01*
X63587Y-41950D01*
X63682Y-42045D01*
X63822Y-42103D01*
X63713Y-42148D01*
X63690Y-42239D01*
X63980Y-42529D01*
X64270Y-42239D01*
X64247Y-42148D01*
X64128Y-42106D01*
X64277Y-42045D01*
X64372Y-41950D01*
X64410Y-41950D01*
X64410Y-41949D01*
X64544Y-41923D01*
X64657Y-41847D01*
X65227Y-41278D01*
X65227Y-41277D01*
X65303Y-41164D01*
X65329Y-41030D01*
X65330Y-41030D01*
X65330Y-38860D01*
X65329Y-38859D01*
X65303Y-38726D01*
X65227Y-38613D01*
X65227Y-38612D01*
X64958Y-38344D01*
X64957Y-38343D01*
X64957Y-38342D01*
X64813Y-38199D01*
X65409Y-38199D01*
X65501Y-38161D01*
X65571Y-38091D01*
X65596Y-38030D01*
X65898Y-38030D01*
X65950Y-38082D01*
X65950Y-38260D01*
X65984Y-38433D01*
X66082Y-38578D01*
X66530Y-39026D01*
X66530Y-39314D01*
X66455Y-39495D01*
X66455Y-39704D01*
X66535Y-39897D01*
X66682Y-40045D01*
X66815Y-40100D01*
X66683Y-40155D01*
X66535Y-40302D01*
X66455Y-40495D01*
X66455Y-40704D01*
X66535Y-40897D01*
X66682Y-41045D01*
X66815Y-41100D01*
X66683Y-41155D01*
X66535Y-41302D01*
X66455Y-41495D01*
X66455Y-41704D01*
X66535Y-41897D01*
X66682Y-42045D01*
X66815Y-42100D01*
X66683Y-42155D01*
X66587Y-42250D01*
X65850Y-42250D01*
X65716Y-42277D01*
X65602Y-42353D01*
X64499Y-43456D01*
X64499Y-42674D01*
X64488Y-42470D01*
X64432Y-42333D01*
X64341Y-42310D01*
X64051Y-42600D01*
X64341Y-42890D01*
X64432Y-42867D01*
X64499Y-42674D01*
X64499Y-43456D01*
X64270Y-43685D01*
X64270Y-42961D01*
X63980Y-42671D01*
X63909Y-42742D01*
X63909Y-42600D01*
X63619Y-42310D01*
X63528Y-42333D01*
X63461Y-42526D01*
X63472Y-42730D01*
X63528Y-42867D01*
X63619Y-42890D01*
X63909Y-42600D01*
X63909Y-42742D01*
X63690Y-42961D01*
X63713Y-43052D01*
X63906Y-43119D01*
X64110Y-43108D01*
X64247Y-43052D01*
X64270Y-42961D01*
X64270Y-43685D01*
X64173Y-43783D01*
X64154Y-43810D01*
X63510Y-44454D01*
X63510Y-43702D01*
X63510Y-43478D01*
X63509Y-43241D01*
X63471Y-43149D01*
X63401Y-43079D01*
X63310Y-43041D01*
X63211Y-43041D01*
X62972Y-43040D01*
X62910Y-43102D01*
X62910Y-43540D01*
X63448Y-43540D01*
X63510Y-43478D01*
X63510Y-43702D01*
X63448Y-43640D01*
X62910Y-43640D01*
X62910Y-44078D01*
X62972Y-44140D01*
X63211Y-44139D01*
X63310Y-44139D01*
X63401Y-44101D01*
X63471Y-44031D01*
X63509Y-43939D01*
X63510Y-43702D01*
X63510Y-44454D01*
X63484Y-44481D01*
X63471Y-44449D01*
X63401Y-44379D01*
X63310Y-44341D01*
X63211Y-44341D01*
X62810Y-44341D01*
X62810Y-44078D01*
X62810Y-43640D01*
X62810Y-43540D01*
X62810Y-43102D01*
X62748Y-43040D01*
X62509Y-43041D01*
X62410Y-43041D01*
X62319Y-43079D01*
X62249Y-43149D01*
X62211Y-43241D01*
X62210Y-43478D01*
X62272Y-43540D01*
X62810Y-43540D01*
X62810Y-43640D01*
X62272Y-43640D01*
X62210Y-43702D01*
X62211Y-43939D01*
X62249Y-44031D01*
X62319Y-44101D01*
X62410Y-44139D01*
X62509Y-44139D01*
X62748Y-44140D01*
X62810Y-44078D01*
X62810Y-44341D01*
X62411Y-44341D01*
X62319Y-44379D01*
X62249Y-44449D01*
X62211Y-44540D01*
X62028Y-44540D01*
X61991Y-44449D01*
X61921Y-44379D01*
X61830Y-44341D01*
X61731Y-44341D01*
X60931Y-44341D01*
X60839Y-44379D01*
X60769Y-44449D01*
X60731Y-44540D01*
X60731Y-44639D01*
X60731Y-45239D01*
X60769Y-45331D01*
X60838Y-45400D01*
X60584Y-45400D01*
X60581Y-45397D01*
X60621Y-45381D01*
X60691Y-45311D01*
X60729Y-45220D01*
X60729Y-45121D01*
X60729Y-44521D01*
X60691Y-44429D01*
X60621Y-44359D01*
X60530Y-44321D01*
X60431Y-44321D01*
X59631Y-44321D01*
X59539Y-44359D01*
X59469Y-44429D01*
X59431Y-44520D01*
X59431Y-44619D01*
X59431Y-45219D01*
X59469Y-45311D01*
X59539Y-45381D01*
X59630Y-45419D01*
X59729Y-45419D01*
X59735Y-45419D01*
X59736Y-45419D01*
X59757Y-45524D01*
X59833Y-45637D01*
X60192Y-45997D01*
X60193Y-45997D01*
X60306Y-46073D01*
X60440Y-46100D01*
X63390Y-46100D01*
X63490Y-46100D01*
X63490Y-46099D01*
X63624Y-46073D01*
X63737Y-45997D01*
X64557Y-45178D01*
X64557Y-45177D01*
X64618Y-45085D01*
X66129Y-43575D01*
X66144Y-43575D01*
X66300Y-43511D01*
X66420Y-43391D01*
X66485Y-43235D01*
X66485Y-43066D01*
X66437Y-42950D01*
X66587Y-42950D01*
X66682Y-43045D01*
X66875Y-43125D01*
X67084Y-43125D01*
X67277Y-43045D01*
X67372Y-42950D01*
X67460Y-42950D01*
X67460Y-42949D01*
X67510Y-42939D01*
X67510Y-42940D01*
X67510Y-43020D01*
X67510Y-43199D01*
X67445Y-43355D01*
X67445Y-43524D01*
X67509Y-43680D01*
X67629Y-43800D01*
X67785Y-43865D01*
X67954Y-43865D01*
X68101Y-43804D01*
X68101Y-44429D01*
X68139Y-44521D01*
X68209Y-44591D01*
X68300Y-44629D01*
X68300Y-44635D01*
G54D10*
G36*
X71950Y-42785D02*
X70499Y-44236D01*
X70500Y-44092D01*
X70500Y-43868D01*
X70500Y-41692D01*
X70438Y-41630D01*
X70000Y-41630D01*
X70000Y-42072D01*
X69980Y-42092D01*
X69980Y-42630D01*
X70418Y-42630D01*
X70480Y-42568D01*
X70479Y-42329D01*
X70479Y-42230D01*
X70441Y-42140D01*
X70461Y-42121D01*
X70499Y-42030D01*
X70499Y-41931D01*
X70500Y-41692D01*
X70500Y-43868D01*
X70499Y-43629D01*
X70499Y-43530D01*
X70480Y-43484D01*
X70480Y-42792D01*
X70418Y-42730D01*
X69980Y-42730D01*
X69980Y-43268D01*
X70042Y-43330D01*
X70279Y-43329D01*
X70371Y-43291D01*
X70441Y-43221D01*
X70479Y-43130D01*
X70479Y-43031D01*
X70480Y-42792D01*
X70480Y-43484D01*
X70461Y-43439D01*
X70391Y-43369D01*
X70299Y-43331D01*
X70062Y-43330D01*
X70000Y-43392D01*
X70000Y-43930D01*
X70438Y-43930D01*
X70500Y-43868D01*
X70500Y-44092D01*
X70438Y-44030D01*
X70000Y-44030D01*
X70000Y-44568D01*
X70062Y-44630D01*
X70105Y-44629D01*
X69900Y-44834D01*
X69900Y-44568D01*
X69900Y-44030D01*
X69900Y-43930D01*
X69900Y-43392D01*
X69900Y-42168D01*
X69900Y-41630D01*
X69462Y-41630D01*
X69400Y-41692D01*
X69401Y-41931D01*
X69401Y-42030D01*
X69438Y-42119D01*
X69419Y-42139D01*
X69381Y-42230D01*
X69381Y-42329D01*
X69380Y-42568D01*
X69442Y-42630D01*
X69880Y-42630D01*
X69880Y-42188D01*
X69900Y-42168D01*
X69900Y-43392D01*
X69838Y-43330D01*
X69818Y-43330D01*
X69880Y-43268D01*
X69880Y-42730D01*
X69442Y-42730D01*
X69380Y-42792D01*
X69381Y-43031D01*
X69381Y-43130D01*
X69419Y-43221D01*
X69489Y-43291D01*
X69581Y-43329D01*
X69818Y-43330D01*
X69601Y-43331D01*
X69509Y-43369D01*
X69439Y-43439D01*
X69401Y-43530D01*
X69401Y-43629D01*
X69400Y-43868D01*
X69462Y-43930D01*
X69900Y-43930D01*
X69900Y-44030D01*
X69462Y-44030D01*
X69400Y-44092D01*
X69401Y-44331D01*
X69401Y-44430D01*
X69439Y-44521D01*
X69509Y-44591D01*
X69601Y-44629D01*
X69838Y-44630D01*
X69900Y-44568D01*
X69900Y-44834D01*
X69255Y-45480D01*
X69210Y-45480D01*
X69210Y-37182D01*
X69148Y-37120D01*
X68710Y-37120D01*
X68710Y-37582D01*
X68700Y-37592D01*
X68700Y-38130D01*
X69138Y-38130D01*
X69200Y-38068D01*
X69199Y-37829D01*
X69199Y-37730D01*
X69161Y-37639D01*
X69152Y-37630D01*
X69171Y-37611D01*
X69209Y-37520D01*
X69209Y-37421D01*
X69210Y-37182D01*
X69210Y-45480D01*
X68690Y-45480D01*
X68221Y-45480D01*
X68211Y-45470D01*
X68055Y-45405D01*
X67886Y-45405D01*
X67730Y-45469D01*
X67610Y-45589D01*
X67545Y-45745D01*
X67545Y-45914D01*
X67609Y-46070D01*
X67729Y-46190D01*
X67885Y-46255D01*
X68054Y-46255D01*
X68210Y-46191D01*
X68221Y-46180D01*
X68690Y-46180D01*
X69400Y-46180D01*
X69400Y-46179D01*
X69534Y-46153D01*
X69647Y-46077D01*
X70454Y-45269D01*
X70330Y-45570D01*
X70330Y-45988D01*
X70490Y-46374D01*
X70785Y-46670D01*
X70989Y-46755D01*
X66719Y-46755D01*
X66947Y-46528D01*
X66947Y-46527D01*
X67023Y-46414D01*
X67049Y-46280D01*
X67050Y-46280D01*
X67050Y-45464D01*
X67164Y-45350D01*
X68430Y-45350D01*
X68430Y-45349D01*
X68564Y-45323D01*
X68677Y-45247D01*
X68897Y-45028D01*
X68897Y-45027D01*
X68973Y-44914D01*
X68999Y-44780D01*
X69000Y-44780D01*
X69000Y-44760D01*
X69000Y-44628D01*
X69091Y-44591D01*
X69161Y-44521D01*
X69199Y-44430D01*
X69199Y-44331D01*
X69199Y-43531D01*
X69161Y-43439D01*
X69091Y-43369D01*
X69000Y-43331D01*
X68901Y-43331D01*
X68301Y-43331D01*
X68287Y-43336D01*
X68283Y-43329D01*
X68379Y-43329D01*
X68979Y-43329D01*
X69071Y-43291D01*
X69141Y-43221D01*
X69179Y-43130D01*
X69179Y-43031D01*
X69179Y-42231D01*
X69141Y-42140D01*
X69161Y-42121D01*
X69199Y-42030D01*
X69199Y-41931D01*
X69199Y-41131D01*
X69161Y-41039D01*
X69153Y-41031D01*
X69179Y-40970D01*
X69179Y-40871D01*
X69179Y-40071D01*
X69147Y-39994D01*
X69161Y-39981D01*
X69199Y-39890D01*
X69199Y-39791D01*
X69199Y-38991D01*
X69161Y-38899D01*
X69091Y-38829D01*
X69045Y-38809D01*
X69091Y-38791D01*
X69161Y-38721D01*
X69199Y-38630D01*
X69199Y-38531D01*
X69200Y-38292D01*
X69138Y-38230D01*
X68750Y-38230D01*
X68700Y-38230D01*
X68610Y-38230D01*
X68610Y-37658D01*
X68610Y-37120D01*
X68172Y-37120D01*
X68110Y-37182D01*
X68111Y-37421D01*
X68111Y-37520D01*
X68149Y-37611D01*
X68158Y-37620D01*
X68139Y-37639D01*
X68101Y-37730D01*
X68101Y-37829D01*
X68100Y-38068D01*
X68162Y-38130D01*
X68600Y-38130D01*
X68600Y-37668D01*
X68610Y-37658D01*
X68610Y-38230D01*
X68600Y-38230D01*
X68550Y-38230D01*
X68162Y-38230D01*
X68100Y-38292D01*
X68101Y-38531D01*
X68101Y-38630D01*
X68139Y-38721D01*
X68209Y-38791D01*
X68255Y-38810D01*
X68209Y-38829D01*
X68139Y-38899D01*
X68101Y-38990D01*
X68020Y-38990D01*
X67943Y-39005D01*
X67943Y-37659D01*
X67932Y-37446D01*
X67872Y-37299D01*
X67778Y-37272D01*
X67708Y-37342D01*
X67708Y-37202D01*
X67681Y-37108D01*
X67479Y-37037D01*
X67266Y-37048D01*
X67119Y-37108D01*
X67092Y-37202D01*
X67400Y-37509D01*
X67708Y-37202D01*
X67708Y-37342D01*
X67471Y-37580D01*
X67778Y-37888D01*
X67872Y-37861D01*
X67943Y-37659D01*
X67943Y-39005D01*
X67847Y-39024D01*
X67708Y-39117D01*
X67708Y-37958D01*
X67400Y-37651D01*
X67092Y-37958D01*
X67119Y-38052D01*
X67321Y-38123D01*
X67534Y-38112D01*
X67681Y-38052D01*
X67708Y-37958D01*
X67708Y-39117D01*
X67702Y-39122D01*
X67674Y-39150D01*
X67430Y-39150D01*
X67430Y-38840D01*
X67396Y-38668D01*
X67396Y-38667D01*
X67298Y-38522D01*
X66854Y-38078D01*
X66911Y-38021D01*
X66949Y-37930D01*
X66949Y-37867D01*
X67022Y-37888D01*
X67329Y-37580D01*
X67022Y-37272D01*
X66949Y-37292D01*
X66949Y-37231D01*
X66911Y-37139D01*
X66841Y-37069D01*
X66750Y-37031D01*
X66651Y-37031D01*
X66051Y-37031D01*
X65959Y-37069D01*
X65898Y-37130D01*
X65609Y-37130D01*
X65609Y-37101D01*
X65571Y-37009D01*
X65567Y-37005D01*
X65584Y-37005D01*
X65740Y-36941D01*
X65860Y-36821D01*
X65925Y-36665D01*
X65925Y-36496D01*
X65873Y-36370D01*
X67240Y-36370D01*
X67240Y-36369D01*
X67374Y-36343D01*
X67487Y-36267D01*
X67767Y-35988D01*
X67767Y-35987D01*
X67797Y-35942D01*
X67842Y-35874D01*
X67843Y-35874D01*
X67869Y-35741D01*
X67870Y-35740D01*
X67870Y-35681D01*
X67974Y-35577D01*
X68019Y-35466D01*
X68065Y-35576D01*
X68170Y-35681D01*
X68170Y-36130D01*
X68197Y-36264D01*
X68273Y-36377D01*
X68316Y-36420D01*
X68311Y-36421D01*
X68219Y-36459D01*
X68149Y-36529D01*
X68111Y-36620D01*
X68111Y-36719D01*
X68110Y-36958D01*
X68172Y-37020D01*
X68560Y-37020D01*
X68610Y-37020D01*
X68710Y-37020D01*
X68760Y-37020D01*
X69148Y-37020D01*
X69210Y-36958D01*
X69209Y-36719D01*
X69209Y-36620D01*
X69200Y-36600D01*
X69419Y-36600D01*
X69411Y-36620D01*
X69411Y-36719D01*
X69411Y-37519D01*
X69449Y-37611D01*
X69458Y-37620D01*
X69439Y-37639D01*
X69401Y-37730D01*
X69401Y-37829D01*
X69401Y-38629D01*
X69439Y-38721D01*
X69509Y-38791D01*
X69554Y-38810D01*
X69509Y-38829D01*
X69439Y-38899D01*
X69401Y-38990D01*
X69401Y-39089D01*
X69401Y-39889D01*
X69432Y-39965D01*
X69419Y-39979D01*
X69381Y-40070D01*
X69381Y-40169D01*
X69381Y-40969D01*
X69419Y-41061D01*
X69426Y-41068D01*
X69401Y-41130D01*
X69401Y-41229D01*
X69400Y-41468D01*
X69462Y-41530D01*
X69850Y-41530D01*
X69900Y-41530D01*
X70000Y-41530D01*
X70050Y-41530D01*
X70438Y-41530D01*
X70500Y-41468D01*
X70499Y-41229D01*
X70499Y-41130D01*
X70461Y-41039D01*
X70453Y-41031D01*
X70479Y-40970D01*
X70479Y-40871D01*
X70479Y-40071D01*
X70447Y-39994D01*
X70461Y-39981D01*
X70499Y-39890D01*
X70499Y-39791D01*
X70499Y-38991D01*
X70461Y-38899D01*
X70391Y-38829D01*
X70345Y-38809D01*
X70391Y-38791D01*
X70461Y-38721D01*
X70499Y-38630D01*
X70499Y-38531D01*
X70499Y-38530D01*
X71395Y-38530D01*
X71950Y-39084D01*
X71950Y-39948D01*
X71931Y-39929D01*
X71840Y-39891D01*
X71775Y-39891D01*
X71815Y-39795D01*
X71815Y-39626D01*
X71751Y-39470D01*
X71631Y-39350D01*
X71475Y-39285D01*
X71306Y-39285D01*
X71150Y-39349D01*
X71030Y-39469D01*
X70965Y-39625D01*
X70965Y-39794D01*
X71004Y-39891D01*
X70941Y-39891D01*
X70849Y-39929D01*
X70779Y-39999D01*
X70741Y-40090D01*
X70741Y-40189D01*
X70741Y-40789D01*
X70779Y-40881D01*
X70849Y-40951D01*
X70940Y-40989D01*
X71039Y-40989D01*
X71839Y-40989D01*
X71931Y-40951D01*
X71950Y-40932D01*
X71950Y-41248D01*
X71931Y-41229D01*
X71840Y-41191D01*
X71741Y-41191D01*
X70941Y-41191D01*
X70849Y-41229D01*
X70779Y-41299D01*
X70741Y-41390D01*
X70741Y-41489D01*
X70741Y-42089D01*
X70779Y-42181D01*
X70849Y-42251D01*
X70876Y-42262D01*
X70825Y-42385D01*
X70825Y-42554D01*
X70889Y-42710D01*
X71009Y-42830D01*
X71165Y-42895D01*
X71334Y-42895D01*
X71490Y-42831D01*
X71610Y-42711D01*
X71675Y-42555D01*
X71675Y-42531D01*
X71675Y-42530D01*
X71713Y-42474D01*
X71739Y-42341D01*
X71740Y-42340D01*
X71740Y-42289D01*
X71839Y-42289D01*
X71931Y-42251D01*
X71950Y-42232D01*
X71950Y-42785D01*
X71950Y-42785D01*
G37*
G54D22*
X71950Y-42785D02*
X70499Y-44236D01*
X70500Y-44092D01*
X70500Y-43868D01*
X70500Y-41692D01*
X70438Y-41630D01*
X70000Y-41630D01*
X70000Y-42072D01*
X69980Y-42092D01*
X69980Y-42630D01*
X70418Y-42630D01*
X70480Y-42568D01*
X70479Y-42329D01*
X70479Y-42230D01*
X70441Y-42140D01*
X70461Y-42121D01*
X70499Y-42030D01*
X70499Y-41931D01*
X70500Y-41692D01*
X70500Y-43868D01*
X70499Y-43629D01*
X70499Y-43530D01*
X70480Y-43484D01*
X70480Y-42792D01*
X70418Y-42730D01*
X69980Y-42730D01*
X69980Y-43268D01*
X70042Y-43330D01*
X70279Y-43329D01*
X70371Y-43291D01*
X70441Y-43221D01*
X70479Y-43130D01*
X70479Y-43031D01*
X70480Y-42792D01*
X70480Y-43484D01*
X70461Y-43439D01*
X70391Y-43369D01*
X70299Y-43331D01*
X70062Y-43330D01*
X70000Y-43392D01*
X70000Y-43930D01*
X70438Y-43930D01*
X70500Y-43868D01*
X70500Y-44092D01*
X70438Y-44030D01*
X70000Y-44030D01*
X70000Y-44568D01*
X70062Y-44630D01*
X70105Y-44629D01*
X69900Y-44834D01*
X69900Y-44568D01*
X69900Y-44030D01*
X69900Y-43930D01*
X69900Y-43392D01*
X69900Y-42168D01*
X69900Y-41630D01*
X69462Y-41630D01*
X69400Y-41692D01*
X69401Y-41931D01*
X69401Y-42030D01*
X69438Y-42119D01*
X69419Y-42139D01*
X69381Y-42230D01*
X69381Y-42329D01*
X69380Y-42568D01*
X69442Y-42630D01*
X69880Y-42630D01*
X69880Y-42188D01*
X69900Y-42168D01*
X69900Y-43392D01*
X69838Y-43330D01*
X69818Y-43330D01*
X69880Y-43268D01*
X69880Y-42730D01*
X69442Y-42730D01*
X69380Y-42792D01*
X69381Y-43031D01*
X69381Y-43130D01*
X69419Y-43221D01*
X69489Y-43291D01*
X69581Y-43329D01*
X69818Y-43330D01*
X69601Y-43331D01*
X69509Y-43369D01*
X69439Y-43439D01*
X69401Y-43530D01*
X69401Y-43629D01*
X69400Y-43868D01*
X69462Y-43930D01*
X69900Y-43930D01*
X69900Y-44030D01*
X69462Y-44030D01*
X69400Y-44092D01*
X69401Y-44331D01*
X69401Y-44430D01*
X69439Y-44521D01*
X69509Y-44591D01*
X69601Y-44629D01*
X69838Y-44630D01*
X69900Y-44568D01*
X69900Y-44834D01*
X69255Y-45480D01*
X69210Y-45480D01*
X69210Y-37182D01*
X69148Y-37120D01*
X68710Y-37120D01*
X68710Y-37582D01*
X68700Y-37592D01*
X68700Y-38130D01*
X69138Y-38130D01*
X69200Y-38068D01*
X69199Y-37829D01*
X69199Y-37730D01*
X69161Y-37639D01*
X69152Y-37630D01*
X69171Y-37611D01*
X69209Y-37520D01*
X69209Y-37421D01*
X69210Y-37182D01*
X69210Y-45480D01*
X68690Y-45480D01*
X68221Y-45480D01*
X68211Y-45470D01*
X68055Y-45405D01*
X67886Y-45405D01*
X67730Y-45469D01*
X67610Y-45589D01*
X67545Y-45745D01*
X67545Y-45914D01*
X67609Y-46070D01*
X67729Y-46190D01*
X67885Y-46255D01*
X68054Y-46255D01*
X68210Y-46191D01*
X68221Y-46180D01*
X68690Y-46180D01*
X69400Y-46180D01*
X69400Y-46179D01*
X69534Y-46153D01*
X69647Y-46077D01*
X70454Y-45269D01*
X70330Y-45570D01*
X70330Y-45988D01*
X70490Y-46374D01*
X70785Y-46670D01*
X70989Y-46755D01*
X66719Y-46755D01*
X66947Y-46528D01*
X66947Y-46527D01*
X67023Y-46414D01*
X67049Y-46280D01*
X67050Y-46280D01*
X67050Y-45464D01*
X67164Y-45350D01*
X68430Y-45350D01*
X68430Y-45349D01*
X68564Y-45323D01*
X68677Y-45247D01*
X68897Y-45028D01*
X68897Y-45027D01*
X68973Y-44914D01*
X68999Y-44780D01*
X69000Y-44780D01*
X69000Y-44760D01*
X69000Y-44628D01*
X69091Y-44591D01*
X69161Y-44521D01*
X69199Y-44430D01*
X69199Y-44331D01*
X69199Y-43531D01*
X69161Y-43439D01*
X69091Y-43369D01*
X69000Y-43331D01*
X68901Y-43331D01*
X68301Y-43331D01*
X68287Y-43336D01*
X68283Y-43329D01*
X68379Y-43329D01*
X68979Y-43329D01*
X69071Y-43291D01*
X69141Y-43221D01*
X69179Y-43130D01*
X69179Y-43031D01*
X69179Y-42231D01*
X69141Y-42140D01*
X69161Y-42121D01*
X69199Y-42030D01*
X69199Y-41931D01*
X69199Y-41131D01*
X69161Y-41039D01*
X69153Y-41031D01*
X69179Y-40970D01*
X69179Y-40871D01*
X69179Y-40071D01*
X69147Y-39994D01*
X69161Y-39981D01*
X69199Y-39890D01*
X69199Y-39791D01*
X69199Y-38991D01*
X69161Y-38899D01*
X69091Y-38829D01*
X69045Y-38809D01*
X69091Y-38791D01*
X69161Y-38721D01*
X69199Y-38630D01*
X69199Y-38531D01*
X69200Y-38292D01*
X69138Y-38230D01*
X68750Y-38230D01*
X68700Y-38230D01*
X68610Y-38230D01*
X68610Y-37658D01*
X68610Y-37120D01*
X68172Y-37120D01*
X68110Y-37182D01*
X68111Y-37421D01*
X68111Y-37520D01*
X68149Y-37611D01*
X68158Y-37620D01*
X68139Y-37639D01*
X68101Y-37730D01*
X68101Y-37829D01*
X68100Y-38068D01*
X68162Y-38130D01*
X68600Y-38130D01*
X68600Y-37668D01*
X68610Y-37658D01*
X68610Y-38230D01*
X68600Y-38230D01*
X68550Y-38230D01*
X68162Y-38230D01*
X68100Y-38292D01*
X68101Y-38531D01*
X68101Y-38630D01*
X68139Y-38721D01*
X68209Y-38791D01*
X68255Y-38810D01*
X68209Y-38829D01*
X68139Y-38899D01*
X68101Y-38990D01*
X68020Y-38990D01*
X67943Y-39005D01*
X67943Y-37659D01*
X67932Y-37446D01*
X67872Y-37299D01*
X67778Y-37272D01*
X67708Y-37342D01*
X67708Y-37202D01*
X67681Y-37108D01*
X67479Y-37037D01*
X67266Y-37048D01*
X67119Y-37108D01*
X67092Y-37202D01*
X67400Y-37509D01*
X67708Y-37202D01*
X67708Y-37342D01*
X67471Y-37580D01*
X67778Y-37888D01*
X67872Y-37861D01*
X67943Y-37659D01*
X67943Y-39005D01*
X67847Y-39024D01*
X67708Y-39117D01*
X67708Y-37958D01*
X67400Y-37651D01*
X67092Y-37958D01*
X67119Y-38052D01*
X67321Y-38123D01*
X67534Y-38112D01*
X67681Y-38052D01*
X67708Y-37958D01*
X67708Y-39117D01*
X67702Y-39122D01*
X67674Y-39150D01*
X67430Y-39150D01*
X67430Y-38840D01*
X67396Y-38668D01*
X67396Y-38667D01*
X67298Y-38522D01*
X66854Y-38078D01*
X66911Y-38021D01*
X66949Y-37930D01*
X66949Y-37867D01*
X67022Y-37888D01*
X67329Y-37580D01*
X67022Y-37272D01*
X66949Y-37292D01*
X66949Y-37231D01*
X66911Y-37139D01*
X66841Y-37069D01*
X66750Y-37031D01*
X66651Y-37031D01*
X66051Y-37031D01*
X65959Y-37069D01*
X65898Y-37130D01*
X65609Y-37130D01*
X65609Y-37101D01*
X65571Y-37009D01*
X65567Y-37005D01*
X65584Y-37005D01*
X65740Y-36941D01*
X65860Y-36821D01*
X65925Y-36665D01*
X65925Y-36496D01*
X65873Y-36370D01*
X67240Y-36370D01*
X67240Y-36369D01*
X67374Y-36343D01*
X67487Y-36267D01*
X67767Y-35988D01*
X67767Y-35987D01*
X67797Y-35942D01*
X67842Y-35874D01*
X67843Y-35874D01*
X67869Y-35741D01*
X67870Y-35740D01*
X67870Y-35681D01*
X67974Y-35577D01*
X68019Y-35466D01*
X68065Y-35576D01*
X68170Y-35681D01*
X68170Y-36130D01*
X68197Y-36264D01*
X68273Y-36377D01*
X68316Y-36420D01*
X68311Y-36421D01*
X68219Y-36459D01*
X68149Y-36529D01*
X68111Y-36620D01*
X68111Y-36719D01*
X68110Y-36958D01*
X68172Y-37020D01*
X68560Y-37020D01*
X68610Y-37020D01*
X68710Y-37020D01*
X68760Y-37020D01*
X69148Y-37020D01*
X69210Y-36958D01*
X69209Y-36719D01*
X69209Y-36620D01*
X69200Y-36600D01*
X69419Y-36600D01*
X69411Y-36620D01*
X69411Y-36719D01*
X69411Y-37519D01*
X69449Y-37611D01*
X69458Y-37620D01*
X69439Y-37639D01*
X69401Y-37730D01*
X69401Y-37829D01*
X69401Y-38629D01*
X69439Y-38721D01*
X69509Y-38791D01*
X69554Y-38810D01*
X69509Y-38829D01*
X69439Y-38899D01*
X69401Y-38990D01*
X69401Y-39089D01*
X69401Y-39889D01*
X69432Y-39965D01*
X69419Y-39979D01*
X69381Y-40070D01*
X69381Y-40169D01*
X69381Y-40969D01*
X69419Y-41061D01*
X69426Y-41068D01*
X69401Y-41130D01*
X69401Y-41229D01*
X69400Y-41468D01*
X69462Y-41530D01*
X69850Y-41530D01*
X69900Y-41530D01*
X70000Y-41530D01*
X70050Y-41530D01*
X70438Y-41530D01*
X70500Y-41468D01*
X70499Y-41229D01*
X70499Y-41130D01*
X70461Y-41039D01*
X70453Y-41031D01*
X70479Y-40970D01*
X70479Y-40871D01*
X70479Y-40071D01*
X70447Y-39994D01*
X70461Y-39981D01*
X70499Y-39890D01*
X70499Y-39791D01*
X70499Y-38991D01*
X70461Y-38899D01*
X70391Y-38829D01*
X70345Y-38809D01*
X70391Y-38791D01*
X70461Y-38721D01*
X70499Y-38630D01*
X70499Y-38531D01*
X70499Y-38530D01*
X71395Y-38530D01*
X71950Y-39084D01*
X71950Y-39948D01*
X71931Y-39929D01*
X71840Y-39891D01*
X71775Y-39891D01*
X71815Y-39795D01*
X71815Y-39626D01*
X71751Y-39470D01*
X71631Y-39350D01*
X71475Y-39285D01*
X71306Y-39285D01*
X71150Y-39349D01*
X71030Y-39469D01*
X70965Y-39625D01*
X70965Y-39794D01*
X71004Y-39891D01*
X70941Y-39891D01*
X70849Y-39929D01*
X70779Y-39999D01*
X70741Y-40090D01*
X70741Y-40189D01*
X70741Y-40789D01*
X70779Y-40881D01*
X70849Y-40951D01*
X70940Y-40989D01*
X71039Y-40989D01*
X71839Y-40989D01*
X71931Y-40951D01*
X71950Y-40932D01*
X71950Y-41248D01*
X71931Y-41229D01*
X71840Y-41191D01*
X71741Y-41191D01*
X70941Y-41191D01*
X70849Y-41229D01*
X70779Y-41299D01*
X70741Y-41390D01*
X70741Y-41489D01*
X70741Y-42089D01*
X70779Y-42181D01*
X70849Y-42251D01*
X70876Y-42262D01*
X70825Y-42385D01*
X70825Y-42554D01*
X70889Y-42710D01*
X71009Y-42830D01*
X71165Y-42895D01*
X71334Y-42895D01*
X71490Y-42831D01*
X71610Y-42711D01*
X71675Y-42555D01*
X71675Y-42531D01*
X71675Y-42530D01*
X71713Y-42474D01*
X71739Y-42341D01*
X71740Y-42340D01*
X71740Y-42289D01*
X71839Y-42289D01*
X71931Y-42251D01*
X71950Y-42232D01*
X71950Y-42785D01*
G54D10*
G36*
X72755Y-46755D02*
X71768Y-46755D01*
X71974Y-46670D01*
X72270Y-46375D01*
X72430Y-45990D01*
X72430Y-45572D01*
X72270Y-45186D01*
X71975Y-44890D01*
X71590Y-44730D01*
X71172Y-44730D01*
X70868Y-44855D01*
X72547Y-43178D01*
X72547Y-43177D01*
X72623Y-43064D01*
X72649Y-42930D01*
X72650Y-42930D01*
X72650Y-38940D01*
X72649Y-38939D01*
X72623Y-38806D01*
X72547Y-38693D01*
X72547Y-38692D01*
X72430Y-38575D01*
X72430Y-35050D01*
X72430Y-34632D01*
X72270Y-34246D01*
X71975Y-33950D01*
X71590Y-33790D01*
X71172Y-33790D01*
X70786Y-33950D01*
X70490Y-34245D01*
X70330Y-34630D01*
X70330Y-35048D01*
X70490Y-35434D01*
X70785Y-35730D01*
X71170Y-35890D01*
X71588Y-35890D01*
X71974Y-35730D01*
X72270Y-35435D01*
X72430Y-35050D01*
X72430Y-38575D01*
X71787Y-37933D01*
X71674Y-37857D01*
X71540Y-37830D01*
X70499Y-37830D01*
X70499Y-37731D01*
X70461Y-37639D01*
X70452Y-37630D01*
X70471Y-37611D01*
X70509Y-37520D01*
X70509Y-37421D01*
X70509Y-36621D01*
X70471Y-36529D01*
X70401Y-36459D01*
X70310Y-36421D01*
X70310Y-36390D01*
X70309Y-36389D01*
X70283Y-36256D01*
X70237Y-36187D01*
X70207Y-36143D01*
X70207Y-36142D01*
X70067Y-36003D01*
X69954Y-35927D01*
X69820Y-35900D01*
X68870Y-35900D01*
X68870Y-35681D01*
X68974Y-35577D01*
X69056Y-35380D01*
X69056Y-35167D01*
X69056Y-34541D01*
X68975Y-34344D01*
X68824Y-34193D01*
X68627Y-34111D01*
X68414Y-34111D01*
X68217Y-34192D01*
X68066Y-34343D01*
X68020Y-34453D01*
X67975Y-34344D01*
X67824Y-34193D01*
X67627Y-34111D01*
X67414Y-34111D01*
X67217Y-34192D01*
X67066Y-34343D01*
X66984Y-34540D01*
X66984Y-34753D01*
X66984Y-35379D01*
X67065Y-35576D01*
X67127Y-35638D01*
X67095Y-35670D01*
X66281Y-35670D01*
X66394Y-35557D01*
X66476Y-35360D01*
X66476Y-35147D01*
X66476Y-34521D01*
X66395Y-34324D01*
X66290Y-34219D01*
X66290Y-34120D01*
X66263Y-33986D01*
X66187Y-33873D01*
X66187Y-33872D01*
X65957Y-33643D01*
X65844Y-33567D01*
X65710Y-33540D01*
X61850Y-33540D01*
X61716Y-33567D01*
X61602Y-33643D01*
X61233Y-34013D01*
X61157Y-34126D01*
X61134Y-34236D01*
X61117Y-34218D01*
X60934Y-34145D01*
X60850Y-34192D01*
X60850Y-34870D01*
X60850Y-34920D01*
X60850Y-35020D01*
X60850Y-35070D01*
X60850Y-35748D01*
X60934Y-35795D01*
X61117Y-35722D01*
X61130Y-35708D01*
X61130Y-35960D01*
X60750Y-35960D01*
X60750Y-35748D01*
X60750Y-35070D01*
X60750Y-35020D01*
X60750Y-34920D01*
X60750Y-34870D01*
X60750Y-34192D01*
X60666Y-34145D01*
X60483Y-34218D01*
X60333Y-34374D01*
X60298Y-34460D01*
X60255Y-34354D01*
X60104Y-34203D01*
X59907Y-34121D01*
X59694Y-34121D01*
X59497Y-34202D01*
X59346Y-34353D01*
X59264Y-34550D01*
X59264Y-34763D01*
X59264Y-35389D01*
X59345Y-35586D01*
X59496Y-35737D01*
X59693Y-35819D01*
X59906Y-35819D01*
X60103Y-35738D01*
X60254Y-35587D01*
X60298Y-35479D01*
X60333Y-35566D01*
X60483Y-35722D01*
X60666Y-35795D01*
X60750Y-35748D01*
X60750Y-35960D01*
X60610Y-35960D01*
X60476Y-35987D01*
X60407Y-36032D01*
X60362Y-36063D01*
X59943Y-36483D01*
X59867Y-36596D01*
X59840Y-36730D01*
X59840Y-36821D01*
X59741Y-36821D01*
X59649Y-36859D01*
X59579Y-36929D01*
X59541Y-37020D01*
X59541Y-37119D01*
X59541Y-37719D01*
X59579Y-37811D01*
X59649Y-37881D01*
X59740Y-37919D01*
X59839Y-37919D01*
X60639Y-37919D01*
X60731Y-37881D01*
X60775Y-37837D01*
X60809Y-37871D01*
X60900Y-37909D01*
X60999Y-37909D01*
X61799Y-37909D01*
X61891Y-37871D01*
X61935Y-37827D01*
X61989Y-37881D01*
X62080Y-37919D01*
X62179Y-37919D01*
X62418Y-37920D01*
X62480Y-37858D01*
X62480Y-37470D01*
X62480Y-37420D01*
X62480Y-37320D01*
X62480Y-37270D01*
X62480Y-36882D01*
X62418Y-36820D01*
X62179Y-36821D01*
X62080Y-36821D01*
X61989Y-36859D01*
X61945Y-36903D01*
X61918Y-36876D01*
X62424Y-36370D01*
X63027Y-36370D01*
X62975Y-36495D01*
X62975Y-36664D01*
X63039Y-36820D01*
X63159Y-36940D01*
X63271Y-36986D01*
X63249Y-37009D01*
X63211Y-37100D01*
X63211Y-37199D01*
X63211Y-37999D01*
X63249Y-38091D01*
X63319Y-38161D01*
X63410Y-38199D01*
X63411Y-38199D01*
X63412Y-38199D01*
X63436Y-38320D01*
X63180Y-38320D01*
X63180Y-37482D01*
X63180Y-37258D01*
X63179Y-37021D01*
X63141Y-36929D01*
X63071Y-36859D01*
X62980Y-36821D01*
X62881Y-36821D01*
X62642Y-36820D01*
X62580Y-36882D01*
X62580Y-37320D01*
X63118Y-37320D01*
X63180Y-37258D01*
X63180Y-37482D01*
X63118Y-37420D01*
X62580Y-37420D01*
X62580Y-37858D01*
X62642Y-37920D01*
X62881Y-37919D01*
X62980Y-37919D01*
X63071Y-37881D01*
X63141Y-37811D01*
X63179Y-37719D01*
X63180Y-37482D01*
X63180Y-38320D01*
X63178Y-38320D01*
X63141Y-38229D01*
X63071Y-38159D01*
X62980Y-38121D01*
X62881Y-38121D01*
X62081Y-38121D01*
X61989Y-38159D01*
X61945Y-38203D01*
X61891Y-38149D01*
X61800Y-38111D01*
X61701Y-38111D01*
X60901Y-38111D01*
X60809Y-38149D01*
X60765Y-38193D01*
X60731Y-38159D01*
X60640Y-38121D01*
X60541Y-38121D01*
X60302Y-38120D01*
X60240Y-38182D01*
X60240Y-38570D01*
X60240Y-38620D01*
X60240Y-38720D01*
X60140Y-38720D01*
X60140Y-38620D01*
X60140Y-38182D01*
X60078Y-38120D01*
X59839Y-38121D01*
X59740Y-38121D01*
X59649Y-38159D01*
X59579Y-38229D01*
X59541Y-38321D01*
X59540Y-38558D01*
X59602Y-38620D01*
X60140Y-38620D01*
X60140Y-38720D01*
X60090Y-38720D01*
X59602Y-38720D01*
X59540Y-38782D01*
X59541Y-39019D01*
X59558Y-39061D01*
X59031Y-39061D01*
X58939Y-39099D01*
X58869Y-39169D01*
X58831Y-39260D01*
X58831Y-39359D01*
X58831Y-40159D01*
X58868Y-40249D01*
X58849Y-40269D01*
X58811Y-40360D01*
X58811Y-40459D01*
X58811Y-41059D01*
X58849Y-41151D01*
X58919Y-41221D01*
X59010Y-41259D01*
X59109Y-41259D01*
X59909Y-41259D01*
X60001Y-41221D01*
X60025Y-41197D01*
X60039Y-41211D01*
X60130Y-41249D01*
X60229Y-41249D01*
X61029Y-41249D01*
X61121Y-41211D01*
X61175Y-41157D01*
X61229Y-41211D01*
X61320Y-41249D01*
X61419Y-41249D01*
X62166Y-41249D01*
X61964Y-41451D01*
X61321Y-41451D01*
X61229Y-41489D01*
X61175Y-41543D01*
X61121Y-41489D01*
X61030Y-41451D01*
X60931Y-41451D01*
X60131Y-41451D01*
X60039Y-41489D01*
X60015Y-41513D01*
X60001Y-41499D01*
X59910Y-41461D01*
X59811Y-41461D01*
X59572Y-41460D01*
X59510Y-41522D01*
X59510Y-41910D01*
X59510Y-41960D01*
X59510Y-42060D01*
X59410Y-42060D01*
X59410Y-41960D01*
X59410Y-41522D01*
X59348Y-41460D01*
X59109Y-41461D01*
X59010Y-41461D01*
X58919Y-41499D01*
X58849Y-41569D01*
X58811Y-41661D01*
X58810Y-41898D01*
X58872Y-41960D01*
X59410Y-41960D01*
X59410Y-42060D01*
X59360Y-42060D01*
X58872Y-42060D01*
X58810Y-42122D01*
X58811Y-42359D01*
X58849Y-42451D01*
X58919Y-42521D01*
X59010Y-42559D01*
X59109Y-42559D01*
X59305Y-42559D01*
X58905Y-42960D01*
X58634Y-42960D01*
X58629Y-42954D01*
X58629Y-42571D01*
X58591Y-42479D01*
X58521Y-42409D01*
X58430Y-42371D01*
X58331Y-42371D01*
X57731Y-42371D01*
X57639Y-42409D01*
X57569Y-42479D01*
X57531Y-42570D01*
X57531Y-42669D01*
X57531Y-43269D01*
X57569Y-43361D01*
X57639Y-43431D01*
X57730Y-43469D01*
X57792Y-43469D01*
X57772Y-43542D01*
X58045Y-43814D01*
X58080Y-43849D01*
X58151Y-43920D01*
X58186Y-43955D01*
X58458Y-44228D01*
X58552Y-44201D01*
X58623Y-43999D01*
X58612Y-43786D01*
X58560Y-43660D01*
X58700Y-43660D01*
X58700Y-45390D01*
X58727Y-45524D01*
X58803Y-45637D01*
X59920Y-46755D01*
X58388Y-46755D01*
X58388Y-44298D01*
X58080Y-43991D01*
X58009Y-44061D01*
X58009Y-43920D01*
X57702Y-43612D01*
X57608Y-43639D01*
X57537Y-43841D01*
X57548Y-44054D01*
X57608Y-44201D01*
X57702Y-44228D01*
X58009Y-43920D01*
X58009Y-44061D01*
X57772Y-44298D01*
X57799Y-44392D01*
X58001Y-44463D01*
X58214Y-44452D01*
X58361Y-44392D01*
X58388Y-44298D01*
X58388Y-46755D01*
X57556Y-46755D01*
X57834Y-46640D01*
X58130Y-46345D01*
X58290Y-45960D01*
X58290Y-45542D01*
X58130Y-45156D01*
X57835Y-44860D01*
X57450Y-44700D01*
X57032Y-44700D01*
X56646Y-44860D01*
X56350Y-45155D01*
X56275Y-45335D01*
X56275Y-35353D01*
X56350Y-35534D01*
X56645Y-35830D01*
X57030Y-35990D01*
X57448Y-35990D01*
X57834Y-35830D01*
X58130Y-35535D01*
X58290Y-35150D01*
X58290Y-34732D01*
X58130Y-34346D01*
X57835Y-34050D01*
X57450Y-33890D01*
X57032Y-33890D01*
X56646Y-34050D01*
X56350Y-34345D01*
X56275Y-34525D01*
X56275Y-33260D01*
X72755Y-33269D01*
X72755Y-46755D01*
X72755Y-46755D01*
G37*
G54D22*
X72755Y-46755D02*
X71768Y-46755D01*
X71974Y-46670D01*
X72270Y-46375D01*
X72430Y-45990D01*
X72430Y-45572D01*
X72270Y-45186D01*
X71975Y-44890D01*
X71590Y-44730D01*
X71172Y-44730D01*
X70868Y-44855D01*
X72547Y-43178D01*
X72547Y-43177D01*
X72623Y-43064D01*
X72649Y-42930D01*
X72650Y-42930D01*
X72650Y-38940D01*
X72649Y-38939D01*
X72623Y-38806D01*
X72547Y-38693D01*
X72547Y-38692D01*
X72430Y-38575D01*
X72430Y-35050D01*
X72430Y-34632D01*
X72270Y-34246D01*
X71975Y-33950D01*
X71590Y-33790D01*
X71172Y-33790D01*
X70786Y-33950D01*
X70490Y-34245D01*
X70330Y-34630D01*
X70330Y-35048D01*
X70490Y-35434D01*
X70785Y-35730D01*
X71170Y-35890D01*
X71588Y-35890D01*
X71974Y-35730D01*
X72270Y-35435D01*
X72430Y-35050D01*
X72430Y-38575D01*
X71787Y-37933D01*
X71674Y-37857D01*
X71540Y-37830D01*
X70499Y-37830D01*
X70499Y-37731D01*
X70461Y-37639D01*
X70452Y-37630D01*
X70471Y-37611D01*
X70509Y-37520D01*
X70509Y-37421D01*
X70509Y-36621D01*
X70471Y-36529D01*
X70401Y-36459D01*
X70310Y-36421D01*
X70310Y-36390D01*
X70309Y-36389D01*
X70283Y-36256D01*
X70237Y-36187D01*
X70207Y-36143D01*
X70207Y-36142D01*
X70067Y-36003D01*
X69954Y-35927D01*
X69820Y-35900D01*
X68870Y-35900D01*
X68870Y-35681D01*
X68974Y-35577D01*
X69056Y-35380D01*
X69056Y-35167D01*
X69056Y-34541D01*
X68975Y-34344D01*
X68824Y-34193D01*
X68627Y-34111D01*
X68414Y-34111D01*
X68217Y-34192D01*
X68066Y-34343D01*
X68020Y-34453D01*
X67975Y-34344D01*
X67824Y-34193D01*
X67627Y-34111D01*
X67414Y-34111D01*
X67217Y-34192D01*
X67066Y-34343D01*
X66984Y-34540D01*
X66984Y-34753D01*
X66984Y-35379D01*
X67065Y-35576D01*
X67127Y-35638D01*
X67095Y-35670D01*
X66281Y-35670D01*
X66394Y-35557D01*
X66476Y-35360D01*
X66476Y-35147D01*
X66476Y-34521D01*
X66395Y-34324D01*
X66290Y-34219D01*
X66290Y-34120D01*
X66263Y-33986D01*
X66187Y-33873D01*
X66187Y-33872D01*
X65957Y-33643D01*
X65844Y-33567D01*
X65710Y-33540D01*
X61850Y-33540D01*
X61716Y-33567D01*
X61602Y-33643D01*
X61233Y-34013D01*
X61157Y-34126D01*
X61134Y-34236D01*
X61117Y-34218D01*
X60934Y-34145D01*
X60850Y-34192D01*
X60850Y-34870D01*
X60850Y-34920D01*
X60850Y-35020D01*
X60850Y-35070D01*
X60850Y-35748D01*
X60934Y-35795D01*
X61117Y-35722D01*
X61130Y-35708D01*
X61130Y-35960D01*
X60750Y-35960D01*
X60750Y-35748D01*
X60750Y-35070D01*
X60750Y-35020D01*
X60750Y-34920D01*
X60750Y-34870D01*
X60750Y-34192D01*
X60666Y-34145D01*
X60483Y-34218D01*
X60333Y-34374D01*
X60298Y-34460D01*
X60255Y-34354D01*
X60104Y-34203D01*
X59907Y-34121D01*
X59694Y-34121D01*
X59497Y-34202D01*
X59346Y-34353D01*
X59264Y-34550D01*
X59264Y-34763D01*
X59264Y-35389D01*
X59345Y-35586D01*
X59496Y-35737D01*
X59693Y-35819D01*
X59906Y-35819D01*
X60103Y-35738D01*
X60254Y-35587D01*
X60298Y-35479D01*
X60333Y-35566D01*
X60483Y-35722D01*
X60666Y-35795D01*
X60750Y-35748D01*
X60750Y-35960D01*
X60610Y-35960D01*
X60476Y-35987D01*
X60407Y-36032D01*
X60362Y-36063D01*
X59943Y-36483D01*
X59867Y-36596D01*
X59840Y-36730D01*
X59840Y-36821D01*
X59741Y-36821D01*
X59649Y-36859D01*
X59579Y-36929D01*
X59541Y-37020D01*
X59541Y-37119D01*
X59541Y-37719D01*
X59579Y-37811D01*
X59649Y-37881D01*
X59740Y-37919D01*
X59839Y-37919D01*
X60639Y-37919D01*
X60731Y-37881D01*
X60775Y-37837D01*
X60809Y-37871D01*
X60900Y-37909D01*
X60999Y-37909D01*
X61799Y-37909D01*
X61891Y-37871D01*
X61935Y-37827D01*
X61989Y-37881D01*
X62080Y-37919D01*
X62179Y-37919D01*
X62418Y-37920D01*
X62480Y-37858D01*
X62480Y-37470D01*
X62480Y-37420D01*
X62480Y-37320D01*
X62480Y-37270D01*
X62480Y-36882D01*
X62418Y-36820D01*
X62179Y-36821D01*
X62080Y-36821D01*
X61989Y-36859D01*
X61945Y-36903D01*
X61918Y-36876D01*
X62424Y-36370D01*
X63027Y-36370D01*
X62975Y-36495D01*
X62975Y-36664D01*
X63039Y-36820D01*
X63159Y-36940D01*
X63271Y-36986D01*
X63249Y-37009D01*
X63211Y-37100D01*
X63211Y-37199D01*
X63211Y-37999D01*
X63249Y-38091D01*
X63319Y-38161D01*
X63410Y-38199D01*
X63411Y-38199D01*
X63412Y-38199D01*
X63436Y-38320D01*
X63180Y-38320D01*
X63180Y-37482D01*
X63180Y-37258D01*
X63179Y-37021D01*
X63141Y-36929D01*
X63071Y-36859D01*
X62980Y-36821D01*
X62881Y-36821D01*
X62642Y-36820D01*
X62580Y-36882D01*
X62580Y-37320D01*
X63118Y-37320D01*
X63180Y-37258D01*
X63180Y-37482D01*
X63118Y-37420D01*
X62580Y-37420D01*
X62580Y-37858D01*
X62642Y-37920D01*
X62881Y-37919D01*
X62980Y-37919D01*
X63071Y-37881D01*
X63141Y-37811D01*
X63179Y-37719D01*
X63180Y-37482D01*
X63180Y-38320D01*
X63178Y-38320D01*
X63141Y-38229D01*
X63071Y-38159D01*
X62980Y-38121D01*
X62881Y-38121D01*
X62081Y-38121D01*
X61989Y-38159D01*
X61945Y-38203D01*
X61891Y-38149D01*
X61800Y-38111D01*
X61701Y-38111D01*
X60901Y-38111D01*
X60809Y-38149D01*
X60765Y-38193D01*
X60731Y-38159D01*
X60640Y-38121D01*
X60541Y-38121D01*
X60302Y-38120D01*
X60240Y-38182D01*
X60240Y-38570D01*
X60240Y-38620D01*
X60240Y-38720D01*
X60140Y-38720D01*
X60140Y-38620D01*
X60140Y-38182D01*
X60078Y-38120D01*
X59839Y-38121D01*
X59740Y-38121D01*
X59649Y-38159D01*
X59579Y-38229D01*
X59541Y-38321D01*
X59540Y-38558D01*
X59602Y-38620D01*
X60140Y-38620D01*
X60140Y-38720D01*
X60090Y-38720D01*
X59602Y-38720D01*
X59540Y-38782D01*
X59541Y-39019D01*
X59558Y-39061D01*
X59031Y-39061D01*
X58939Y-39099D01*
X58869Y-39169D01*
X58831Y-39260D01*
X58831Y-39359D01*
X58831Y-40159D01*
X58868Y-40249D01*
X58849Y-40269D01*
X58811Y-40360D01*
X58811Y-40459D01*
X58811Y-41059D01*
X58849Y-41151D01*
X58919Y-41221D01*
X59010Y-41259D01*
X59109Y-41259D01*
X59909Y-41259D01*
X60001Y-41221D01*
X60025Y-41197D01*
X60039Y-41211D01*
X60130Y-41249D01*
X60229Y-41249D01*
X61029Y-41249D01*
X61121Y-41211D01*
X61175Y-41157D01*
X61229Y-41211D01*
X61320Y-41249D01*
X61419Y-41249D01*
X62166Y-41249D01*
X61964Y-41451D01*
X61321Y-41451D01*
X61229Y-41489D01*
X61175Y-41543D01*
X61121Y-41489D01*
X61030Y-41451D01*
X60931Y-41451D01*
X60131Y-41451D01*
X60039Y-41489D01*
X60015Y-41513D01*
X60001Y-41499D01*
X59910Y-41461D01*
X59811Y-41461D01*
X59572Y-41460D01*
X59510Y-41522D01*
X59510Y-41910D01*
X59510Y-41960D01*
X59510Y-42060D01*
X59410Y-42060D01*
X59410Y-41960D01*
X59410Y-41522D01*
X59348Y-41460D01*
X59109Y-41461D01*
X59010Y-41461D01*
X58919Y-41499D01*
X58849Y-41569D01*
X58811Y-41661D01*
X58810Y-41898D01*
X58872Y-41960D01*
X59410Y-41960D01*
X59410Y-42060D01*
X59360Y-42060D01*
X58872Y-42060D01*
X58810Y-42122D01*
X58811Y-42359D01*
X58849Y-42451D01*
X58919Y-42521D01*
X59010Y-42559D01*
X59109Y-42559D01*
X59305Y-42559D01*
X58905Y-42960D01*
X58634Y-42960D01*
X58629Y-42954D01*
X58629Y-42571D01*
X58591Y-42479D01*
X58521Y-42409D01*
X58430Y-42371D01*
X58331Y-42371D01*
X57731Y-42371D01*
X57639Y-42409D01*
X57569Y-42479D01*
X57531Y-42570D01*
X57531Y-42669D01*
X57531Y-43269D01*
X57569Y-43361D01*
X57639Y-43431D01*
X57730Y-43469D01*
X57792Y-43469D01*
X57772Y-43542D01*
X58045Y-43814D01*
X58080Y-43849D01*
X58151Y-43920D01*
X58186Y-43955D01*
X58458Y-44228D01*
X58552Y-44201D01*
X58623Y-43999D01*
X58612Y-43786D01*
X58560Y-43660D01*
X58700Y-43660D01*
X58700Y-45390D01*
X58727Y-45524D01*
X58803Y-45637D01*
X59920Y-46755D01*
X58388Y-46755D01*
X58388Y-44298D01*
X58080Y-43991D01*
X58009Y-44061D01*
X58009Y-43920D01*
X57702Y-43612D01*
X57608Y-43639D01*
X57537Y-43841D01*
X57548Y-44054D01*
X57608Y-44201D01*
X57702Y-44228D01*
X58009Y-43920D01*
X58009Y-44061D01*
X57772Y-44298D01*
X57799Y-44392D01*
X58001Y-44463D01*
X58214Y-44452D01*
X58361Y-44392D01*
X58388Y-44298D01*
X58388Y-46755D01*
X57556Y-46755D01*
X57834Y-46640D01*
X58130Y-46345D01*
X58290Y-45960D01*
X58290Y-45542D01*
X58130Y-45156D01*
X57835Y-44860D01*
X57450Y-44700D01*
X57032Y-44700D01*
X56646Y-44860D01*
X56350Y-45155D01*
X56275Y-45335D01*
X56275Y-35353D01*
X56350Y-35534D01*
X56645Y-35830D01*
X57030Y-35990D01*
X57448Y-35990D01*
X57834Y-35830D01*
X58130Y-35535D01*
X58290Y-35150D01*
X58290Y-34732D01*
X58130Y-34346D01*
X57835Y-34050D01*
X57450Y-33890D01*
X57032Y-33890D01*
X56646Y-34050D01*
X56350Y-34345D01*
X56275Y-34525D01*
X56275Y-33260D01*
X72755Y-33269D01*
X72755Y-46755D01*
G54D10*
G36*
X72756Y-18644D02*
X72755Y-18650D01*
X72755Y-19489D01*
X72600Y-19116D01*
X72305Y-18820D01*
X71920Y-18660D01*
X71502Y-18660D01*
X71116Y-18820D01*
X70820Y-19115D01*
X70660Y-19500D01*
X70660Y-19918D01*
X70820Y-20304D01*
X71115Y-20600D01*
X71500Y-20760D01*
X71918Y-20760D01*
X72304Y-20600D01*
X72600Y-20305D01*
X72755Y-19932D01*
X72755Y-31759D01*
X72640Y-31758D01*
X72640Y-27580D01*
X72640Y-26070D01*
X72613Y-25936D01*
X72537Y-25823D01*
X72537Y-25822D01*
X72137Y-25423D01*
X72024Y-25347D01*
X71890Y-25320D01*
X71551Y-25320D01*
X71541Y-25310D01*
X71385Y-25245D01*
X71216Y-25245D01*
X71060Y-25309D01*
X70940Y-25429D01*
X70939Y-25431D01*
X70939Y-25389D01*
X70939Y-25171D01*
X70855Y-24969D01*
X70715Y-24829D01*
X70739Y-24829D01*
X70831Y-24791D01*
X70901Y-24721D01*
X70939Y-24630D01*
X70939Y-24531D01*
X70939Y-23931D01*
X70901Y-23839D01*
X70831Y-23769D01*
X70740Y-23731D01*
X70641Y-23731D01*
X70041Y-23731D01*
X70003Y-23746D01*
X70003Y-22929D01*
X69992Y-22716D01*
X69932Y-22569D01*
X69838Y-22542D01*
X69531Y-22850D01*
X69838Y-23158D01*
X69932Y-23131D01*
X70003Y-22929D01*
X70003Y-23746D01*
X69949Y-23769D01*
X69879Y-23839D01*
X69841Y-23930D01*
X69841Y-24029D01*
X69841Y-24238D01*
X69817Y-24203D01*
X69817Y-24202D01*
X69768Y-24153D01*
X69768Y-23228D01*
X69460Y-22921D01*
X69389Y-22991D01*
X69389Y-22850D01*
X69082Y-22542D01*
X68988Y-22569D01*
X68917Y-22771D01*
X68928Y-22984D01*
X68988Y-23131D01*
X69082Y-23158D01*
X69389Y-22850D01*
X69389Y-22991D01*
X69152Y-23228D01*
X69179Y-23322D01*
X69381Y-23393D01*
X69594Y-23382D01*
X69741Y-23322D01*
X69768Y-23228D01*
X69768Y-24153D01*
X68678Y-23064D01*
X68677Y-23063D01*
X68677Y-23062D01*
X67888Y-22274D01*
X68019Y-22299D01*
X68020Y-22300D01*
X68958Y-22300D01*
X69019Y-22361D01*
X69110Y-22399D01*
X69172Y-22399D01*
X69152Y-22472D01*
X69460Y-22779D01*
X69768Y-22472D01*
X69747Y-22399D01*
X69809Y-22399D01*
X69901Y-22361D01*
X69971Y-22291D01*
X70009Y-22200D01*
X70009Y-22101D01*
X70009Y-21501D01*
X69971Y-21409D01*
X69901Y-21339D01*
X69810Y-21301D01*
X69711Y-21301D01*
X69111Y-21301D01*
X69019Y-21339D01*
X68958Y-21400D01*
X68206Y-21400D01*
X67846Y-21040D01*
X67846Y-20025D01*
X67846Y-19680D01*
X67846Y-19580D01*
X67846Y-19235D01*
X67767Y-19034D01*
X67617Y-18878D01*
X67434Y-18805D01*
X67350Y-18852D01*
X67350Y-19580D01*
X67846Y-19580D01*
X67846Y-19680D01*
X67350Y-19680D01*
X67350Y-20408D01*
X67434Y-20455D01*
X67617Y-20382D01*
X67767Y-20226D01*
X67846Y-20025D01*
X67846Y-21040D01*
X67358Y-20552D01*
X67213Y-20454D01*
X67179Y-20447D01*
X67250Y-20408D01*
X67250Y-19730D01*
X67250Y-19680D01*
X67250Y-19580D01*
X67250Y-19530D01*
X67250Y-18852D01*
X67166Y-18805D01*
X66983Y-18878D01*
X66833Y-19034D01*
X66798Y-19120D01*
X66755Y-19014D01*
X66604Y-18863D01*
X66407Y-18781D01*
X66194Y-18781D01*
X65997Y-18862D01*
X65846Y-19013D01*
X65764Y-19210D01*
X65764Y-19423D01*
X65764Y-20049D01*
X65845Y-20246D01*
X65996Y-20397D01*
X66051Y-20420D01*
X64605Y-20420D01*
X64683Y-20388D01*
X64834Y-20237D01*
X64916Y-20040D01*
X64916Y-19827D01*
X64916Y-19201D01*
X64835Y-19004D01*
X64714Y-18883D01*
X64703Y-18826D01*
X64627Y-18713D01*
X64627Y-18712D01*
X64367Y-18453D01*
X64254Y-18377D01*
X64120Y-18350D01*
X60700Y-18350D01*
X60566Y-18377D01*
X60452Y-18453D01*
X60233Y-18673D01*
X60157Y-18786D01*
X60135Y-18893D01*
X60026Y-19003D01*
X59944Y-19200D01*
X59944Y-19413D01*
X59944Y-20039D01*
X60025Y-20236D01*
X60176Y-20387D01*
X60373Y-20469D01*
X60586Y-20469D01*
X60783Y-20388D01*
X60934Y-20237D01*
X60978Y-20129D01*
X61013Y-20216D01*
X61163Y-20372D01*
X61346Y-20445D01*
X61430Y-20398D01*
X61430Y-19720D01*
X61430Y-19670D01*
X61430Y-19570D01*
X61530Y-19570D01*
X61580Y-19570D01*
X62026Y-19570D01*
X62026Y-19225D01*
X61957Y-19050D01*
X62906Y-19050D01*
X62844Y-19200D01*
X62844Y-19413D01*
X62844Y-20039D01*
X62925Y-20236D01*
X62930Y-20241D01*
X62930Y-20350D01*
X62964Y-20523D01*
X63062Y-20668D01*
X63534Y-21140D01*
X63332Y-21140D01*
X63270Y-21202D01*
X63270Y-21590D01*
X63270Y-21640D01*
X63270Y-21740D01*
X63270Y-21790D01*
X63270Y-22178D01*
X63332Y-22240D01*
X63571Y-22239D01*
X63670Y-22239D01*
X63761Y-22201D01*
X63831Y-22131D01*
X63850Y-22085D01*
X63869Y-22131D01*
X63939Y-22201D01*
X64030Y-22239D01*
X64129Y-22239D01*
X64929Y-22239D01*
X65021Y-22201D01*
X65091Y-22131D01*
X65129Y-22040D01*
X66665Y-22040D01*
X68182Y-23557D01*
X68183Y-23557D01*
X68184Y-23558D01*
X69220Y-24594D01*
X69220Y-24760D01*
X69247Y-24894D01*
X69323Y-25007D01*
X69842Y-25527D01*
X69843Y-25527D01*
X69919Y-25578D01*
X69920Y-25579D01*
X69925Y-25591D01*
X70079Y-25745D01*
X70281Y-25829D01*
X70499Y-25829D01*
X70701Y-25745D01*
X70855Y-25591D01*
X70939Y-25389D01*
X70939Y-25431D01*
X70875Y-25585D01*
X70875Y-25754D01*
X70939Y-25910D01*
X70974Y-25945D01*
X70920Y-25968D01*
X70830Y-25931D01*
X70731Y-25931D01*
X69931Y-25931D01*
X69839Y-25969D01*
X69835Y-25973D01*
X69831Y-25969D01*
X69740Y-25931D01*
X69641Y-25931D01*
X69485Y-25931D01*
X69505Y-25902D01*
X69539Y-25730D01*
X69505Y-25557D01*
X69408Y-25411D01*
X69210Y-25213D01*
X69210Y-25190D01*
X69176Y-25018D01*
X69176Y-25017D01*
X69078Y-24872D01*
X68213Y-24007D01*
X68068Y-23909D01*
X68041Y-23903D01*
X68018Y-23880D01*
X67825Y-23800D01*
X67616Y-23800D01*
X67423Y-23880D01*
X67275Y-24027D01*
X67195Y-24220D01*
X67195Y-24429D01*
X67275Y-24622D01*
X67422Y-24770D01*
X67555Y-24825D01*
X67423Y-24880D01*
X67275Y-25027D01*
X67195Y-25220D01*
X67195Y-25429D01*
X67275Y-25622D01*
X67422Y-25770D01*
X67555Y-25825D01*
X67423Y-25880D01*
X67275Y-26027D01*
X67195Y-26220D01*
X67195Y-26429D01*
X67275Y-26622D01*
X67422Y-26770D01*
X67555Y-26825D01*
X67423Y-26880D01*
X67275Y-27027D01*
X67195Y-27220D01*
X67195Y-27429D01*
X67275Y-27622D01*
X67398Y-27746D01*
X67284Y-27861D01*
X67282Y-27863D01*
X66985Y-28160D01*
X66320Y-28160D01*
X65995Y-28160D01*
X65995Y-23045D01*
X65995Y-22876D01*
X65931Y-22720D01*
X65811Y-22600D01*
X65655Y-22535D01*
X65486Y-22535D01*
X65330Y-22599D01*
X65289Y-22640D01*
X65128Y-22640D01*
X65091Y-22549D01*
X65021Y-22479D01*
X64930Y-22441D01*
X64831Y-22441D01*
X64031Y-22441D01*
X63939Y-22479D01*
X63869Y-22549D01*
X63849Y-22594D01*
X63831Y-22549D01*
X63761Y-22479D01*
X63670Y-22441D01*
X63571Y-22441D01*
X63170Y-22441D01*
X63170Y-22178D01*
X63170Y-21740D01*
X63170Y-21640D01*
X63170Y-21202D01*
X63108Y-21140D01*
X62869Y-21141D01*
X62770Y-21141D01*
X62679Y-21179D01*
X62609Y-21249D01*
X62571Y-21341D01*
X62570Y-21578D01*
X62632Y-21640D01*
X63170Y-21640D01*
X63170Y-21740D01*
X62632Y-21740D01*
X62570Y-21802D01*
X62571Y-22039D01*
X62609Y-22131D01*
X62679Y-22201D01*
X62770Y-22239D01*
X62869Y-22239D01*
X63108Y-22240D01*
X63170Y-22178D01*
X63170Y-22441D01*
X62771Y-22441D01*
X62679Y-22479D01*
X62609Y-22549D01*
X62571Y-22640D01*
X62571Y-22739D01*
X62571Y-23339D01*
X62609Y-23431D01*
X62679Y-23501D01*
X62770Y-23539D01*
X62869Y-23539D01*
X63669Y-23539D01*
X63761Y-23501D01*
X63831Y-23431D01*
X63850Y-23385D01*
X63869Y-23431D01*
X63939Y-23501D01*
X64030Y-23539D01*
X64129Y-23539D01*
X64929Y-23539D01*
X65021Y-23501D01*
X65091Y-23431D01*
X65129Y-23340D01*
X65377Y-23340D01*
X65485Y-23385D01*
X65654Y-23385D01*
X65810Y-23321D01*
X65930Y-23201D01*
X65995Y-23045D01*
X65995Y-28160D01*
X65239Y-28160D01*
X65239Y-27399D01*
X65228Y-27195D01*
X65172Y-27058D01*
X65081Y-27035D01*
X64791Y-27325D01*
X65081Y-27615D01*
X65172Y-27592D01*
X65239Y-27399D01*
X65239Y-28160D01*
X65010Y-28160D01*
X65010Y-27686D01*
X64720Y-27396D01*
X64649Y-27467D01*
X64649Y-27325D01*
X64359Y-27035D01*
X64268Y-27058D01*
X64201Y-27251D01*
X64212Y-27455D01*
X64268Y-27592D01*
X64359Y-27615D01*
X64649Y-27325D01*
X64649Y-27467D01*
X64430Y-27686D01*
X64453Y-27777D01*
X64646Y-27844D01*
X64850Y-27833D01*
X64987Y-27777D01*
X65010Y-27686D01*
X65010Y-28160D01*
X63619Y-28160D01*
X63620Y-28082D01*
X63620Y-27858D01*
X63619Y-27621D01*
X63581Y-27529D01*
X63511Y-27459D01*
X63420Y-27421D01*
X63321Y-27421D01*
X63082Y-27420D01*
X63020Y-27482D01*
X63020Y-27920D01*
X63558Y-27920D01*
X63620Y-27858D01*
X63620Y-28082D01*
X63558Y-28020D01*
X63070Y-28020D01*
X63020Y-28020D01*
X62920Y-28020D01*
X62920Y-27920D01*
X62920Y-27870D01*
X62920Y-27482D01*
X62858Y-27420D01*
X62619Y-27421D01*
X62520Y-27421D01*
X62429Y-27459D01*
X62359Y-27529D01*
X62347Y-27555D01*
X62281Y-27489D01*
X62190Y-27451D01*
X62091Y-27451D01*
X61291Y-27451D01*
X61199Y-27489D01*
X61129Y-27559D01*
X61091Y-27650D01*
X61091Y-27749D01*
X61091Y-28349D01*
X61129Y-28441D01*
X61199Y-28511D01*
X61290Y-28549D01*
X61332Y-28549D01*
X61305Y-28615D01*
X61305Y-28784D01*
X61327Y-28840D01*
X61089Y-28840D01*
X61089Y-28270D01*
X61089Y-28171D01*
X61089Y-27571D01*
X61051Y-27479D01*
X60981Y-27409D01*
X60890Y-27371D01*
X60791Y-27371D01*
X59991Y-27371D01*
X59899Y-27409D01*
X59829Y-27479D01*
X59791Y-27570D01*
X59781Y-27570D01*
X59741Y-27530D01*
X59585Y-27465D01*
X59416Y-27465D01*
X59260Y-27529D01*
X59140Y-27649D01*
X59075Y-27805D01*
X59075Y-27974D01*
X59139Y-28130D01*
X59259Y-28250D01*
X59415Y-28315D01*
X59584Y-28315D01*
X59693Y-28270D01*
X59791Y-28270D01*
X59829Y-28361D01*
X59899Y-28431D01*
X59990Y-28469D01*
X60089Y-28469D01*
X60889Y-28469D01*
X60981Y-28431D01*
X61051Y-28361D01*
X61089Y-28270D01*
X61089Y-28840D01*
X60976Y-28840D01*
X60861Y-28725D01*
X60659Y-28641D01*
X60441Y-28641D01*
X60239Y-28725D01*
X60085Y-28879D01*
X60001Y-29081D01*
X60001Y-29299D01*
X60085Y-29501D01*
X60239Y-29655D01*
X60441Y-29739D01*
X60486Y-29739D01*
X60385Y-29840D01*
X59976Y-29840D01*
X59861Y-29725D01*
X59659Y-29641D01*
X59441Y-29641D01*
X59239Y-29725D01*
X59140Y-29824D01*
X59140Y-29690D01*
X59139Y-29689D01*
X59113Y-29556D01*
X59037Y-29443D01*
X59037Y-29442D01*
X58870Y-29275D01*
X58870Y-27254D01*
X59154Y-26970D01*
X59520Y-26970D01*
X59791Y-26970D01*
X59829Y-27061D01*
X59899Y-27131D01*
X59990Y-27169D01*
X60089Y-27169D01*
X60889Y-27169D01*
X60981Y-27131D01*
X61051Y-27061D01*
X61089Y-26970D01*
X61091Y-26970D01*
X61091Y-27049D01*
X61129Y-27141D01*
X61199Y-27211D01*
X61290Y-27249D01*
X61389Y-27249D01*
X62189Y-27249D01*
X62281Y-27211D01*
X62351Y-27141D01*
X62362Y-27114D01*
X62429Y-27181D01*
X62520Y-27219D01*
X62619Y-27219D01*
X63419Y-27219D01*
X63511Y-27181D01*
X63581Y-27111D01*
X63619Y-27020D01*
X63619Y-26921D01*
X63619Y-26321D01*
X63581Y-26229D01*
X63511Y-26159D01*
X63505Y-26156D01*
X63561Y-26101D01*
X63599Y-26010D01*
X63671Y-26010D01*
X63676Y-26013D01*
X63810Y-26039D01*
X63944Y-26013D01*
X64057Y-25937D01*
X64087Y-25908D01*
X64087Y-25907D01*
X64088Y-25905D01*
X64319Y-25675D01*
X64327Y-25675D01*
X64422Y-25770D01*
X64555Y-25825D01*
X64423Y-25880D01*
X64275Y-26027D01*
X64195Y-26220D01*
X64195Y-26429D01*
X64275Y-26622D01*
X64422Y-26770D01*
X64562Y-26828D01*
X64453Y-26873D01*
X64430Y-26964D01*
X64720Y-27254D01*
X65010Y-26964D01*
X64987Y-26873D01*
X64868Y-26831D01*
X65017Y-26770D01*
X65165Y-26623D01*
X65245Y-26430D01*
X65245Y-26221D01*
X65165Y-26028D01*
X65018Y-25880D01*
X64884Y-25824D01*
X65017Y-25770D01*
X65165Y-25623D01*
X65245Y-25430D01*
X65245Y-25221D01*
X65165Y-25028D01*
X65018Y-24880D01*
X64943Y-24849D01*
X65044Y-24849D01*
X65136Y-24811D01*
X65206Y-24741D01*
X65244Y-24650D01*
X65244Y-24551D01*
X65244Y-24001D01*
X65206Y-23909D01*
X65136Y-23839D01*
X65045Y-23801D01*
X64946Y-23801D01*
X64396Y-23801D01*
X64304Y-23839D01*
X64234Y-23909D01*
X64206Y-23975D01*
X63584Y-23975D01*
X63561Y-23919D01*
X63491Y-23849D01*
X63400Y-23811D01*
X63301Y-23811D01*
X62501Y-23811D01*
X62409Y-23849D01*
X62339Y-23919D01*
X62319Y-23964D01*
X62301Y-23919D01*
X62231Y-23849D01*
X62140Y-23811D01*
X62041Y-23811D01*
X62026Y-23811D01*
X62026Y-20015D01*
X62026Y-19670D01*
X61530Y-19670D01*
X61530Y-20398D01*
X61614Y-20445D01*
X61797Y-20372D01*
X61947Y-20216D01*
X62026Y-20015D01*
X62026Y-23811D01*
X61493Y-23811D01*
X61493Y-23119D01*
X61482Y-22906D01*
X61422Y-22759D01*
X61328Y-22732D01*
X61021Y-23040D01*
X61328Y-23348D01*
X61422Y-23321D01*
X61493Y-23119D01*
X61493Y-23811D01*
X61258Y-23811D01*
X61258Y-23418D01*
X60950Y-23111D01*
X60879Y-23181D01*
X60879Y-23040D01*
X60572Y-22732D01*
X60478Y-22759D01*
X60407Y-22961D01*
X60418Y-23174D01*
X60478Y-23321D01*
X60572Y-23348D01*
X60879Y-23040D01*
X60879Y-23181D01*
X60642Y-23418D01*
X60669Y-23512D01*
X60871Y-23583D01*
X61084Y-23572D01*
X61231Y-23512D01*
X61258Y-23418D01*
X61258Y-23811D01*
X61241Y-23811D01*
X61149Y-23849D01*
X61089Y-23908D01*
X61081Y-23889D01*
X61011Y-23819D01*
X60920Y-23781D01*
X60821Y-23781D01*
X60808Y-23781D01*
X60793Y-23706D01*
X60717Y-23593D01*
X60689Y-23574D01*
X60210Y-23095D01*
X60210Y-22420D01*
X60210Y-22390D01*
X60401Y-22390D01*
X60439Y-22481D01*
X60509Y-22551D01*
X60600Y-22589D01*
X60662Y-22589D01*
X60642Y-22662D01*
X60950Y-22969D01*
X61258Y-22662D01*
X61237Y-22589D01*
X61299Y-22589D01*
X61391Y-22551D01*
X61461Y-22481D01*
X61499Y-22390D01*
X61499Y-22291D01*
X61499Y-21691D01*
X61461Y-21599D01*
X61391Y-21529D01*
X61300Y-21491D01*
X61201Y-21491D01*
X60601Y-21491D01*
X60509Y-21529D01*
X60439Y-21599D01*
X60401Y-21690D01*
X60050Y-21690D01*
X59916Y-21717D01*
X59802Y-21793D01*
X59613Y-21983D01*
X59537Y-22096D01*
X59510Y-22230D01*
X59510Y-22420D01*
X59510Y-23240D01*
X59537Y-23374D01*
X59613Y-23487D01*
X59939Y-23814D01*
X59929Y-23819D01*
X59859Y-23889D01*
X59821Y-23980D01*
X59821Y-24079D01*
X59821Y-24679D01*
X59859Y-24771D01*
X59929Y-24841D01*
X60020Y-24879D01*
X60119Y-24879D01*
X60919Y-24879D01*
X61011Y-24841D01*
X61070Y-24781D01*
X61079Y-24801D01*
X61149Y-24871D01*
X61240Y-24909D01*
X61339Y-24909D01*
X62139Y-24909D01*
X62231Y-24871D01*
X62301Y-24801D01*
X62320Y-24755D01*
X62339Y-24801D01*
X62409Y-24871D01*
X62500Y-24909D01*
X62599Y-24909D01*
X63399Y-24909D01*
X63491Y-24871D01*
X63561Y-24801D01*
X63599Y-24710D01*
X63599Y-24675D01*
X64206Y-24675D01*
X64234Y-24741D01*
X64304Y-24811D01*
X64395Y-24849D01*
X64494Y-24849D01*
X64423Y-24880D01*
X64327Y-24975D01*
X64175Y-24975D01*
X64041Y-25002D01*
X63927Y-25078D01*
X63695Y-25310D01*
X63598Y-25310D01*
X63561Y-25219D01*
X63491Y-25149D01*
X63400Y-25111D01*
X63301Y-25111D01*
X62501Y-25111D01*
X62409Y-25149D01*
X62339Y-25219D01*
X62319Y-25264D01*
X62301Y-25219D01*
X62231Y-25149D01*
X62140Y-25111D01*
X62041Y-25111D01*
X61241Y-25111D01*
X61149Y-25149D01*
X61089Y-25208D01*
X61081Y-25189D01*
X61011Y-25119D01*
X60920Y-25081D01*
X60821Y-25081D01*
X60021Y-25081D01*
X59929Y-25119D01*
X59859Y-25189D01*
X59821Y-25280D01*
X59821Y-25379D01*
X59821Y-25979D01*
X59859Y-26071D01*
X59898Y-26110D01*
X59829Y-26179D01*
X59791Y-26270D01*
X59520Y-26270D01*
X59010Y-26270D01*
X58876Y-26297D01*
X58807Y-26342D01*
X58762Y-26373D01*
X58480Y-26655D01*
X58480Y-19740D01*
X58480Y-19322D01*
X58320Y-18936D01*
X58025Y-18640D01*
X57640Y-18480D01*
X57222Y-18480D01*
X56836Y-18640D01*
X56540Y-18935D01*
X56380Y-19320D01*
X56380Y-19738D01*
X56540Y-20124D01*
X56835Y-20420D01*
X57220Y-20580D01*
X57638Y-20580D01*
X58024Y-20420D01*
X58320Y-20125D01*
X58480Y-19740D01*
X58480Y-26655D01*
X58273Y-26863D01*
X58197Y-26976D01*
X58170Y-27110D01*
X58170Y-29420D01*
X58197Y-29554D01*
X58273Y-29667D01*
X58440Y-29834D01*
X58440Y-30380D01*
X58467Y-30514D01*
X58543Y-30627D01*
X59382Y-31467D01*
X59383Y-31467D01*
X59427Y-31497D01*
X59496Y-31543D01*
X59629Y-31569D01*
X59630Y-31570D01*
X61620Y-31570D01*
X61620Y-31569D01*
X61754Y-31543D01*
X61867Y-31467D01*
X61874Y-31460D01*
X62540Y-31460D01*
X66430Y-31460D01*
X67150Y-31460D01*
X67150Y-31459D01*
X67284Y-31433D01*
X67397Y-31357D01*
X67457Y-31298D01*
X67457Y-31297D01*
X67477Y-31266D01*
X67478Y-31265D01*
X67675Y-31069D01*
X68179Y-31069D01*
X68271Y-31031D01*
X68341Y-30961D01*
X68379Y-30870D01*
X68379Y-30771D01*
X68379Y-30171D01*
X68341Y-30079D01*
X68271Y-30009D01*
X68180Y-29971D01*
X68081Y-29971D01*
X67281Y-29971D01*
X67189Y-30009D01*
X67119Y-30079D01*
X67081Y-30170D01*
X67081Y-30269D01*
X67081Y-30674D01*
X66995Y-30760D01*
X66513Y-30760D01*
X66431Y-30760D01*
X66436Y-30755D01*
X66403Y-30722D01*
X66442Y-30711D01*
X66513Y-30509D01*
X66502Y-30296D01*
X66442Y-30149D01*
X66348Y-30122D01*
X66041Y-30430D01*
X65970Y-30501D01*
X65899Y-30430D01*
X65864Y-30395D01*
X65592Y-30122D01*
X65498Y-30149D01*
X65427Y-30351D01*
X65438Y-30564D01*
X65498Y-30711D01*
X65536Y-30722D01*
X65504Y-30755D01*
X65509Y-30760D01*
X63883Y-30760D01*
X63801Y-30760D01*
X63806Y-30755D01*
X63773Y-30722D01*
X63812Y-30711D01*
X63883Y-30509D01*
X63872Y-30296D01*
X63812Y-30149D01*
X63718Y-30122D01*
X63411Y-30430D01*
X63340Y-30501D01*
X63269Y-30430D01*
X63234Y-30395D01*
X62962Y-30122D01*
X62868Y-30149D01*
X62797Y-30351D01*
X62808Y-30564D01*
X62868Y-30711D01*
X62906Y-30722D01*
X62874Y-30755D01*
X62879Y-30760D01*
X62540Y-30760D01*
X61730Y-30760D01*
X61596Y-30787D01*
X61482Y-30863D01*
X61475Y-30870D01*
X59774Y-30870D01*
X59643Y-30739D01*
X59659Y-30739D01*
X59861Y-30655D01*
X59976Y-30540D01*
X60530Y-30540D01*
X60530Y-30539D01*
X60664Y-30513D01*
X60777Y-30437D01*
X61001Y-30213D01*
X61001Y-30299D01*
X61085Y-30501D01*
X61239Y-30655D01*
X61441Y-30739D01*
X61659Y-30739D01*
X61861Y-30655D01*
X62015Y-30501D01*
X62099Y-30299D01*
X62099Y-30081D01*
X62019Y-29890D01*
X62720Y-29890D01*
X62720Y-29889D01*
X62827Y-29868D01*
X62829Y-29871D01*
X62899Y-29941D01*
X62990Y-29979D01*
X63052Y-29979D01*
X63032Y-30052D01*
X63340Y-30359D01*
X63648Y-30052D01*
X63627Y-29979D01*
X63689Y-29979D01*
X63781Y-29941D01*
X63851Y-29871D01*
X63889Y-29780D01*
X63889Y-29681D01*
X63889Y-29081D01*
X63851Y-28989D01*
X63781Y-28919D01*
X63690Y-28881D01*
X63591Y-28881D01*
X62991Y-28881D01*
X62978Y-28886D01*
X63004Y-28860D01*
X66320Y-28860D01*
X67085Y-28860D01*
X67081Y-28870D01*
X66980Y-28870D01*
X66846Y-28897D01*
X66777Y-28942D01*
X66732Y-28973D01*
X66625Y-29080D01*
X66518Y-29080D01*
X66481Y-28989D01*
X66411Y-28919D01*
X66320Y-28881D01*
X66221Y-28881D01*
X65621Y-28881D01*
X65529Y-28919D01*
X65459Y-28989D01*
X65421Y-29080D01*
X65421Y-29179D01*
X65421Y-29779D01*
X65459Y-29871D01*
X65529Y-29941D01*
X65620Y-29979D01*
X65682Y-29979D01*
X65662Y-30052D01*
X65970Y-30359D01*
X66278Y-30052D01*
X66257Y-29979D01*
X66319Y-29979D01*
X66411Y-29941D01*
X66481Y-29871D01*
X66519Y-29780D01*
X66770Y-29780D01*
X66770Y-29779D01*
X66904Y-29753D01*
X67017Y-29677D01*
X67093Y-29600D01*
X67119Y-29661D01*
X67189Y-29731D01*
X67280Y-29769D01*
X67379Y-29769D01*
X68179Y-29769D01*
X68271Y-29731D01*
X68341Y-29661D01*
X68379Y-29570D01*
X68379Y-29560D01*
X68391Y-29560D01*
X68429Y-29651D01*
X68499Y-29721D01*
X68590Y-29759D01*
X68689Y-29759D01*
X69489Y-29759D01*
X69581Y-29721D01*
X69651Y-29651D01*
X69689Y-29560D01*
X69689Y-29461D01*
X69689Y-28861D01*
X69651Y-28769D01*
X69581Y-28699D01*
X69490Y-28661D01*
X69391Y-28661D01*
X68591Y-28661D01*
X68499Y-28699D01*
X68429Y-28769D01*
X68391Y-28860D01*
X68374Y-28860D01*
X68341Y-28779D01*
X68271Y-28709D01*
X68180Y-28671D01*
X68081Y-28671D01*
X67463Y-28671D01*
X67777Y-28358D01*
X67777Y-28357D01*
X67778Y-28355D01*
X68004Y-28130D01*
X68641Y-28130D01*
X68679Y-28221D01*
X68749Y-28291D01*
X68840Y-28329D01*
X68939Y-28329D01*
X69739Y-28329D01*
X69831Y-28291D01*
X69835Y-28287D01*
X69839Y-28291D01*
X69930Y-28329D01*
X69981Y-28329D01*
X69925Y-28465D01*
X69925Y-28634D01*
X69936Y-28661D01*
X69891Y-28661D01*
X69799Y-28699D01*
X69729Y-28769D01*
X69691Y-28860D01*
X69691Y-28959D01*
X69691Y-29559D01*
X69729Y-29651D01*
X69799Y-29721D01*
X69890Y-29759D01*
X69989Y-29759D01*
X70789Y-29759D01*
X70881Y-29721D01*
X70901Y-29701D01*
X70901Y-30019D01*
X70881Y-29999D01*
X70790Y-29961D01*
X70691Y-29961D01*
X70452Y-29960D01*
X70390Y-30022D01*
X70390Y-30410D01*
X70390Y-30460D01*
X70390Y-30560D01*
X70290Y-30560D01*
X70290Y-30460D01*
X70290Y-30022D01*
X70228Y-29960D01*
X69989Y-29961D01*
X69890Y-29961D01*
X69799Y-29999D01*
X69729Y-30069D01*
X69691Y-30161D01*
X69690Y-30398D01*
X69689Y-30161D01*
X69651Y-30069D01*
X69581Y-29999D01*
X69490Y-29961D01*
X69391Y-29961D01*
X69152Y-29960D01*
X69090Y-30022D01*
X69090Y-30460D01*
X69628Y-30460D01*
X69690Y-30398D01*
X69752Y-30460D01*
X70290Y-30460D01*
X70290Y-30560D01*
X70240Y-30560D01*
X69752Y-30560D01*
X69690Y-30622D01*
X69628Y-30560D01*
X69090Y-30560D01*
X69090Y-30998D01*
X69152Y-31060D01*
X69391Y-31059D01*
X69490Y-31059D01*
X69581Y-31021D01*
X69651Y-30951D01*
X69689Y-30859D01*
X69690Y-30622D01*
X69691Y-30859D01*
X69729Y-30951D01*
X69799Y-31021D01*
X69890Y-31059D01*
X69953Y-31059D01*
X69905Y-31175D01*
X69905Y-31344D01*
X69969Y-31500D01*
X70089Y-31620D01*
X70245Y-31685D01*
X70414Y-31685D01*
X70570Y-31621D01*
X70581Y-31610D01*
X71150Y-31610D01*
X71150Y-31609D01*
X71284Y-31583D01*
X71334Y-31549D01*
X71999Y-31549D01*
X72091Y-31511D01*
X72161Y-31441D01*
X72199Y-31350D01*
X72199Y-31251D01*
X72199Y-30651D01*
X72161Y-30559D01*
X72091Y-30489D01*
X72000Y-30451D01*
X71901Y-30451D01*
X71101Y-30451D01*
X71009Y-30489D01*
X70990Y-30508D01*
X70990Y-30410D01*
X70978Y-30410D01*
X70990Y-30398D01*
X70989Y-30191D01*
X71009Y-30211D01*
X71100Y-30249D01*
X71199Y-30249D01*
X71999Y-30249D01*
X72091Y-30211D01*
X72161Y-30141D01*
X72199Y-30050D01*
X72199Y-29951D01*
X72199Y-29351D01*
X72161Y-29259D01*
X72091Y-29189D01*
X72000Y-29151D01*
X72000Y-28920D01*
X71999Y-28919D01*
X71966Y-28748D01*
X71965Y-28747D01*
X71933Y-28699D01*
X71868Y-28602D01*
X71868Y-28601D01*
X71808Y-28542D01*
X71663Y-28444D01*
X71490Y-28410D01*
X71317Y-28444D01*
X71172Y-28542D01*
X71074Y-28687D01*
X71040Y-28860D01*
X71074Y-29033D01*
X71100Y-29071D01*
X71100Y-29151D01*
X71009Y-29189D01*
X70989Y-29209D01*
X70989Y-28861D01*
X70951Y-28769D01*
X70881Y-28699D01*
X70790Y-28661D01*
X70764Y-28661D01*
X70775Y-28635D01*
X70775Y-28466D01*
X70718Y-28329D01*
X70829Y-28329D01*
X70919Y-28291D01*
X70921Y-28291D01*
X71010Y-28329D01*
X71109Y-28329D01*
X71909Y-28329D01*
X72001Y-28291D01*
X72071Y-28221D01*
X72109Y-28130D01*
X72109Y-28126D01*
X72109Y-28125D01*
X72224Y-28103D01*
X72337Y-28027D01*
X72537Y-27828D01*
X72537Y-27827D01*
X72613Y-27714D01*
X72639Y-27581D01*
X72640Y-27580D01*
X72640Y-31758D01*
X72199Y-31758D01*
X68990Y-31756D01*
X68990Y-30998D01*
X68990Y-30560D01*
X68990Y-30460D01*
X68990Y-30022D01*
X68928Y-29960D01*
X68689Y-29961D01*
X68590Y-29961D01*
X68499Y-29999D01*
X68429Y-30069D01*
X68391Y-30161D01*
X68390Y-30398D01*
X68452Y-30460D01*
X68990Y-30460D01*
X68990Y-30560D01*
X68452Y-30560D01*
X68390Y-30622D01*
X68391Y-30859D01*
X68429Y-30951D01*
X68499Y-31021D01*
X68590Y-31059D01*
X68689Y-31059D01*
X68928Y-31060D01*
X68990Y-30998D01*
X68990Y-31756D01*
X56275Y-31750D01*
X56275Y-30604D01*
X56370Y-30834D01*
X56665Y-31130D01*
X57050Y-31290D01*
X57468Y-31290D01*
X57854Y-31130D01*
X58150Y-30835D01*
X58310Y-30450D01*
X58310Y-30032D01*
X58150Y-29646D01*
X57855Y-29350D01*
X57470Y-29190D01*
X57052Y-29190D01*
X56666Y-29350D01*
X56370Y-29645D01*
X56275Y-29873D01*
X56275Y-18650D01*
X56273Y-18643D01*
X56275Y-18636D01*
X56275Y-17865D01*
X60030Y-17865D01*
X59480Y-18415D01*
X59466Y-18415D01*
X59310Y-18479D01*
X59190Y-18599D01*
X59125Y-18755D01*
X59125Y-18924D01*
X59189Y-19080D01*
X59309Y-19200D01*
X59465Y-19265D01*
X59634Y-19265D01*
X59790Y-19201D01*
X59910Y-19081D01*
X59975Y-18925D01*
X59975Y-18909D01*
X60554Y-18330D01*
X68540Y-18330D01*
X68555Y-18330D01*
X68640Y-18414D01*
X68640Y-18929D01*
X68536Y-19033D01*
X68454Y-19230D01*
X68454Y-19443D01*
X68454Y-20069D01*
X68535Y-20266D01*
X68686Y-20417D01*
X68883Y-20499D01*
X69096Y-20499D01*
X69293Y-20418D01*
X69444Y-20267D01*
X69489Y-20156D01*
X69535Y-20266D01*
X69686Y-20417D01*
X69883Y-20499D01*
X70096Y-20499D01*
X70293Y-20418D01*
X70444Y-20267D01*
X70526Y-20070D01*
X70526Y-19857D01*
X70526Y-19231D01*
X70445Y-19034D01*
X70294Y-18883D01*
X70097Y-18801D01*
X69884Y-18801D01*
X69687Y-18882D01*
X69536Y-19033D01*
X69490Y-19143D01*
X69445Y-19034D01*
X69340Y-18929D01*
X69340Y-18270D01*
X69313Y-18136D01*
X69237Y-18023D01*
X69237Y-18022D01*
X69079Y-17865D01*
X72755Y-17865D01*
X72755Y-18639D01*
X72756Y-18644D01*
X72756Y-18644D01*
G37*
G54D22*
X72756Y-18644D02*
X72755Y-18650D01*
X72755Y-19489D01*
X72600Y-19116D01*
X72305Y-18820D01*
X71920Y-18660D01*
X71502Y-18660D01*
X71116Y-18820D01*
X70820Y-19115D01*
X70660Y-19500D01*
X70660Y-19918D01*
X70820Y-20304D01*
X71115Y-20600D01*
X71500Y-20760D01*
X71918Y-20760D01*
X72304Y-20600D01*
X72600Y-20305D01*
X72755Y-19932D01*
X72755Y-31759D01*
X72640Y-31758D01*
X72640Y-27580D01*
X72640Y-26070D01*
X72613Y-25936D01*
X72537Y-25823D01*
X72537Y-25822D01*
X72137Y-25423D01*
X72024Y-25347D01*
X71890Y-25320D01*
X71551Y-25320D01*
X71541Y-25310D01*
X71385Y-25245D01*
X71216Y-25245D01*
X71060Y-25309D01*
X70940Y-25429D01*
X70939Y-25431D01*
X70939Y-25389D01*
X70939Y-25171D01*
X70855Y-24969D01*
X70715Y-24829D01*
X70739Y-24829D01*
X70831Y-24791D01*
X70901Y-24721D01*
X70939Y-24630D01*
X70939Y-24531D01*
X70939Y-23931D01*
X70901Y-23839D01*
X70831Y-23769D01*
X70740Y-23731D01*
X70641Y-23731D01*
X70041Y-23731D01*
X70003Y-23746D01*
X70003Y-22929D01*
X69992Y-22716D01*
X69932Y-22569D01*
X69838Y-22542D01*
X69531Y-22850D01*
X69838Y-23158D01*
X69932Y-23131D01*
X70003Y-22929D01*
X70003Y-23746D01*
X69949Y-23769D01*
X69879Y-23839D01*
X69841Y-23930D01*
X69841Y-24029D01*
X69841Y-24238D01*
X69817Y-24203D01*
X69817Y-24202D01*
X69768Y-24153D01*
X69768Y-23228D01*
X69460Y-22921D01*
X69389Y-22991D01*
X69389Y-22850D01*
X69082Y-22542D01*
X68988Y-22569D01*
X68917Y-22771D01*
X68928Y-22984D01*
X68988Y-23131D01*
X69082Y-23158D01*
X69389Y-22850D01*
X69389Y-22991D01*
X69152Y-23228D01*
X69179Y-23322D01*
X69381Y-23393D01*
X69594Y-23382D01*
X69741Y-23322D01*
X69768Y-23228D01*
X69768Y-24153D01*
X68678Y-23064D01*
X68677Y-23063D01*
X68677Y-23062D01*
X67888Y-22274D01*
X68019Y-22299D01*
X68020Y-22300D01*
X68958Y-22300D01*
X69019Y-22361D01*
X69110Y-22399D01*
X69172Y-22399D01*
X69152Y-22472D01*
X69460Y-22779D01*
X69768Y-22472D01*
X69747Y-22399D01*
X69809Y-22399D01*
X69901Y-22361D01*
X69971Y-22291D01*
X70009Y-22200D01*
X70009Y-22101D01*
X70009Y-21501D01*
X69971Y-21409D01*
X69901Y-21339D01*
X69810Y-21301D01*
X69711Y-21301D01*
X69111Y-21301D01*
X69019Y-21339D01*
X68958Y-21400D01*
X68206Y-21400D01*
X67846Y-21040D01*
X67846Y-20025D01*
X67846Y-19680D01*
X67846Y-19580D01*
X67846Y-19235D01*
X67767Y-19034D01*
X67617Y-18878D01*
X67434Y-18805D01*
X67350Y-18852D01*
X67350Y-19580D01*
X67846Y-19580D01*
X67846Y-19680D01*
X67350Y-19680D01*
X67350Y-20408D01*
X67434Y-20455D01*
X67617Y-20382D01*
X67767Y-20226D01*
X67846Y-20025D01*
X67846Y-21040D01*
X67358Y-20552D01*
X67213Y-20454D01*
X67179Y-20447D01*
X67250Y-20408D01*
X67250Y-19730D01*
X67250Y-19680D01*
X67250Y-19580D01*
X67250Y-19530D01*
X67250Y-18852D01*
X67166Y-18805D01*
X66983Y-18878D01*
X66833Y-19034D01*
X66798Y-19120D01*
X66755Y-19014D01*
X66604Y-18863D01*
X66407Y-18781D01*
X66194Y-18781D01*
X65997Y-18862D01*
X65846Y-19013D01*
X65764Y-19210D01*
X65764Y-19423D01*
X65764Y-20049D01*
X65845Y-20246D01*
X65996Y-20397D01*
X66051Y-20420D01*
X64605Y-20420D01*
X64683Y-20388D01*
X64834Y-20237D01*
X64916Y-20040D01*
X64916Y-19827D01*
X64916Y-19201D01*
X64835Y-19004D01*
X64714Y-18883D01*
X64703Y-18826D01*
X64627Y-18713D01*
X64627Y-18712D01*
X64367Y-18453D01*
X64254Y-18377D01*
X64120Y-18350D01*
X60700Y-18350D01*
X60566Y-18377D01*
X60452Y-18453D01*
X60233Y-18673D01*
X60157Y-18786D01*
X60135Y-18893D01*
X60026Y-19003D01*
X59944Y-19200D01*
X59944Y-19413D01*
X59944Y-20039D01*
X60025Y-20236D01*
X60176Y-20387D01*
X60373Y-20469D01*
X60586Y-20469D01*
X60783Y-20388D01*
X60934Y-20237D01*
X60978Y-20129D01*
X61013Y-20216D01*
X61163Y-20372D01*
X61346Y-20445D01*
X61430Y-20398D01*
X61430Y-19720D01*
X61430Y-19670D01*
X61430Y-19570D01*
X61530Y-19570D01*
X61580Y-19570D01*
X62026Y-19570D01*
X62026Y-19225D01*
X61957Y-19050D01*
X62906Y-19050D01*
X62844Y-19200D01*
X62844Y-19413D01*
X62844Y-20039D01*
X62925Y-20236D01*
X62930Y-20241D01*
X62930Y-20350D01*
X62964Y-20523D01*
X63062Y-20668D01*
X63534Y-21140D01*
X63332Y-21140D01*
X63270Y-21202D01*
X63270Y-21590D01*
X63270Y-21640D01*
X63270Y-21740D01*
X63270Y-21790D01*
X63270Y-22178D01*
X63332Y-22240D01*
X63571Y-22239D01*
X63670Y-22239D01*
X63761Y-22201D01*
X63831Y-22131D01*
X63850Y-22085D01*
X63869Y-22131D01*
X63939Y-22201D01*
X64030Y-22239D01*
X64129Y-22239D01*
X64929Y-22239D01*
X65021Y-22201D01*
X65091Y-22131D01*
X65129Y-22040D01*
X66665Y-22040D01*
X68182Y-23557D01*
X68183Y-23557D01*
X68184Y-23558D01*
X69220Y-24594D01*
X69220Y-24760D01*
X69247Y-24894D01*
X69323Y-25007D01*
X69842Y-25527D01*
X69843Y-25527D01*
X69919Y-25578D01*
X69920Y-25579D01*
X69925Y-25591D01*
X70079Y-25745D01*
X70281Y-25829D01*
X70499Y-25829D01*
X70701Y-25745D01*
X70855Y-25591D01*
X70939Y-25389D01*
X70939Y-25431D01*
X70875Y-25585D01*
X70875Y-25754D01*
X70939Y-25910D01*
X70974Y-25945D01*
X70920Y-25968D01*
X70830Y-25931D01*
X70731Y-25931D01*
X69931Y-25931D01*
X69839Y-25969D01*
X69835Y-25973D01*
X69831Y-25969D01*
X69740Y-25931D01*
X69641Y-25931D01*
X69485Y-25931D01*
X69505Y-25902D01*
X69539Y-25730D01*
X69505Y-25557D01*
X69408Y-25411D01*
X69210Y-25213D01*
X69210Y-25190D01*
X69176Y-25018D01*
X69176Y-25017D01*
X69078Y-24872D01*
X68213Y-24007D01*
X68068Y-23909D01*
X68041Y-23903D01*
X68018Y-23880D01*
X67825Y-23800D01*
X67616Y-23800D01*
X67423Y-23880D01*
X67275Y-24027D01*
X67195Y-24220D01*
X67195Y-24429D01*
X67275Y-24622D01*
X67422Y-24770D01*
X67555Y-24825D01*
X67423Y-24880D01*
X67275Y-25027D01*
X67195Y-25220D01*
X67195Y-25429D01*
X67275Y-25622D01*
X67422Y-25770D01*
X67555Y-25825D01*
X67423Y-25880D01*
X67275Y-26027D01*
X67195Y-26220D01*
X67195Y-26429D01*
X67275Y-26622D01*
X67422Y-26770D01*
X67555Y-26825D01*
X67423Y-26880D01*
X67275Y-27027D01*
X67195Y-27220D01*
X67195Y-27429D01*
X67275Y-27622D01*
X67398Y-27746D01*
X67284Y-27861D01*
X67282Y-27863D01*
X66985Y-28160D01*
X66320Y-28160D01*
X65995Y-28160D01*
X65995Y-23045D01*
X65995Y-22876D01*
X65931Y-22720D01*
X65811Y-22600D01*
X65655Y-22535D01*
X65486Y-22535D01*
X65330Y-22599D01*
X65289Y-22640D01*
X65128Y-22640D01*
X65091Y-22549D01*
X65021Y-22479D01*
X64930Y-22441D01*
X64831Y-22441D01*
X64031Y-22441D01*
X63939Y-22479D01*
X63869Y-22549D01*
X63849Y-22594D01*
X63831Y-22549D01*
X63761Y-22479D01*
X63670Y-22441D01*
X63571Y-22441D01*
X63170Y-22441D01*
X63170Y-22178D01*
X63170Y-21740D01*
X63170Y-21640D01*
X63170Y-21202D01*
X63108Y-21140D01*
X62869Y-21141D01*
X62770Y-21141D01*
X62679Y-21179D01*
X62609Y-21249D01*
X62571Y-21341D01*
X62570Y-21578D01*
X62632Y-21640D01*
X63170Y-21640D01*
X63170Y-21740D01*
X62632Y-21740D01*
X62570Y-21802D01*
X62571Y-22039D01*
X62609Y-22131D01*
X62679Y-22201D01*
X62770Y-22239D01*
X62869Y-22239D01*
X63108Y-22240D01*
X63170Y-22178D01*
X63170Y-22441D01*
X62771Y-22441D01*
X62679Y-22479D01*
X62609Y-22549D01*
X62571Y-22640D01*
X62571Y-22739D01*
X62571Y-23339D01*
X62609Y-23431D01*
X62679Y-23501D01*
X62770Y-23539D01*
X62869Y-23539D01*
X63669Y-23539D01*
X63761Y-23501D01*
X63831Y-23431D01*
X63850Y-23385D01*
X63869Y-23431D01*
X63939Y-23501D01*
X64030Y-23539D01*
X64129Y-23539D01*
X64929Y-23539D01*
X65021Y-23501D01*
X65091Y-23431D01*
X65129Y-23340D01*
X65377Y-23340D01*
X65485Y-23385D01*
X65654Y-23385D01*
X65810Y-23321D01*
X65930Y-23201D01*
X65995Y-23045D01*
X65995Y-28160D01*
X65239Y-28160D01*
X65239Y-27399D01*
X65228Y-27195D01*
X65172Y-27058D01*
X65081Y-27035D01*
X64791Y-27325D01*
X65081Y-27615D01*
X65172Y-27592D01*
X65239Y-27399D01*
X65239Y-28160D01*
X65010Y-28160D01*
X65010Y-27686D01*
X64720Y-27396D01*
X64649Y-27467D01*
X64649Y-27325D01*
X64359Y-27035D01*
X64268Y-27058D01*
X64201Y-27251D01*
X64212Y-27455D01*
X64268Y-27592D01*
X64359Y-27615D01*
X64649Y-27325D01*
X64649Y-27467D01*
X64430Y-27686D01*
X64453Y-27777D01*
X64646Y-27844D01*
X64850Y-27833D01*
X64987Y-27777D01*
X65010Y-27686D01*
X65010Y-28160D01*
X63619Y-28160D01*
X63620Y-28082D01*
X63620Y-27858D01*
X63619Y-27621D01*
X63581Y-27529D01*
X63511Y-27459D01*
X63420Y-27421D01*
X63321Y-27421D01*
X63082Y-27420D01*
X63020Y-27482D01*
X63020Y-27920D01*
X63558Y-27920D01*
X63620Y-27858D01*
X63620Y-28082D01*
X63558Y-28020D01*
X63070Y-28020D01*
X63020Y-28020D01*
X62920Y-28020D01*
X62920Y-27920D01*
X62920Y-27870D01*
X62920Y-27482D01*
X62858Y-27420D01*
X62619Y-27421D01*
X62520Y-27421D01*
X62429Y-27459D01*
X62359Y-27529D01*
X62347Y-27555D01*
X62281Y-27489D01*
X62190Y-27451D01*
X62091Y-27451D01*
X61291Y-27451D01*
X61199Y-27489D01*
X61129Y-27559D01*
X61091Y-27650D01*
X61091Y-27749D01*
X61091Y-28349D01*
X61129Y-28441D01*
X61199Y-28511D01*
X61290Y-28549D01*
X61332Y-28549D01*
X61305Y-28615D01*
X61305Y-28784D01*
X61327Y-28840D01*
X61089Y-28840D01*
X61089Y-28270D01*
X61089Y-28171D01*
X61089Y-27571D01*
X61051Y-27479D01*
X60981Y-27409D01*
X60890Y-27371D01*
X60791Y-27371D01*
X59991Y-27371D01*
X59899Y-27409D01*
X59829Y-27479D01*
X59791Y-27570D01*
X59781Y-27570D01*
X59741Y-27530D01*
X59585Y-27465D01*
X59416Y-27465D01*
X59260Y-27529D01*
X59140Y-27649D01*
X59075Y-27805D01*
X59075Y-27974D01*
X59139Y-28130D01*
X59259Y-28250D01*
X59415Y-28315D01*
X59584Y-28315D01*
X59693Y-28270D01*
X59791Y-28270D01*
X59829Y-28361D01*
X59899Y-28431D01*
X59990Y-28469D01*
X60089Y-28469D01*
X60889Y-28469D01*
X60981Y-28431D01*
X61051Y-28361D01*
X61089Y-28270D01*
X61089Y-28840D01*
X60976Y-28840D01*
X60861Y-28725D01*
X60659Y-28641D01*
X60441Y-28641D01*
X60239Y-28725D01*
X60085Y-28879D01*
X60001Y-29081D01*
X60001Y-29299D01*
X60085Y-29501D01*
X60239Y-29655D01*
X60441Y-29739D01*
X60486Y-29739D01*
X60385Y-29840D01*
X59976Y-29840D01*
X59861Y-29725D01*
X59659Y-29641D01*
X59441Y-29641D01*
X59239Y-29725D01*
X59140Y-29824D01*
X59140Y-29690D01*
X59139Y-29689D01*
X59113Y-29556D01*
X59037Y-29443D01*
X59037Y-29442D01*
X58870Y-29275D01*
X58870Y-27254D01*
X59154Y-26970D01*
X59520Y-26970D01*
X59791Y-26970D01*
X59829Y-27061D01*
X59899Y-27131D01*
X59990Y-27169D01*
X60089Y-27169D01*
X60889Y-27169D01*
X60981Y-27131D01*
X61051Y-27061D01*
X61089Y-26970D01*
X61091Y-26970D01*
X61091Y-27049D01*
X61129Y-27141D01*
X61199Y-27211D01*
X61290Y-27249D01*
X61389Y-27249D01*
X62189Y-27249D01*
X62281Y-27211D01*
X62351Y-27141D01*
X62362Y-27114D01*
X62429Y-27181D01*
X62520Y-27219D01*
X62619Y-27219D01*
X63419Y-27219D01*
X63511Y-27181D01*
X63581Y-27111D01*
X63619Y-27020D01*
X63619Y-26921D01*
X63619Y-26321D01*
X63581Y-26229D01*
X63511Y-26159D01*
X63505Y-26156D01*
X63561Y-26101D01*
X63599Y-26010D01*
X63671Y-26010D01*
X63676Y-26013D01*
X63810Y-26039D01*
X63944Y-26013D01*
X64057Y-25937D01*
X64087Y-25908D01*
X64087Y-25907D01*
X64088Y-25905D01*
X64319Y-25675D01*
X64327Y-25675D01*
X64422Y-25770D01*
X64555Y-25825D01*
X64423Y-25880D01*
X64275Y-26027D01*
X64195Y-26220D01*
X64195Y-26429D01*
X64275Y-26622D01*
X64422Y-26770D01*
X64562Y-26828D01*
X64453Y-26873D01*
X64430Y-26964D01*
X64720Y-27254D01*
X65010Y-26964D01*
X64987Y-26873D01*
X64868Y-26831D01*
X65017Y-26770D01*
X65165Y-26623D01*
X65245Y-26430D01*
X65245Y-26221D01*
X65165Y-26028D01*
X65018Y-25880D01*
X64884Y-25824D01*
X65017Y-25770D01*
X65165Y-25623D01*
X65245Y-25430D01*
X65245Y-25221D01*
X65165Y-25028D01*
X65018Y-24880D01*
X64943Y-24849D01*
X65044Y-24849D01*
X65136Y-24811D01*
X65206Y-24741D01*
X65244Y-24650D01*
X65244Y-24551D01*
X65244Y-24001D01*
X65206Y-23909D01*
X65136Y-23839D01*
X65045Y-23801D01*
X64946Y-23801D01*
X64396Y-23801D01*
X64304Y-23839D01*
X64234Y-23909D01*
X64206Y-23975D01*
X63584Y-23975D01*
X63561Y-23919D01*
X63491Y-23849D01*
X63400Y-23811D01*
X63301Y-23811D01*
X62501Y-23811D01*
X62409Y-23849D01*
X62339Y-23919D01*
X62319Y-23964D01*
X62301Y-23919D01*
X62231Y-23849D01*
X62140Y-23811D01*
X62041Y-23811D01*
X62026Y-23811D01*
X62026Y-20015D01*
X62026Y-19670D01*
X61530Y-19670D01*
X61530Y-20398D01*
X61614Y-20445D01*
X61797Y-20372D01*
X61947Y-20216D01*
X62026Y-20015D01*
X62026Y-23811D01*
X61493Y-23811D01*
X61493Y-23119D01*
X61482Y-22906D01*
X61422Y-22759D01*
X61328Y-22732D01*
X61021Y-23040D01*
X61328Y-23348D01*
X61422Y-23321D01*
X61493Y-23119D01*
X61493Y-23811D01*
X61258Y-23811D01*
X61258Y-23418D01*
X60950Y-23111D01*
X60879Y-23181D01*
X60879Y-23040D01*
X60572Y-22732D01*
X60478Y-22759D01*
X60407Y-22961D01*
X60418Y-23174D01*
X60478Y-23321D01*
X60572Y-23348D01*
X60879Y-23040D01*
X60879Y-23181D01*
X60642Y-23418D01*
X60669Y-23512D01*
X60871Y-23583D01*
X61084Y-23572D01*
X61231Y-23512D01*
X61258Y-23418D01*
X61258Y-23811D01*
X61241Y-23811D01*
X61149Y-23849D01*
X61089Y-23908D01*
X61081Y-23889D01*
X61011Y-23819D01*
X60920Y-23781D01*
X60821Y-23781D01*
X60808Y-23781D01*
X60793Y-23706D01*
X60717Y-23593D01*
X60689Y-23574D01*
X60210Y-23095D01*
X60210Y-22420D01*
X60210Y-22390D01*
X60401Y-22390D01*
X60439Y-22481D01*
X60509Y-22551D01*
X60600Y-22589D01*
X60662Y-22589D01*
X60642Y-22662D01*
X60950Y-22969D01*
X61258Y-22662D01*
X61237Y-22589D01*
X61299Y-22589D01*
X61391Y-22551D01*
X61461Y-22481D01*
X61499Y-22390D01*
X61499Y-22291D01*
X61499Y-21691D01*
X61461Y-21599D01*
X61391Y-21529D01*
X61300Y-21491D01*
X61201Y-21491D01*
X60601Y-21491D01*
X60509Y-21529D01*
X60439Y-21599D01*
X60401Y-21690D01*
X60050Y-21690D01*
X59916Y-21717D01*
X59802Y-21793D01*
X59613Y-21983D01*
X59537Y-22096D01*
X59510Y-22230D01*
X59510Y-22420D01*
X59510Y-23240D01*
X59537Y-23374D01*
X59613Y-23487D01*
X59939Y-23814D01*
X59929Y-23819D01*
X59859Y-23889D01*
X59821Y-23980D01*
X59821Y-24079D01*
X59821Y-24679D01*
X59859Y-24771D01*
X59929Y-24841D01*
X60020Y-24879D01*
X60119Y-24879D01*
X60919Y-24879D01*
X61011Y-24841D01*
X61070Y-24781D01*
X61079Y-24801D01*
X61149Y-24871D01*
X61240Y-24909D01*
X61339Y-24909D01*
X62139Y-24909D01*
X62231Y-24871D01*
X62301Y-24801D01*
X62320Y-24755D01*
X62339Y-24801D01*
X62409Y-24871D01*
X62500Y-24909D01*
X62599Y-24909D01*
X63399Y-24909D01*
X63491Y-24871D01*
X63561Y-24801D01*
X63599Y-24710D01*
X63599Y-24675D01*
X64206Y-24675D01*
X64234Y-24741D01*
X64304Y-24811D01*
X64395Y-24849D01*
X64494Y-24849D01*
X64423Y-24880D01*
X64327Y-24975D01*
X64175Y-24975D01*
X64041Y-25002D01*
X63927Y-25078D01*
X63695Y-25310D01*
X63598Y-25310D01*
X63561Y-25219D01*
X63491Y-25149D01*
X63400Y-25111D01*
X63301Y-25111D01*
X62501Y-25111D01*
X62409Y-25149D01*
X62339Y-25219D01*
X62319Y-25264D01*
X62301Y-25219D01*
X62231Y-25149D01*
X62140Y-25111D01*
X62041Y-25111D01*
X61241Y-25111D01*
X61149Y-25149D01*
X61089Y-25208D01*
X61081Y-25189D01*
X61011Y-25119D01*
X60920Y-25081D01*
X60821Y-25081D01*
X60021Y-25081D01*
X59929Y-25119D01*
X59859Y-25189D01*
X59821Y-25280D01*
X59821Y-25379D01*
X59821Y-25979D01*
X59859Y-26071D01*
X59898Y-26110D01*
X59829Y-26179D01*
X59791Y-26270D01*
X59520Y-26270D01*
X59010Y-26270D01*
X58876Y-26297D01*
X58807Y-26342D01*
X58762Y-26373D01*
X58480Y-26655D01*
X58480Y-19740D01*
X58480Y-19322D01*
X58320Y-18936D01*
X58025Y-18640D01*
X57640Y-18480D01*
X57222Y-18480D01*
X56836Y-18640D01*
X56540Y-18935D01*
X56380Y-19320D01*
X56380Y-19738D01*
X56540Y-20124D01*
X56835Y-20420D01*
X57220Y-20580D01*
X57638Y-20580D01*
X58024Y-20420D01*
X58320Y-20125D01*
X58480Y-19740D01*
X58480Y-26655D01*
X58273Y-26863D01*
X58197Y-26976D01*
X58170Y-27110D01*
X58170Y-29420D01*
X58197Y-29554D01*
X58273Y-29667D01*
X58440Y-29834D01*
X58440Y-30380D01*
X58467Y-30514D01*
X58543Y-30627D01*
X59382Y-31467D01*
X59383Y-31467D01*
X59427Y-31497D01*
X59496Y-31543D01*
X59629Y-31569D01*
X59630Y-31570D01*
X61620Y-31570D01*
X61620Y-31569D01*
X61754Y-31543D01*
X61867Y-31467D01*
X61874Y-31460D01*
X62540Y-31460D01*
X66430Y-31460D01*
X67150Y-31460D01*
X67150Y-31459D01*
X67284Y-31433D01*
X67397Y-31357D01*
X67457Y-31298D01*
X67457Y-31297D01*
X67477Y-31266D01*
X67478Y-31265D01*
X67675Y-31069D01*
X68179Y-31069D01*
X68271Y-31031D01*
X68341Y-30961D01*
X68379Y-30870D01*
X68379Y-30771D01*
X68379Y-30171D01*
X68341Y-30079D01*
X68271Y-30009D01*
X68180Y-29971D01*
X68081Y-29971D01*
X67281Y-29971D01*
X67189Y-30009D01*
X67119Y-30079D01*
X67081Y-30170D01*
X67081Y-30269D01*
X67081Y-30674D01*
X66995Y-30760D01*
X66513Y-30760D01*
X66431Y-30760D01*
X66436Y-30755D01*
X66403Y-30722D01*
X66442Y-30711D01*
X66513Y-30509D01*
X66502Y-30296D01*
X66442Y-30149D01*
X66348Y-30122D01*
X66041Y-30430D01*
X65970Y-30501D01*
X65899Y-30430D01*
X65864Y-30395D01*
X65592Y-30122D01*
X65498Y-30149D01*
X65427Y-30351D01*
X65438Y-30564D01*
X65498Y-30711D01*
X65536Y-30722D01*
X65504Y-30755D01*
X65509Y-30760D01*
X63883Y-30760D01*
X63801Y-30760D01*
X63806Y-30755D01*
X63773Y-30722D01*
X63812Y-30711D01*
X63883Y-30509D01*
X63872Y-30296D01*
X63812Y-30149D01*
X63718Y-30122D01*
X63411Y-30430D01*
X63340Y-30501D01*
X63269Y-30430D01*
X63234Y-30395D01*
X62962Y-30122D01*
X62868Y-30149D01*
X62797Y-30351D01*
X62808Y-30564D01*
X62868Y-30711D01*
X62906Y-30722D01*
X62874Y-30755D01*
X62879Y-30760D01*
X62540Y-30760D01*
X61730Y-30760D01*
X61596Y-30787D01*
X61482Y-30863D01*
X61475Y-30870D01*
X59774Y-30870D01*
X59643Y-30739D01*
X59659Y-30739D01*
X59861Y-30655D01*
X59976Y-30540D01*
X60530Y-30540D01*
X60530Y-30539D01*
X60664Y-30513D01*
X60777Y-30437D01*
X61001Y-30213D01*
X61001Y-30299D01*
X61085Y-30501D01*
X61239Y-30655D01*
X61441Y-30739D01*
X61659Y-30739D01*
X61861Y-30655D01*
X62015Y-30501D01*
X62099Y-30299D01*
X62099Y-30081D01*
X62019Y-29890D01*
X62720Y-29890D01*
X62720Y-29889D01*
X62827Y-29868D01*
X62829Y-29871D01*
X62899Y-29941D01*
X62990Y-29979D01*
X63052Y-29979D01*
X63032Y-30052D01*
X63340Y-30359D01*
X63648Y-30052D01*
X63627Y-29979D01*
X63689Y-29979D01*
X63781Y-29941D01*
X63851Y-29871D01*
X63889Y-29780D01*
X63889Y-29681D01*
X63889Y-29081D01*
X63851Y-28989D01*
X63781Y-28919D01*
X63690Y-28881D01*
X63591Y-28881D01*
X62991Y-28881D01*
X62978Y-28886D01*
X63004Y-28860D01*
X66320Y-28860D01*
X67085Y-28860D01*
X67081Y-28870D01*
X66980Y-28870D01*
X66846Y-28897D01*
X66777Y-28942D01*
X66732Y-28973D01*
X66625Y-29080D01*
X66518Y-29080D01*
X66481Y-28989D01*
X66411Y-28919D01*
X66320Y-28881D01*
X66221Y-28881D01*
X65621Y-28881D01*
X65529Y-28919D01*
X65459Y-28989D01*
X65421Y-29080D01*
X65421Y-29179D01*
X65421Y-29779D01*
X65459Y-29871D01*
X65529Y-29941D01*
X65620Y-29979D01*
X65682Y-29979D01*
X65662Y-30052D01*
X65970Y-30359D01*
X66278Y-30052D01*
X66257Y-29979D01*
X66319Y-29979D01*
X66411Y-29941D01*
X66481Y-29871D01*
X66519Y-29780D01*
X66770Y-29780D01*
X66770Y-29779D01*
X66904Y-29753D01*
X67017Y-29677D01*
X67093Y-29600D01*
X67119Y-29661D01*
X67189Y-29731D01*
X67280Y-29769D01*
X67379Y-29769D01*
X68179Y-29769D01*
X68271Y-29731D01*
X68341Y-29661D01*
X68379Y-29570D01*
X68379Y-29560D01*
X68391Y-29560D01*
X68429Y-29651D01*
X68499Y-29721D01*
X68590Y-29759D01*
X68689Y-29759D01*
X69489Y-29759D01*
X69581Y-29721D01*
X69651Y-29651D01*
X69689Y-29560D01*
X69689Y-29461D01*
X69689Y-28861D01*
X69651Y-28769D01*
X69581Y-28699D01*
X69490Y-28661D01*
X69391Y-28661D01*
X68591Y-28661D01*
X68499Y-28699D01*
X68429Y-28769D01*
X68391Y-28860D01*
X68374Y-28860D01*
X68341Y-28779D01*
X68271Y-28709D01*
X68180Y-28671D01*
X68081Y-28671D01*
X67463Y-28671D01*
X67777Y-28358D01*
X67777Y-28357D01*
X67778Y-28355D01*
X68004Y-28130D01*
X68641Y-28130D01*
X68679Y-28221D01*
X68749Y-28291D01*
X68840Y-28329D01*
X68939Y-28329D01*
X69739Y-28329D01*
X69831Y-28291D01*
X69835Y-28287D01*
X69839Y-28291D01*
X69930Y-28329D01*
X69981Y-28329D01*
X69925Y-28465D01*
X69925Y-28634D01*
X69936Y-28661D01*
X69891Y-28661D01*
X69799Y-28699D01*
X69729Y-28769D01*
X69691Y-28860D01*
X69691Y-28959D01*
X69691Y-29559D01*
X69729Y-29651D01*
X69799Y-29721D01*
X69890Y-29759D01*
X69989Y-29759D01*
X70789Y-29759D01*
X70881Y-29721D01*
X70901Y-29701D01*
X70901Y-30019D01*
X70881Y-29999D01*
X70790Y-29961D01*
X70691Y-29961D01*
X70452Y-29960D01*
X70390Y-30022D01*
X70390Y-30410D01*
X70390Y-30460D01*
X70390Y-30560D01*
X70290Y-30560D01*
X70290Y-30460D01*
X70290Y-30022D01*
X70228Y-29960D01*
X69989Y-29961D01*
X69890Y-29961D01*
X69799Y-29999D01*
X69729Y-30069D01*
X69691Y-30161D01*
X69690Y-30398D01*
X69689Y-30161D01*
X69651Y-30069D01*
X69581Y-29999D01*
X69490Y-29961D01*
X69391Y-29961D01*
X69152Y-29960D01*
X69090Y-30022D01*
X69090Y-30460D01*
X69628Y-30460D01*
X69690Y-30398D01*
X69752Y-30460D01*
X70290Y-30460D01*
X70290Y-30560D01*
X70240Y-30560D01*
X69752Y-30560D01*
X69690Y-30622D01*
X69628Y-30560D01*
X69090Y-30560D01*
X69090Y-30998D01*
X69152Y-31060D01*
X69391Y-31059D01*
X69490Y-31059D01*
X69581Y-31021D01*
X69651Y-30951D01*
X69689Y-30859D01*
X69690Y-30622D01*
X69691Y-30859D01*
X69729Y-30951D01*
X69799Y-31021D01*
X69890Y-31059D01*
X69953Y-31059D01*
X69905Y-31175D01*
X69905Y-31344D01*
X69969Y-31500D01*
X70089Y-31620D01*
X70245Y-31685D01*
X70414Y-31685D01*
X70570Y-31621D01*
X70581Y-31610D01*
X71150Y-31610D01*
X71150Y-31609D01*
X71284Y-31583D01*
X71334Y-31549D01*
X71999Y-31549D01*
X72091Y-31511D01*
X72161Y-31441D01*
X72199Y-31350D01*
X72199Y-31251D01*
X72199Y-30651D01*
X72161Y-30559D01*
X72091Y-30489D01*
X72000Y-30451D01*
X71901Y-30451D01*
X71101Y-30451D01*
X71009Y-30489D01*
X70990Y-30508D01*
X70990Y-30410D01*
X70978Y-30410D01*
X70990Y-30398D01*
X70989Y-30191D01*
X71009Y-30211D01*
X71100Y-30249D01*
X71199Y-30249D01*
X71999Y-30249D01*
X72091Y-30211D01*
X72161Y-30141D01*
X72199Y-30050D01*
X72199Y-29951D01*
X72199Y-29351D01*
X72161Y-29259D01*
X72091Y-29189D01*
X72000Y-29151D01*
X72000Y-28920D01*
X71999Y-28919D01*
X71966Y-28748D01*
X71965Y-28747D01*
X71933Y-28699D01*
X71868Y-28602D01*
X71868Y-28601D01*
X71808Y-28542D01*
X71663Y-28444D01*
X71490Y-28410D01*
X71317Y-28444D01*
X71172Y-28542D01*
X71074Y-28687D01*
X71040Y-28860D01*
X71074Y-29033D01*
X71100Y-29071D01*
X71100Y-29151D01*
X71009Y-29189D01*
X70989Y-29209D01*
X70989Y-28861D01*
X70951Y-28769D01*
X70881Y-28699D01*
X70790Y-28661D01*
X70764Y-28661D01*
X70775Y-28635D01*
X70775Y-28466D01*
X70718Y-28329D01*
X70829Y-28329D01*
X70919Y-28291D01*
X70921Y-28291D01*
X71010Y-28329D01*
X71109Y-28329D01*
X71909Y-28329D01*
X72001Y-28291D01*
X72071Y-28221D01*
X72109Y-28130D01*
X72109Y-28126D01*
X72109Y-28125D01*
X72224Y-28103D01*
X72337Y-28027D01*
X72537Y-27828D01*
X72537Y-27827D01*
X72613Y-27714D01*
X72639Y-27581D01*
X72640Y-27580D01*
X72640Y-31758D01*
X72199Y-31758D01*
X68990Y-31756D01*
X68990Y-30998D01*
X68990Y-30560D01*
X68990Y-30460D01*
X68990Y-30022D01*
X68928Y-29960D01*
X68689Y-29961D01*
X68590Y-29961D01*
X68499Y-29999D01*
X68429Y-30069D01*
X68391Y-30161D01*
X68390Y-30398D01*
X68452Y-30460D01*
X68990Y-30460D01*
X68990Y-30560D01*
X68452Y-30560D01*
X68390Y-30622D01*
X68391Y-30859D01*
X68429Y-30951D01*
X68499Y-31021D01*
X68590Y-31059D01*
X68689Y-31059D01*
X68928Y-31060D01*
X68990Y-30998D01*
X68990Y-31756D01*
X56275Y-31750D01*
X56275Y-30604D01*
X56370Y-30834D01*
X56665Y-31130D01*
X57050Y-31290D01*
X57468Y-31290D01*
X57854Y-31130D01*
X58150Y-30835D01*
X58310Y-30450D01*
X58310Y-30032D01*
X58150Y-29646D01*
X57855Y-29350D01*
X57470Y-29190D01*
X57052Y-29190D01*
X56666Y-29350D01*
X56370Y-29645D01*
X56275Y-29873D01*
X56275Y-18650D01*
X56273Y-18643D01*
X56275Y-18636D01*
X56275Y-17865D01*
X60030Y-17865D01*
X59480Y-18415D01*
X59466Y-18415D01*
X59310Y-18479D01*
X59190Y-18599D01*
X59125Y-18755D01*
X59125Y-18924D01*
X59189Y-19080D01*
X59309Y-19200D01*
X59465Y-19265D01*
X59634Y-19265D01*
X59790Y-19201D01*
X59910Y-19081D01*
X59975Y-18925D01*
X59975Y-18909D01*
X60554Y-18330D01*
X68540Y-18330D01*
X68555Y-18330D01*
X68640Y-18414D01*
X68640Y-18929D01*
X68536Y-19033D01*
X68454Y-19230D01*
X68454Y-19443D01*
X68454Y-20069D01*
X68535Y-20266D01*
X68686Y-20417D01*
X68883Y-20499D01*
X69096Y-20499D01*
X69293Y-20418D01*
X69444Y-20267D01*
X69489Y-20156D01*
X69535Y-20266D01*
X69686Y-20417D01*
X69883Y-20499D01*
X70096Y-20499D01*
X70293Y-20418D01*
X70444Y-20267D01*
X70526Y-20070D01*
X70526Y-19857D01*
X70526Y-19231D01*
X70445Y-19034D01*
X70294Y-18883D01*
X70097Y-18801D01*
X69884Y-18801D01*
X69687Y-18882D01*
X69536Y-19033D01*
X69490Y-19143D01*
X69445Y-19034D01*
X69340Y-18929D01*
X69340Y-18270D01*
X69313Y-18136D01*
X69237Y-18023D01*
X69237Y-18022D01*
X69079Y-17865D01*
X72755Y-17865D01*
X72755Y-18639D01*
X72756Y-18644D01*
M02*
