M48
INCH,TZ
T1C0.020
T2C0.032
T3C0.039
T4C0.120
%
G90
G05
T1
X057000Y-027990
X057150Y-024885
X057830Y-028810
X058030Y-037415
X058740Y-024178
X058785Y-018540
X058900Y-042670
X059110Y-038680
X059444Y-020988
X059500Y-027890
X059550Y-018840
X059730Y-036210
X061730Y-028700
X061810Y-039710
X062520Y-036610
X063400Y-036580
X063940Y-038800
X065500Y-036580
X065570Y-022960
X065730Y-040215
X066060Y-043150
X066520Y-027410
X067870Y-043440
X067970Y-045830
X069050Y-031280
X069090Y-025730
X069420Y-044890
X070330Y-031260
X070350Y-028550
X070950Y-043300
X071250Y-042470
X071300Y-025670
X071390Y-039710
X071460Y-037035
X071490Y-028860
T2
X058080Y-042920
X058080Y-043920
X059550Y-030190
X060550Y-029190
X060950Y-022040
X060950Y-023040
X061550Y-030190
X063340Y-029430
X063340Y-030430
X063980Y-039600
X063980Y-040600
X063980Y-041600
X063980Y-042600
X064720Y-024325
X064720Y-025325
X064720Y-026325
X064720Y-027325
X065830Y-044980
X065830Y-045980
X065970Y-029430
X065970Y-030430
X066400Y-037580
X066980Y-039600
X066980Y-040600
X066980Y-041600
X066980Y-042600
X067400Y-037580
X067720Y-024325
X067720Y-025325
X067720Y-026325
X067720Y-027325
X069460Y-021850
X069460Y-022850
X070390Y-024280
X070390Y-025280
T3
X059800Y-034970
X060480Y-019620
X060800Y-034970
X061480Y-019620
X062390Y-034970
X063380Y-019620
X063390Y-034970
X064380Y-019620
X064940Y-034940
X065940Y-034940
X066300Y-019630
X067300Y-019630
X067520Y-034960
X068520Y-034960
X068990Y-019650
X069990Y-019650
T4
X057240Y-034940
X057240Y-045750
X057260Y-030240
X057430Y-019530
X071380Y-034840
X071380Y-045780
X071710Y-019710
T0
M30
