G04 (created by PCBNEW-RS274X (2012-apr-16-27)-stable) date Sat 01 Mar 2014 16:34:46 GMT*
G01*
G70*
G90*
%MOIN*%
G04 Gerber Fmt 3.4, Leading zero omitted, Abs format*
%FSLAX34Y34*%
G04 APERTURE LIST*
%ADD10C,0.006000*%
%ADD11C,0.007500*%
%ADD12C,0.015000*%
%ADD13C,0.005000*%
%ADD14C,0.010000*%
%ADD15C,0.008000*%
%ADD16C,0.003500*%
%ADD17C,0.011300*%
%ADD18C,0.180000*%
%ADD19R,0.080000X0.100000*%
%ADD20R,0.100000X0.080000*%
%ADD21R,0.075000X0.075000*%
%ADD22C,0.075000*%
%ADD23O,0.079300X0.138700*%
%ADD24R,0.080000X0.080000*%
%ADD25C,0.080000*%
G04 APERTURE END LIST*
G54D10*
G54D11*
X57357Y-41514D02*
X57357Y-41285D01*
X57171Y-40856D02*
X57171Y-40799D01*
X57186Y-40771D01*
X57214Y-40742D01*
X57271Y-40728D01*
X57371Y-40728D01*
X57429Y-40742D01*
X57457Y-40771D01*
X57471Y-40799D01*
X57471Y-40856D01*
X57457Y-40885D01*
X57429Y-40914D01*
X57371Y-40928D01*
X57271Y-40928D01*
X57214Y-40914D01*
X57186Y-40885D01*
X57171Y-40856D01*
X57471Y-40600D02*
X57171Y-40600D01*
X57171Y-40485D01*
X57186Y-40457D01*
X57200Y-40442D01*
X57229Y-40428D01*
X57271Y-40428D01*
X57300Y-40442D01*
X57314Y-40457D01*
X57329Y-40485D01*
X57329Y-40600D01*
X57314Y-40300D02*
X57314Y-40200D01*
X57471Y-40157D02*
X57471Y-40300D01*
X57171Y-40300D01*
X57171Y-40157D01*
X57471Y-40029D02*
X57171Y-40029D01*
X57471Y-39857D01*
X57171Y-39857D01*
X57471Y-39486D02*
X57171Y-39486D01*
X57314Y-39486D02*
X57314Y-39314D01*
X57471Y-39314D02*
X57171Y-39314D01*
X57386Y-39186D02*
X57386Y-39043D01*
X57471Y-39214D02*
X57171Y-39114D01*
X57471Y-39014D01*
X57471Y-38743D02*
X57329Y-38843D01*
X57471Y-38915D02*
X57171Y-38915D01*
X57171Y-38800D01*
X57186Y-38772D01*
X57200Y-38757D01*
X57229Y-38743D01*
X57271Y-38743D01*
X57300Y-38757D01*
X57314Y-38772D01*
X57329Y-38800D01*
X57329Y-38915D01*
X57471Y-38615D02*
X57171Y-38615D01*
X57171Y-38543D01*
X57186Y-38500D01*
X57214Y-38472D01*
X57243Y-38457D01*
X57300Y-38443D01*
X57343Y-38443D01*
X57400Y-38457D01*
X57429Y-38472D01*
X57457Y-38500D01*
X57471Y-38543D01*
X57471Y-38615D01*
X57171Y-38343D02*
X57471Y-38272D01*
X57257Y-38215D01*
X57471Y-38157D01*
X57171Y-38086D01*
X57386Y-37986D02*
X57386Y-37843D01*
X57471Y-38014D02*
X57171Y-37914D01*
X57471Y-37814D01*
X57471Y-37543D02*
X57329Y-37643D01*
X57471Y-37715D02*
X57171Y-37715D01*
X57171Y-37600D01*
X57186Y-37572D01*
X57200Y-37557D01*
X57229Y-37543D01*
X57271Y-37543D01*
X57300Y-37557D01*
X57314Y-37572D01*
X57329Y-37600D01*
X57329Y-37715D01*
X57314Y-37415D02*
X57314Y-37315D01*
X57471Y-37272D02*
X57471Y-37415D01*
X57171Y-37415D01*
X57171Y-37272D01*
X57357Y-36915D02*
X57357Y-36686D01*
X57339Y-27164D02*
X57339Y-26935D01*
X57153Y-26506D02*
X57153Y-26449D01*
X57168Y-26421D01*
X57196Y-26392D01*
X57253Y-26378D01*
X57353Y-26378D01*
X57411Y-26392D01*
X57439Y-26421D01*
X57453Y-26449D01*
X57453Y-26506D01*
X57439Y-26535D01*
X57411Y-26564D01*
X57353Y-26578D01*
X57253Y-26578D01*
X57196Y-26564D01*
X57168Y-26535D01*
X57153Y-26506D01*
X57453Y-26250D02*
X57153Y-26250D01*
X57153Y-26135D01*
X57168Y-26107D01*
X57182Y-26092D01*
X57211Y-26078D01*
X57253Y-26078D01*
X57282Y-26092D01*
X57296Y-26107D01*
X57311Y-26135D01*
X57311Y-26250D01*
X57296Y-25950D02*
X57296Y-25850D01*
X57453Y-25807D02*
X57453Y-25950D01*
X57153Y-25950D01*
X57153Y-25807D01*
X57453Y-25679D02*
X57153Y-25679D01*
X57453Y-25507D01*
X57153Y-25507D01*
X57453Y-25136D02*
X57153Y-25136D01*
X57296Y-25136D02*
X57296Y-24964D01*
X57453Y-24964D02*
X57153Y-24964D01*
X57368Y-24836D02*
X57368Y-24693D01*
X57453Y-24864D02*
X57153Y-24764D01*
X57453Y-24664D01*
X57453Y-24393D02*
X57311Y-24493D01*
X57453Y-24565D02*
X57153Y-24565D01*
X57153Y-24450D01*
X57168Y-24422D01*
X57182Y-24407D01*
X57211Y-24393D01*
X57253Y-24393D01*
X57282Y-24407D01*
X57296Y-24422D01*
X57311Y-24450D01*
X57311Y-24565D01*
X57453Y-24265D02*
X57153Y-24265D01*
X57153Y-24193D01*
X57168Y-24150D01*
X57196Y-24122D01*
X57225Y-24107D01*
X57282Y-24093D01*
X57325Y-24093D01*
X57382Y-24107D01*
X57411Y-24122D01*
X57439Y-24150D01*
X57453Y-24193D01*
X57453Y-24265D01*
X57153Y-23993D02*
X57453Y-23922D01*
X57239Y-23865D01*
X57453Y-23807D01*
X57153Y-23736D01*
X57368Y-23636D02*
X57368Y-23493D01*
X57453Y-23664D02*
X57153Y-23564D01*
X57453Y-23464D01*
X57453Y-23193D02*
X57311Y-23293D01*
X57453Y-23365D02*
X57153Y-23365D01*
X57153Y-23250D01*
X57168Y-23222D01*
X57182Y-23207D01*
X57211Y-23193D01*
X57253Y-23193D01*
X57282Y-23207D01*
X57296Y-23222D01*
X57311Y-23250D01*
X57311Y-23365D01*
X57296Y-23065D02*
X57296Y-22965D01*
X57453Y-22922D02*
X57453Y-23065D01*
X57153Y-23065D01*
X57153Y-22922D01*
X57339Y-22565D02*
X57339Y-22336D01*
X56793Y-27695D02*
X56793Y-27838D01*
X56493Y-27838D01*
X56636Y-27595D02*
X56636Y-27495D01*
X56793Y-27452D02*
X56793Y-27595D01*
X56493Y-27595D01*
X56493Y-27452D01*
X56636Y-27324D02*
X56636Y-27224D01*
X56793Y-27181D02*
X56793Y-27324D01*
X56493Y-27324D01*
X56493Y-27181D01*
X56793Y-27053D02*
X56493Y-27053D01*
X56493Y-26981D01*
X56508Y-26938D01*
X56536Y-26910D01*
X56565Y-26895D01*
X56622Y-26881D01*
X56665Y-26881D01*
X56722Y-26895D01*
X56751Y-26910D01*
X56779Y-26938D01*
X56793Y-26981D01*
X56793Y-27053D01*
X56779Y-26767D02*
X56793Y-26724D01*
X56793Y-26653D01*
X56779Y-26624D01*
X56765Y-26610D01*
X56736Y-26595D01*
X56708Y-26595D01*
X56679Y-26610D01*
X56665Y-26624D01*
X56651Y-26653D01*
X56636Y-26710D01*
X56622Y-26738D01*
X56608Y-26753D01*
X56579Y-26767D01*
X56551Y-26767D01*
X56522Y-26753D01*
X56508Y-26738D01*
X56493Y-26710D01*
X56493Y-26638D01*
X56508Y-26595D01*
X56793Y-26238D02*
X56493Y-26238D01*
X56636Y-26238D02*
X56636Y-26066D01*
X56793Y-26066D02*
X56493Y-26066D01*
X56708Y-25938D02*
X56708Y-25795D01*
X56793Y-25966D02*
X56493Y-25866D01*
X56793Y-25766D01*
X56765Y-25495D02*
X56779Y-25509D01*
X56793Y-25552D01*
X56793Y-25581D01*
X56779Y-25624D01*
X56751Y-25652D01*
X56722Y-25667D01*
X56665Y-25681D01*
X56622Y-25681D01*
X56565Y-25667D01*
X56536Y-25652D01*
X56508Y-25624D01*
X56493Y-25581D01*
X56493Y-25552D01*
X56508Y-25509D01*
X56522Y-25495D01*
X56793Y-25367D02*
X56493Y-25367D01*
X56793Y-25195D02*
X56622Y-25324D01*
X56493Y-25195D02*
X56665Y-25367D01*
X56779Y-24852D02*
X56793Y-24809D01*
X56793Y-24738D01*
X56779Y-24709D01*
X56765Y-24695D01*
X56736Y-24680D01*
X56708Y-24680D01*
X56679Y-24695D01*
X56665Y-24709D01*
X56651Y-24738D01*
X56636Y-24795D01*
X56622Y-24823D01*
X56608Y-24838D01*
X56579Y-24852D01*
X56551Y-24852D01*
X56522Y-24838D01*
X56508Y-24823D01*
X56493Y-24795D01*
X56493Y-24723D01*
X56508Y-24680D01*
X56793Y-24552D02*
X56493Y-24552D01*
X56493Y-24437D01*
X56508Y-24409D01*
X56522Y-24394D01*
X56551Y-24380D01*
X56593Y-24380D01*
X56622Y-24394D01*
X56636Y-24409D01*
X56651Y-24437D01*
X56651Y-24552D01*
X56708Y-24266D02*
X56708Y-24123D01*
X56793Y-24294D02*
X56493Y-24194D01*
X56793Y-24094D01*
X56765Y-23823D02*
X56779Y-23837D01*
X56793Y-23880D01*
X56793Y-23909D01*
X56779Y-23952D01*
X56751Y-23980D01*
X56722Y-23995D01*
X56665Y-24009D01*
X56622Y-24009D01*
X56565Y-23995D01*
X56536Y-23980D01*
X56508Y-23952D01*
X56493Y-23909D01*
X56493Y-23880D01*
X56508Y-23837D01*
X56522Y-23823D01*
X56636Y-23695D02*
X56636Y-23595D01*
X56793Y-23552D02*
X56793Y-23695D01*
X56493Y-23695D01*
X56493Y-23552D01*
X56679Y-23195D02*
X56679Y-22966D01*
X56793Y-22595D02*
X56493Y-22595D01*
X56708Y-22495D01*
X56493Y-22395D01*
X56793Y-22395D01*
X56493Y-22294D02*
X56793Y-22194D01*
X56493Y-22094D01*
X56493Y-22023D02*
X56793Y-21952D01*
X56579Y-21895D01*
X56793Y-21837D01*
X56493Y-21766D01*
X56727Y-42061D02*
X56727Y-42204D01*
X56427Y-42204D01*
X56570Y-41961D02*
X56570Y-41861D01*
X56727Y-41818D02*
X56727Y-41961D01*
X56427Y-41961D01*
X56427Y-41818D01*
X56570Y-41690D02*
X56570Y-41590D01*
X56727Y-41547D02*
X56727Y-41690D01*
X56427Y-41690D01*
X56427Y-41547D01*
X56727Y-41419D02*
X56427Y-41419D01*
X56427Y-41347D01*
X56442Y-41304D01*
X56470Y-41276D01*
X56499Y-41261D01*
X56556Y-41247D01*
X56599Y-41247D01*
X56656Y-41261D01*
X56685Y-41276D01*
X56713Y-41304D01*
X56727Y-41347D01*
X56727Y-41419D01*
X56713Y-41133D02*
X56727Y-41090D01*
X56727Y-41019D01*
X56713Y-40990D01*
X56699Y-40976D01*
X56670Y-40961D01*
X56642Y-40961D01*
X56613Y-40976D01*
X56599Y-40990D01*
X56585Y-41019D01*
X56570Y-41076D01*
X56556Y-41104D01*
X56542Y-41119D01*
X56513Y-41133D01*
X56485Y-41133D01*
X56456Y-41119D01*
X56442Y-41104D01*
X56427Y-41076D01*
X56427Y-41004D01*
X56442Y-40961D01*
X56727Y-40604D02*
X56427Y-40604D01*
X56570Y-40604D02*
X56570Y-40432D01*
X56727Y-40432D02*
X56427Y-40432D01*
X56642Y-40304D02*
X56642Y-40161D01*
X56727Y-40332D02*
X56427Y-40232D01*
X56727Y-40132D01*
X56699Y-39861D02*
X56713Y-39875D01*
X56727Y-39918D01*
X56727Y-39947D01*
X56713Y-39990D01*
X56685Y-40018D01*
X56656Y-40033D01*
X56599Y-40047D01*
X56556Y-40047D01*
X56499Y-40033D01*
X56470Y-40018D01*
X56442Y-39990D01*
X56427Y-39947D01*
X56427Y-39918D01*
X56442Y-39875D01*
X56456Y-39861D01*
X56727Y-39733D02*
X56427Y-39733D01*
X56727Y-39561D02*
X56556Y-39690D01*
X56427Y-39561D02*
X56599Y-39733D01*
X56713Y-39218D02*
X56727Y-39175D01*
X56727Y-39104D01*
X56713Y-39075D01*
X56699Y-39061D01*
X56670Y-39046D01*
X56642Y-39046D01*
X56613Y-39061D01*
X56599Y-39075D01*
X56585Y-39104D01*
X56570Y-39161D01*
X56556Y-39189D01*
X56542Y-39204D01*
X56513Y-39218D01*
X56485Y-39218D01*
X56456Y-39204D01*
X56442Y-39189D01*
X56427Y-39161D01*
X56427Y-39089D01*
X56442Y-39046D01*
X56727Y-38918D02*
X56427Y-38918D01*
X56427Y-38803D01*
X56442Y-38775D01*
X56456Y-38760D01*
X56485Y-38746D01*
X56527Y-38746D01*
X56556Y-38760D01*
X56570Y-38775D01*
X56585Y-38803D01*
X56585Y-38918D01*
X56642Y-38632D02*
X56642Y-38489D01*
X56727Y-38660D02*
X56427Y-38560D01*
X56727Y-38460D01*
X56699Y-38189D02*
X56713Y-38203D01*
X56727Y-38246D01*
X56727Y-38275D01*
X56713Y-38318D01*
X56685Y-38346D01*
X56656Y-38361D01*
X56599Y-38375D01*
X56556Y-38375D01*
X56499Y-38361D01*
X56470Y-38346D01*
X56442Y-38318D01*
X56427Y-38275D01*
X56427Y-38246D01*
X56442Y-38203D01*
X56456Y-38189D01*
X56570Y-38061D02*
X56570Y-37961D01*
X56727Y-37918D02*
X56727Y-38061D01*
X56427Y-38061D01*
X56427Y-37918D01*
X56613Y-37561D02*
X56613Y-37332D01*
X56727Y-36961D02*
X56427Y-36961D01*
X56642Y-36861D01*
X56427Y-36761D01*
X56727Y-36761D01*
X56427Y-36660D02*
X56727Y-36560D01*
X56427Y-36460D01*
X56427Y-36389D02*
X56727Y-36318D01*
X56513Y-36261D01*
X56727Y-36203D01*
X56427Y-36132D01*
G54D12*
X58140Y-34940D02*
X58122Y-35114D01*
X58072Y-35282D01*
X57989Y-35438D01*
X57878Y-35574D01*
X57743Y-35686D01*
X57588Y-35769D01*
X57420Y-35821D01*
X57246Y-35839D01*
X57072Y-35824D01*
X56903Y-35774D01*
X56748Y-35693D01*
X56611Y-35583D01*
X56498Y-35448D01*
X56413Y-35294D01*
X56360Y-35127D01*
X56341Y-34952D01*
X56355Y-34778D01*
X56404Y-34609D01*
X56484Y-34453D01*
X56593Y-34315D01*
X56727Y-34201D01*
X56880Y-34116D01*
X57047Y-34061D01*
X57222Y-34041D01*
X57396Y-34054D01*
X57565Y-34101D01*
X57722Y-34181D01*
X57860Y-34289D01*
X57975Y-34422D01*
X58062Y-34574D01*
X58117Y-34741D01*
X58139Y-34915D01*
X58140Y-34940D01*
G54D13*
X68280Y-42230D02*
X68280Y-43130D01*
X68280Y-43130D02*
X68930Y-43130D01*
X69630Y-42230D02*
X70280Y-42230D01*
X70280Y-42230D02*
X70280Y-43130D01*
X70280Y-43130D02*
X69630Y-43130D01*
X68930Y-42230D02*
X68280Y-42230D01*
X62410Y-45240D02*
X63310Y-45240D01*
X63310Y-45240D02*
X63310Y-44590D01*
X62410Y-43890D02*
X62410Y-43240D01*
X62410Y-43240D02*
X63310Y-43240D01*
X63310Y-43240D02*
X63310Y-43890D01*
X62410Y-44590D02*
X62410Y-45240D01*
X61830Y-43240D02*
X60930Y-43240D01*
X60930Y-43240D02*
X60930Y-43890D01*
X61830Y-44590D02*
X61830Y-45240D01*
X61830Y-45240D02*
X60930Y-45240D01*
X60930Y-45240D02*
X60930Y-44590D01*
X61830Y-43890D02*
X61830Y-43240D01*
X70940Y-42090D02*
X71840Y-42090D01*
X71840Y-42090D02*
X71840Y-41440D01*
X70940Y-40740D02*
X70940Y-40090D01*
X70940Y-40090D02*
X71840Y-40090D01*
X71840Y-40090D02*
X71840Y-40740D01*
X70940Y-41440D02*
X70940Y-42090D01*
X61320Y-42350D02*
X62220Y-42350D01*
X62220Y-42350D02*
X62220Y-41700D01*
X61320Y-41000D02*
X61320Y-40350D01*
X61320Y-40350D02*
X62220Y-40350D01*
X62220Y-40350D02*
X62220Y-41000D01*
X61320Y-41700D02*
X61320Y-42350D01*
X60130Y-42350D02*
X61030Y-42350D01*
X61030Y-42350D02*
X61030Y-41700D01*
X60130Y-41000D02*
X60130Y-40350D01*
X60130Y-40350D02*
X61030Y-40350D01*
X61030Y-40350D02*
X61030Y-41000D01*
X60130Y-41700D02*
X60130Y-42350D01*
X70280Y-40970D02*
X70280Y-40070D01*
X70280Y-40070D02*
X69630Y-40070D01*
X68930Y-40970D02*
X68280Y-40970D01*
X68280Y-40970D02*
X68280Y-40070D01*
X68280Y-40070D02*
X68930Y-40070D01*
X69630Y-40970D02*
X70280Y-40970D01*
X68300Y-43530D02*
X68300Y-44430D01*
X68300Y-44430D02*
X68950Y-44430D01*
X69650Y-43530D02*
X70300Y-43530D01*
X70300Y-43530D02*
X70300Y-44430D01*
X70300Y-44430D02*
X69650Y-44430D01*
X68950Y-43530D02*
X68300Y-43530D01*
X65410Y-38000D02*
X65410Y-37100D01*
X65410Y-37100D02*
X64760Y-37100D01*
X64060Y-38000D02*
X63410Y-38000D01*
X63410Y-38000D02*
X63410Y-37100D01*
X63410Y-37100D02*
X64060Y-37100D01*
X64760Y-38000D02*
X65410Y-38000D01*
X70300Y-38630D02*
X70300Y-37730D01*
X70300Y-37730D02*
X69650Y-37730D01*
X68950Y-38630D02*
X68300Y-38630D01*
X68300Y-38630D02*
X68300Y-37730D01*
X68300Y-37730D02*
X68950Y-37730D01*
X69650Y-38630D02*
X70300Y-38630D01*
X68300Y-38990D02*
X68300Y-39890D01*
X68300Y-39890D02*
X68950Y-39890D01*
X69650Y-38990D02*
X70300Y-38990D01*
X70300Y-38990D02*
X70300Y-39890D01*
X70300Y-39890D02*
X69650Y-39890D01*
X68950Y-38990D02*
X68300Y-38990D01*
X59630Y-45220D02*
X60530Y-45220D01*
X60530Y-45220D02*
X60530Y-44570D01*
X59630Y-43870D02*
X59630Y-43220D01*
X59630Y-43220D02*
X60530Y-43220D01*
X60530Y-43220D02*
X60530Y-43870D01*
X59630Y-44570D02*
X59630Y-45220D01*
X68300Y-41130D02*
X68300Y-42030D01*
X68300Y-42030D02*
X68950Y-42030D01*
X69650Y-41130D02*
X70300Y-41130D01*
X70300Y-41130D02*
X70300Y-42030D01*
X70300Y-42030D02*
X69650Y-42030D01*
X68950Y-41130D02*
X68300Y-41130D01*
G54D14*
X65980Y-39100D02*
X65980Y-39600D01*
X65980Y-39600D02*
X64980Y-39600D01*
X64980Y-39600D02*
X64980Y-39100D01*
X66480Y-39100D02*
X66480Y-43100D01*
X66480Y-43100D02*
X64480Y-43100D01*
X64480Y-43100D02*
X64480Y-39100D01*
X64480Y-39100D02*
X66480Y-39100D01*
X66440Y-34440D02*
X64440Y-34440D01*
X66440Y-36190D02*
X64440Y-36190D01*
X64440Y-33690D02*
X66440Y-33690D01*
X64440Y-33690D02*
X64440Y-36190D01*
X66440Y-33690D02*
X66440Y-36190D01*
X69020Y-34460D02*
X67020Y-34460D01*
X69020Y-36210D02*
X67020Y-36210D01*
X67020Y-33710D02*
X69020Y-33710D01*
X67020Y-33710D02*
X67020Y-36210D01*
X69020Y-33710D02*
X69020Y-36210D01*
G54D13*
X59910Y-40360D02*
X59010Y-40360D01*
X59010Y-40360D02*
X59010Y-41010D01*
X59910Y-41710D02*
X59910Y-42360D01*
X59910Y-42360D02*
X59010Y-42360D01*
X59010Y-42360D02*
X59010Y-41710D01*
X59910Y-41010D02*
X59910Y-40360D01*
X60020Y-25980D02*
X60920Y-25980D01*
X60920Y-25980D02*
X60920Y-25330D01*
X60020Y-24630D02*
X60020Y-23980D01*
X60020Y-23980D02*
X60920Y-23980D01*
X60920Y-23980D02*
X60920Y-24630D01*
X60020Y-25330D02*
X60020Y-25980D01*
X71100Y-31350D02*
X72000Y-31350D01*
X72000Y-31350D02*
X72000Y-30700D01*
X71100Y-30000D02*
X71100Y-29350D01*
X71100Y-29350D02*
X72000Y-29350D01*
X72000Y-29350D02*
X72000Y-30000D01*
X71100Y-30700D02*
X71100Y-31350D01*
X62190Y-26350D02*
X61290Y-26350D01*
X61290Y-26350D02*
X61290Y-27000D01*
X62190Y-27700D02*
X62190Y-28350D01*
X62190Y-28350D02*
X61290Y-28350D01*
X61290Y-28350D02*
X61290Y-27700D01*
X62190Y-27000D02*
X62190Y-26350D01*
X68180Y-28870D02*
X67280Y-28870D01*
X67280Y-28870D02*
X67280Y-29520D01*
X68180Y-30220D02*
X68180Y-30870D01*
X68180Y-30870D02*
X67280Y-30870D01*
X67280Y-30870D02*
X67280Y-30220D01*
X68180Y-29520D02*
X68180Y-28870D01*
X69490Y-28860D02*
X68590Y-28860D01*
X68590Y-28860D02*
X68590Y-29510D01*
X69490Y-30210D02*
X69490Y-30860D01*
X69490Y-30860D02*
X68590Y-30860D01*
X68590Y-30860D02*
X68590Y-30210D01*
X69490Y-29510D02*
X69490Y-28860D01*
X70790Y-28860D02*
X69890Y-28860D01*
X69890Y-28860D02*
X69890Y-29510D01*
X70790Y-30210D02*
X70790Y-30860D01*
X70790Y-30860D02*
X69890Y-30860D01*
X69890Y-30860D02*
X69890Y-30210D01*
X70790Y-29510D02*
X70790Y-28860D01*
X70310Y-37520D02*
X70310Y-36620D01*
X70310Y-36620D02*
X69660Y-36620D01*
X68960Y-37520D02*
X68310Y-37520D01*
X68310Y-37520D02*
X68310Y-36620D01*
X68310Y-36620D02*
X68960Y-36620D01*
X69660Y-37520D02*
X70310Y-37520D01*
X60900Y-39010D02*
X61800Y-39010D01*
X61800Y-39010D02*
X61800Y-38360D01*
X60900Y-37660D02*
X60900Y-37010D01*
X60900Y-37010D02*
X61800Y-37010D01*
X61800Y-37010D02*
X61800Y-37660D01*
X60900Y-38360D02*
X60900Y-39010D01*
X60640Y-37020D02*
X59740Y-37020D01*
X59740Y-37020D02*
X59740Y-37670D01*
X60640Y-38370D02*
X60640Y-39020D01*
X60640Y-39020D02*
X59740Y-39020D01*
X59740Y-39020D02*
X59740Y-38370D01*
X60640Y-37670D02*
X60640Y-37020D01*
X59030Y-39260D02*
X59030Y-40160D01*
X59030Y-40160D02*
X59680Y-40160D01*
X60380Y-39260D02*
X61030Y-39260D01*
X61030Y-39260D02*
X61030Y-40160D01*
X61030Y-40160D02*
X60380Y-40160D01*
X59680Y-39260D02*
X59030Y-39260D01*
X62080Y-39020D02*
X62980Y-39020D01*
X62980Y-39020D02*
X62980Y-38370D01*
X62080Y-37670D02*
X62080Y-37020D01*
X62080Y-37020D02*
X62980Y-37020D01*
X62980Y-37020D02*
X62980Y-37670D01*
X62080Y-38370D02*
X62080Y-39020D01*
X62500Y-26010D02*
X63400Y-26010D01*
X63400Y-26010D02*
X63400Y-25360D01*
X62500Y-24660D02*
X62500Y-24010D01*
X62500Y-24010D02*
X63400Y-24010D01*
X63400Y-24010D02*
X63400Y-24660D01*
X62500Y-25360D02*
X62500Y-26010D01*
X68840Y-28130D02*
X69740Y-28130D01*
X69740Y-28130D02*
X69740Y-27480D01*
X68840Y-26780D02*
X68840Y-26130D01*
X68840Y-26130D02*
X69740Y-26130D01*
X69740Y-26130D02*
X69740Y-26780D01*
X68840Y-27480D02*
X68840Y-28130D01*
X71910Y-26130D02*
X71010Y-26130D01*
X71010Y-26130D02*
X71010Y-26780D01*
X71910Y-27480D02*
X71910Y-28130D01*
X71910Y-28130D02*
X71010Y-28130D01*
X71010Y-28130D02*
X71010Y-27480D01*
X71910Y-26780D02*
X71910Y-26130D01*
X64930Y-21340D02*
X64030Y-21340D01*
X64030Y-21340D02*
X64030Y-21990D01*
X64930Y-22690D02*
X64930Y-23340D01*
X64930Y-23340D02*
X64030Y-23340D01*
X64030Y-23340D02*
X64030Y-22690D01*
X64930Y-21990D02*
X64930Y-21340D01*
X62770Y-23340D02*
X63670Y-23340D01*
X63670Y-23340D02*
X63670Y-22690D01*
X62770Y-21990D02*
X62770Y-21340D01*
X62770Y-21340D02*
X63670Y-21340D01*
X63670Y-21340D02*
X63670Y-21990D01*
X62770Y-22690D02*
X62770Y-23340D01*
X63420Y-26320D02*
X62520Y-26320D01*
X62520Y-26320D02*
X62520Y-26970D01*
X63420Y-27670D02*
X63420Y-28320D01*
X63420Y-28320D02*
X62520Y-28320D01*
X62520Y-28320D02*
X62520Y-27670D01*
X63420Y-26970D02*
X63420Y-26320D01*
X59990Y-28270D02*
X60890Y-28270D01*
X60890Y-28270D02*
X60890Y-27620D01*
X59990Y-26920D02*
X59990Y-26270D01*
X59990Y-26270D02*
X60890Y-26270D01*
X60890Y-26270D02*
X60890Y-26920D01*
X59990Y-27620D02*
X59990Y-28270D01*
G54D14*
X61300Y-34470D02*
X59300Y-34470D01*
X61300Y-36220D02*
X59300Y-36220D01*
X59300Y-33720D02*
X61300Y-33720D01*
X59300Y-33720D02*
X59300Y-36220D01*
X61300Y-33720D02*
X61300Y-36220D01*
X63890Y-34470D02*
X61890Y-34470D01*
X63890Y-36220D02*
X61890Y-36220D01*
X61890Y-33720D02*
X63890Y-33720D01*
X61890Y-33720D02*
X61890Y-36220D01*
X63890Y-33720D02*
X63890Y-36220D01*
X64880Y-19120D02*
X62880Y-19120D01*
X64880Y-20870D02*
X62880Y-20870D01*
X62880Y-18370D02*
X64880Y-18370D01*
X62880Y-18370D02*
X62880Y-20870D01*
X64880Y-18370D02*
X64880Y-20870D01*
X70490Y-19150D02*
X68490Y-19150D01*
X70490Y-20900D02*
X68490Y-20900D01*
X68490Y-18400D02*
X70490Y-18400D01*
X68490Y-18400D02*
X68490Y-20900D01*
X70490Y-18400D02*
X70490Y-20900D01*
X61980Y-19120D02*
X59980Y-19120D01*
X61980Y-20870D02*
X59980Y-20870D01*
X59980Y-18370D02*
X61980Y-18370D01*
X59980Y-18370D02*
X59980Y-20870D01*
X61980Y-18370D02*
X61980Y-20870D01*
X66720Y-23825D02*
X66720Y-24325D01*
X66720Y-24325D02*
X65720Y-24325D01*
X65720Y-24325D02*
X65720Y-23825D01*
X67220Y-23825D02*
X67220Y-27825D01*
X67220Y-27825D02*
X65220Y-27825D01*
X65220Y-27825D02*
X65220Y-23825D01*
X65220Y-23825D02*
X67220Y-23825D01*
G54D13*
X71640Y-24780D02*
X71616Y-25022D01*
X71545Y-25256D01*
X71431Y-25471D01*
X71276Y-25660D01*
X71088Y-25816D01*
X70874Y-25932D01*
X70641Y-26004D01*
X70398Y-26029D01*
X70156Y-26007D01*
X69922Y-25938D01*
X69706Y-25825D01*
X69516Y-25673D01*
X69359Y-25486D01*
X69242Y-25272D01*
X69168Y-25039D01*
X69141Y-24797D01*
X69161Y-24555D01*
X69228Y-24320D01*
X69340Y-24103D01*
X69491Y-23912D01*
X69677Y-23754D01*
X69890Y-23635D01*
X70122Y-23560D01*
X70364Y-23531D01*
X70607Y-23549D01*
X70842Y-23615D01*
X71059Y-23725D01*
X71252Y-23875D01*
X71411Y-24060D01*
X71531Y-24272D01*
X71608Y-24504D01*
X71639Y-24746D01*
X71640Y-24780D01*
X67220Y-29930D02*
X67196Y-30172D01*
X67125Y-30406D01*
X67011Y-30621D01*
X66856Y-30810D01*
X66668Y-30966D01*
X66454Y-31082D01*
X66221Y-31154D01*
X65978Y-31179D01*
X65736Y-31157D01*
X65502Y-31088D01*
X65286Y-30975D01*
X65096Y-30823D01*
X64939Y-30636D01*
X64822Y-30422D01*
X64748Y-30189D01*
X64721Y-29947D01*
X64741Y-29705D01*
X64808Y-29470D01*
X64920Y-29253D01*
X65071Y-29062D01*
X65257Y-28904D01*
X65470Y-28785D01*
X65702Y-28710D01*
X65944Y-28681D01*
X66187Y-28699D01*
X66422Y-28765D01*
X66639Y-28875D01*
X66832Y-29025D01*
X66991Y-29210D01*
X67111Y-29422D01*
X67188Y-29654D01*
X67219Y-29896D01*
X67220Y-29930D01*
X64590Y-29930D02*
X64566Y-30172D01*
X64495Y-30406D01*
X64381Y-30621D01*
X64226Y-30810D01*
X64038Y-30966D01*
X63824Y-31082D01*
X63591Y-31154D01*
X63348Y-31179D01*
X63106Y-31157D01*
X62872Y-31088D01*
X62656Y-30975D01*
X62466Y-30823D01*
X62309Y-30636D01*
X62192Y-30422D01*
X62118Y-30189D01*
X62091Y-29947D01*
X62111Y-29705D01*
X62178Y-29470D01*
X62290Y-29253D01*
X62441Y-29062D01*
X62627Y-28904D01*
X62840Y-28785D01*
X63072Y-28710D01*
X63314Y-28681D01*
X63557Y-28699D01*
X63792Y-28765D01*
X64009Y-28875D01*
X64202Y-29025D01*
X64361Y-29210D01*
X64481Y-29422D01*
X64558Y-29654D01*
X64589Y-29896D01*
X64590Y-29930D01*
X70710Y-22350D02*
X70686Y-22592D01*
X70615Y-22826D01*
X70501Y-23041D01*
X70346Y-23230D01*
X70158Y-23386D01*
X69944Y-23502D01*
X69711Y-23574D01*
X69468Y-23599D01*
X69226Y-23577D01*
X68992Y-23508D01*
X68776Y-23395D01*
X68586Y-23243D01*
X68429Y-23056D01*
X68312Y-22842D01*
X68238Y-22609D01*
X68211Y-22367D01*
X68231Y-22125D01*
X68298Y-21890D01*
X68410Y-21673D01*
X68561Y-21482D01*
X68747Y-21324D01*
X68960Y-21205D01*
X69192Y-21130D01*
X69434Y-21101D01*
X69677Y-21119D01*
X69912Y-21185D01*
X70129Y-21295D01*
X70322Y-21445D01*
X70481Y-21630D01*
X70601Y-21842D01*
X70678Y-22074D01*
X70709Y-22316D01*
X70710Y-22350D01*
X62200Y-22540D02*
X62176Y-22782D01*
X62105Y-23016D01*
X61991Y-23231D01*
X61836Y-23420D01*
X61648Y-23576D01*
X61434Y-23692D01*
X61201Y-23764D01*
X60958Y-23789D01*
X60716Y-23767D01*
X60482Y-23698D01*
X60266Y-23585D01*
X60076Y-23433D01*
X59919Y-23246D01*
X59802Y-23032D01*
X59728Y-22799D01*
X59701Y-22557D01*
X59721Y-22315D01*
X59788Y-22080D01*
X59900Y-21863D01*
X60051Y-21672D01*
X60237Y-21514D01*
X60450Y-21395D01*
X60682Y-21320D01*
X60924Y-21291D01*
X61167Y-21309D01*
X61402Y-21375D01*
X61619Y-21485D01*
X61812Y-21635D01*
X61971Y-21820D01*
X62091Y-22032D01*
X62168Y-22264D01*
X62199Y-22506D01*
X62200Y-22540D01*
X68150Y-37580D02*
X68126Y-37822D01*
X68055Y-38056D01*
X67941Y-38271D01*
X67786Y-38460D01*
X67598Y-38616D01*
X67384Y-38732D01*
X67151Y-38804D01*
X66908Y-38829D01*
X66666Y-38807D01*
X66432Y-38738D01*
X66216Y-38625D01*
X66026Y-38473D01*
X65869Y-38286D01*
X65752Y-38072D01*
X65678Y-37839D01*
X65651Y-37597D01*
X65671Y-37355D01*
X65738Y-37120D01*
X65850Y-36903D01*
X66001Y-36712D01*
X66187Y-36554D01*
X66400Y-36435D01*
X66632Y-36360D01*
X66874Y-36331D01*
X67117Y-36349D01*
X67352Y-36415D01*
X67569Y-36525D01*
X67762Y-36675D01*
X67921Y-36860D01*
X68041Y-37072D01*
X68118Y-37304D01*
X68149Y-37546D01*
X68150Y-37580D01*
G54D14*
X67800Y-19130D02*
X65800Y-19130D01*
X67800Y-20880D02*
X65800Y-20880D01*
X65800Y-18380D02*
X67800Y-18380D01*
X65800Y-18380D02*
X65800Y-20880D01*
X67800Y-18380D02*
X67800Y-20880D01*
G54D15*
X61950Y-29840D02*
X61923Y-30111D01*
X61844Y-30373D01*
X61716Y-30614D01*
X61543Y-30826D01*
X61332Y-31000D01*
X61092Y-31130D01*
X60831Y-31211D01*
X60559Y-31239D01*
X60288Y-31215D01*
X60026Y-31138D01*
X59784Y-31011D01*
X59571Y-30840D01*
X59395Y-30630D01*
X59264Y-30391D01*
X59181Y-30131D01*
X59151Y-29859D01*
X59173Y-29588D01*
X59249Y-29325D01*
X59374Y-29082D01*
X59543Y-28868D01*
X59752Y-28691D01*
X59990Y-28558D01*
X60250Y-28473D01*
X60521Y-28441D01*
X60793Y-28462D01*
X61056Y-28535D01*
X61300Y-28658D01*
X61515Y-28827D01*
X61694Y-29033D01*
X61828Y-29271D01*
X61915Y-29530D01*
X61949Y-29801D01*
X61950Y-29840D01*
G54D12*
X72280Y-45780D02*
X72262Y-45954D01*
X72212Y-46122D01*
X72129Y-46278D01*
X72018Y-46414D01*
X71883Y-46526D01*
X71728Y-46609D01*
X71560Y-46661D01*
X71386Y-46679D01*
X71212Y-46664D01*
X71043Y-46614D01*
X70888Y-46533D01*
X70751Y-46423D01*
X70638Y-46288D01*
X70553Y-46134D01*
X70500Y-45967D01*
X70481Y-45792D01*
X70495Y-45618D01*
X70544Y-45449D01*
X70624Y-45293D01*
X70733Y-45155D01*
X70867Y-45041D01*
X71020Y-44956D01*
X71187Y-44901D01*
X71362Y-44881D01*
X71536Y-44894D01*
X71705Y-44941D01*
X71862Y-45021D01*
X72000Y-45129D01*
X72115Y-45262D01*
X72202Y-45414D01*
X72257Y-45581D01*
X72279Y-45755D01*
X72280Y-45780D01*
X72280Y-34840D02*
X72262Y-35014D01*
X72212Y-35182D01*
X72129Y-35338D01*
X72018Y-35474D01*
X71883Y-35586D01*
X71728Y-35669D01*
X71560Y-35721D01*
X71386Y-35739D01*
X71212Y-35724D01*
X71043Y-35674D01*
X70888Y-35593D01*
X70751Y-35483D01*
X70638Y-35348D01*
X70553Y-35194D01*
X70500Y-35027D01*
X70481Y-34852D01*
X70495Y-34678D01*
X70544Y-34509D01*
X70624Y-34353D01*
X70733Y-34215D01*
X70867Y-34101D01*
X71020Y-34016D01*
X71187Y-33961D01*
X71362Y-33941D01*
X71536Y-33954D01*
X71705Y-34001D01*
X71862Y-34081D01*
X72000Y-34189D01*
X72115Y-34322D01*
X72202Y-34474D01*
X72257Y-34641D01*
X72279Y-34815D01*
X72280Y-34840D01*
X58330Y-19530D02*
X58312Y-19704D01*
X58262Y-19872D01*
X58179Y-20028D01*
X58068Y-20164D01*
X57933Y-20276D01*
X57778Y-20359D01*
X57610Y-20411D01*
X57436Y-20429D01*
X57262Y-20414D01*
X57093Y-20364D01*
X56938Y-20283D01*
X56801Y-20173D01*
X56688Y-20038D01*
X56603Y-19884D01*
X56550Y-19717D01*
X56531Y-19542D01*
X56545Y-19368D01*
X56594Y-19199D01*
X56674Y-19043D01*
X56783Y-18905D01*
X56917Y-18791D01*
X57070Y-18706D01*
X57237Y-18651D01*
X57412Y-18631D01*
X57586Y-18644D01*
X57755Y-18691D01*
X57912Y-18771D01*
X58050Y-18879D01*
X58165Y-19012D01*
X58252Y-19164D01*
X58307Y-19331D01*
X58329Y-19505D01*
X58330Y-19530D01*
X58160Y-30240D02*
X58142Y-30414D01*
X58092Y-30582D01*
X58009Y-30738D01*
X57898Y-30874D01*
X57763Y-30986D01*
X57608Y-31069D01*
X57440Y-31121D01*
X57266Y-31139D01*
X57092Y-31124D01*
X56923Y-31074D01*
X56768Y-30993D01*
X56631Y-30883D01*
X56518Y-30748D01*
X56433Y-30594D01*
X56380Y-30427D01*
X56361Y-30252D01*
X56375Y-30078D01*
X56424Y-29909D01*
X56504Y-29753D01*
X56613Y-29615D01*
X56747Y-29501D01*
X56900Y-29416D01*
X57067Y-29361D01*
X57242Y-29341D01*
X57416Y-29354D01*
X57585Y-29401D01*
X57742Y-29481D01*
X57880Y-29589D01*
X57995Y-29722D01*
X58082Y-29874D01*
X58137Y-30041D01*
X58159Y-30215D01*
X58160Y-30240D01*
X72610Y-19710D02*
X72592Y-19884D01*
X72542Y-20052D01*
X72459Y-20208D01*
X72348Y-20344D01*
X72213Y-20456D01*
X72058Y-20539D01*
X71890Y-20591D01*
X71716Y-20609D01*
X71542Y-20594D01*
X71373Y-20544D01*
X71218Y-20463D01*
X71081Y-20353D01*
X70968Y-20218D01*
X70883Y-20064D01*
X70830Y-19897D01*
X70811Y-19722D01*
X70825Y-19548D01*
X70874Y-19379D01*
X70954Y-19223D01*
X71063Y-19085D01*
X71197Y-18971D01*
X71350Y-18886D01*
X71517Y-18831D01*
X71692Y-18811D01*
X71866Y-18824D01*
X72035Y-18871D01*
X72192Y-18951D01*
X72330Y-19059D01*
X72445Y-19192D01*
X72532Y-19344D01*
X72587Y-19511D01*
X72609Y-19685D01*
X72610Y-19710D01*
X58140Y-45750D02*
X58122Y-45924D01*
X58072Y-46092D01*
X57989Y-46248D01*
X57878Y-46384D01*
X57743Y-46496D01*
X57588Y-46579D01*
X57420Y-46631D01*
X57246Y-46649D01*
X57072Y-46634D01*
X56903Y-46584D01*
X56748Y-46503D01*
X56611Y-46393D01*
X56498Y-46258D01*
X56413Y-46104D01*
X56360Y-45937D01*
X56341Y-45762D01*
X56355Y-45588D01*
X56404Y-45419D01*
X56484Y-45263D01*
X56593Y-45125D01*
X56727Y-45011D01*
X56880Y-44926D01*
X57047Y-44871D01*
X57222Y-44851D01*
X57396Y-44864D01*
X57565Y-44911D01*
X57722Y-44991D01*
X57860Y-45099D01*
X57975Y-45232D01*
X58062Y-45384D01*
X58117Y-45551D01*
X58139Y-45725D01*
X58140Y-45750D01*
G54D13*
X61240Y-26010D02*
X62140Y-26010D01*
X62140Y-26010D02*
X62140Y-25360D01*
X61240Y-24660D02*
X61240Y-24010D01*
X61240Y-24010D02*
X62140Y-24010D01*
X62140Y-24010D02*
X62140Y-24660D01*
X61240Y-25360D02*
X61240Y-26010D01*
X70830Y-26130D02*
X69930Y-26130D01*
X69930Y-26130D02*
X69930Y-26780D01*
X70830Y-27480D02*
X70830Y-28130D01*
X70830Y-28130D02*
X69930Y-28130D01*
X69930Y-28130D02*
X69930Y-27480D01*
X70830Y-26780D02*
X70830Y-26130D01*
X67080Y-45480D02*
X67056Y-45722D01*
X66985Y-45956D01*
X66871Y-46171D01*
X66716Y-46360D01*
X66528Y-46516D01*
X66314Y-46632D01*
X66081Y-46704D01*
X65838Y-46729D01*
X65596Y-46707D01*
X65362Y-46638D01*
X65146Y-46525D01*
X64956Y-46373D01*
X64799Y-46186D01*
X64682Y-45972D01*
X64608Y-45739D01*
X64581Y-45497D01*
X64601Y-45255D01*
X64668Y-45020D01*
X64780Y-44803D01*
X64931Y-44612D01*
X65117Y-44454D01*
X65330Y-44335D01*
X65562Y-44260D01*
X65804Y-44231D01*
X66047Y-44249D01*
X66282Y-44315D01*
X66499Y-44425D01*
X66692Y-44575D01*
X66851Y-44760D01*
X66971Y-44972D01*
X67048Y-45204D01*
X67079Y-45446D01*
X67080Y-45480D01*
X59330Y-43420D02*
X59306Y-43662D01*
X59235Y-43896D01*
X59121Y-44111D01*
X58966Y-44300D01*
X58778Y-44456D01*
X58564Y-44572D01*
X58331Y-44644D01*
X58088Y-44669D01*
X57846Y-44647D01*
X57612Y-44578D01*
X57396Y-44465D01*
X57206Y-44313D01*
X57049Y-44126D01*
X56932Y-43912D01*
X56858Y-43679D01*
X56831Y-43437D01*
X56851Y-43195D01*
X56918Y-42960D01*
X57030Y-42743D01*
X57181Y-42552D01*
X57367Y-42394D01*
X57580Y-42275D01*
X57812Y-42200D01*
X58054Y-42171D01*
X58297Y-42189D01*
X58532Y-42255D01*
X58749Y-42365D01*
X58942Y-42515D01*
X59101Y-42700D01*
X59221Y-42912D01*
X59298Y-43144D01*
X59329Y-43386D01*
X59330Y-43420D01*
X70773Y-43066D02*
X70787Y-43080D01*
X70801Y-43123D01*
X70801Y-43152D01*
X70787Y-43195D01*
X70759Y-43223D01*
X70730Y-43238D01*
X70673Y-43252D01*
X70630Y-43252D01*
X70573Y-43238D01*
X70544Y-43223D01*
X70516Y-43195D01*
X70501Y-43152D01*
X70501Y-43123D01*
X70516Y-43080D01*
X70530Y-43066D01*
X70530Y-42952D02*
X70516Y-42938D01*
X70501Y-42909D01*
X70501Y-42838D01*
X70516Y-42809D01*
X70530Y-42795D01*
X70559Y-42780D01*
X70587Y-42780D01*
X70630Y-42795D01*
X70801Y-42966D01*
X70801Y-42780D01*
X70501Y-42594D02*
X70501Y-42566D01*
X70516Y-42537D01*
X70530Y-42523D01*
X70559Y-42509D01*
X70616Y-42494D01*
X70687Y-42494D01*
X70744Y-42509D01*
X70773Y-42523D01*
X70787Y-42537D01*
X70801Y-42566D01*
X70801Y-42594D01*
X70787Y-42623D01*
X70773Y-42637D01*
X70744Y-42652D01*
X70687Y-42666D01*
X70616Y-42666D01*
X70559Y-42652D01*
X70530Y-42637D01*
X70516Y-42623D01*
X70501Y-42594D01*
X70801Y-42208D02*
X70801Y-42380D01*
X70801Y-42294D02*
X70501Y-42294D01*
X70544Y-42323D01*
X70573Y-42351D01*
X70587Y-42380D01*
X62494Y-45741D02*
X62394Y-45599D01*
X62322Y-45741D02*
X62322Y-45441D01*
X62437Y-45441D01*
X62465Y-45456D01*
X62480Y-45470D01*
X62494Y-45499D01*
X62494Y-45541D01*
X62480Y-45570D01*
X62465Y-45584D01*
X62437Y-45599D01*
X62322Y-45599D01*
X62608Y-45470D02*
X62622Y-45456D01*
X62651Y-45441D01*
X62722Y-45441D01*
X62751Y-45456D01*
X62765Y-45470D01*
X62780Y-45499D01*
X62780Y-45527D01*
X62765Y-45570D01*
X62594Y-45741D01*
X62780Y-45741D01*
X63066Y-45741D02*
X62894Y-45741D01*
X62980Y-45741D02*
X62980Y-45441D01*
X62951Y-45484D01*
X62923Y-45513D01*
X62894Y-45527D01*
X63252Y-45441D02*
X63280Y-45441D01*
X63309Y-45456D01*
X63323Y-45470D01*
X63337Y-45499D01*
X63352Y-45556D01*
X63352Y-45627D01*
X63337Y-45684D01*
X63323Y-45713D01*
X63309Y-45727D01*
X63280Y-45741D01*
X63252Y-45741D01*
X63223Y-45727D01*
X63209Y-45713D01*
X63194Y-45684D01*
X63180Y-45627D01*
X63180Y-45556D01*
X63194Y-45499D01*
X63209Y-45470D01*
X63223Y-45456D01*
X63252Y-45441D01*
X61064Y-45731D02*
X60964Y-45589D01*
X60892Y-45731D02*
X60892Y-45431D01*
X61007Y-45431D01*
X61035Y-45446D01*
X61050Y-45460D01*
X61064Y-45489D01*
X61064Y-45531D01*
X61050Y-45560D01*
X61035Y-45574D01*
X61007Y-45589D01*
X60892Y-45589D01*
X61178Y-45460D02*
X61192Y-45446D01*
X61221Y-45431D01*
X61292Y-45431D01*
X61321Y-45446D01*
X61335Y-45460D01*
X61350Y-45489D01*
X61350Y-45517D01*
X61335Y-45560D01*
X61164Y-45731D01*
X61350Y-45731D01*
X61536Y-45431D02*
X61564Y-45431D01*
X61593Y-45446D01*
X61607Y-45460D01*
X61621Y-45489D01*
X61636Y-45546D01*
X61636Y-45617D01*
X61621Y-45674D01*
X61607Y-45703D01*
X61593Y-45717D01*
X61564Y-45731D01*
X61536Y-45731D01*
X61507Y-45717D01*
X61493Y-45703D01*
X61478Y-45674D01*
X61464Y-45617D01*
X61464Y-45546D01*
X61478Y-45489D01*
X61493Y-45460D01*
X61507Y-45446D01*
X61536Y-45431D01*
X61779Y-45731D02*
X61836Y-45731D01*
X61864Y-45717D01*
X61879Y-45703D01*
X61907Y-45660D01*
X61922Y-45603D01*
X61922Y-45489D01*
X61907Y-45460D01*
X61893Y-45446D01*
X61864Y-45431D01*
X61807Y-45431D01*
X61779Y-45446D01*
X61764Y-45460D01*
X61750Y-45489D01*
X61750Y-45560D01*
X61764Y-45589D01*
X61779Y-45603D01*
X61807Y-45617D01*
X61864Y-45617D01*
X61893Y-45603D01*
X61907Y-45589D01*
X61922Y-45560D01*
X72361Y-41496D02*
X72219Y-41596D01*
X72361Y-41668D02*
X72061Y-41668D01*
X72061Y-41553D01*
X72076Y-41525D01*
X72090Y-41510D01*
X72119Y-41496D01*
X72161Y-41496D01*
X72190Y-41510D01*
X72204Y-41525D01*
X72219Y-41553D01*
X72219Y-41668D01*
X72090Y-41382D02*
X72076Y-41368D01*
X72061Y-41339D01*
X72061Y-41268D01*
X72076Y-41239D01*
X72090Y-41225D01*
X72119Y-41210D01*
X72147Y-41210D01*
X72190Y-41225D01*
X72361Y-41396D01*
X72361Y-41210D01*
X72061Y-41024D02*
X72061Y-40996D01*
X72076Y-40967D01*
X72090Y-40953D01*
X72119Y-40939D01*
X72176Y-40924D01*
X72247Y-40924D01*
X72304Y-40939D01*
X72333Y-40953D01*
X72347Y-40967D01*
X72361Y-40996D01*
X72361Y-41024D01*
X72347Y-41053D01*
X72333Y-41067D01*
X72304Y-41082D01*
X72247Y-41096D01*
X72176Y-41096D01*
X72119Y-41082D01*
X72090Y-41067D01*
X72076Y-41053D01*
X72061Y-41024D01*
X72190Y-40753D02*
X72176Y-40781D01*
X72161Y-40796D01*
X72133Y-40810D01*
X72119Y-40810D01*
X72090Y-40796D01*
X72076Y-40781D01*
X72061Y-40753D01*
X72061Y-40696D01*
X72076Y-40667D01*
X72090Y-40653D01*
X72119Y-40638D01*
X72133Y-40638D01*
X72161Y-40653D01*
X72176Y-40667D01*
X72190Y-40696D01*
X72190Y-40753D01*
X72204Y-40781D01*
X72219Y-40796D01*
X72247Y-40810D01*
X72304Y-40810D01*
X72333Y-40796D01*
X72347Y-40781D01*
X72361Y-40753D01*
X72361Y-40696D01*
X72347Y-40667D01*
X72333Y-40653D01*
X72304Y-40638D01*
X72247Y-40638D01*
X72219Y-40653D01*
X72204Y-40667D01*
X72190Y-40696D01*
X58801Y-41676D02*
X58659Y-41776D01*
X58801Y-41848D02*
X58501Y-41848D01*
X58501Y-41733D01*
X58516Y-41705D01*
X58530Y-41690D01*
X58559Y-41676D01*
X58601Y-41676D01*
X58630Y-41690D01*
X58644Y-41705D01*
X58659Y-41733D01*
X58659Y-41848D01*
X58530Y-41562D02*
X58516Y-41548D01*
X58501Y-41519D01*
X58501Y-41448D01*
X58516Y-41419D01*
X58530Y-41405D01*
X58559Y-41390D01*
X58587Y-41390D01*
X58630Y-41405D01*
X58801Y-41576D01*
X58801Y-41390D01*
X58501Y-41204D02*
X58501Y-41176D01*
X58516Y-41147D01*
X58530Y-41133D01*
X58559Y-41119D01*
X58616Y-41104D01*
X58687Y-41104D01*
X58744Y-41119D01*
X58773Y-41133D01*
X58787Y-41147D01*
X58801Y-41176D01*
X58801Y-41204D01*
X58787Y-41233D01*
X58773Y-41247D01*
X58744Y-41262D01*
X58687Y-41276D01*
X58616Y-41276D01*
X58559Y-41262D01*
X58530Y-41247D01*
X58516Y-41233D01*
X58501Y-41204D01*
X58501Y-41004D02*
X58501Y-40804D01*
X58801Y-40933D01*
X58381Y-41661D02*
X58239Y-41761D01*
X58381Y-41833D02*
X58081Y-41833D01*
X58081Y-41718D01*
X58096Y-41690D01*
X58110Y-41675D01*
X58139Y-41661D01*
X58181Y-41661D01*
X58210Y-41675D01*
X58224Y-41690D01*
X58239Y-41718D01*
X58239Y-41833D01*
X58110Y-41547D02*
X58096Y-41533D01*
X58081Y-41504D01*
X58081Y-41433D01*
X58096Y-41404D01*
X58110Y-41390D01*
X58139Y-41375D01*
X58167Y-41375D01*
X58210Y-41390D01*
X58381Y-41561D01*
X58381Y-41375D01*
X58081Y-41189D02*
X58081Y-41161D01*
X58096Y-41132D01*
X58110Y-41118D01*
X58139Y-41104D01*
X58196Y-41089D01*
X58267Y-41089D01*
X58324Y-41104D01*
X58353Y-41118D01*
X58367Y-41132D01*
X58381Y-41161D01*
X58381Y-41189D01*
X58367Y-41218D01*
X58353Y-41232D01*
X58324Y-41247D01*
X58267Y-41261D01*
X58196Y-41261D01*
X58139Y-41247D01*
X58110Y-41232D01*
X58096Y-41218D01*
X58081Y-41189D01*
X58081Y-40832D02*
X58081Y-40889D01*
X58096Y-40918D01*
X58110Y-40932D01*
X58153Y-40961D01*
X58210Y-40975D01*
X58324Y-40975D01*
X58353Y-40961D01*
X58367Y-40946D01*
X58381Y-40918D01*
X58381Y-40861D01*
X58367Y-40832D01*
X58353Y-40818D01*
X58324Y-40803D01*
X58253Y-40803D01*
X58224Y-40818D01*
X58210Y-40832D01*
X58196Y-40861D01*
X58196Y-40918D01*
X58210Y-40946D01*
X58224Y-40961D01*
X58253Y-40975D01*
X70811Y-40796D02*
X70669Y-40896D01*
X70811Y-40968D02*
X70511Y-40968D01*
X70511Y-40853D01*
X70526Y-40825D01*
X70540Y-40810D01*
X70569Y-40796D01*
X70611Y-40796D01*
X70640Y-40810D01*
X70654Y-40825D01*
X70669Y-40853D01*
X70669Y-40968D01*
X70540Y-40682D02*
X70526Y-40668D01*
X70511Y-40639D01*
X70511Y-40568D01*
X70526Y-40539D01*
X70540Y-40525D01*
X70569Y-40510D01*
X70597Y-40510D01*
X70640Y-40525D01*
X70811Y-40696D01*
X70811Y-40510D01*
X70511Y-40324D02*
X70511Y-40296D01*
X70526Y-40267D01*
X70540Y-40253D01*
X70569Y-40239D01*
X70626Y-40224D01*
X70697Y-40224D01*
X70754Y-40239D01*
X70783Y-40253D01*
X70797Y-40267D01*
X70811Y-40296D01*
X70811Y-40324D01*
X70797Y-40353D01*
X70783Y-40367D01*
X70754Y-40382D01*
X70697Y-40396D01*
X70626Y-40396D01*
X70569Y-40382D01*
X70540Y-40367D01*
X70526Y-40353D01*
X70511Y-40324D01*
X70511Y-39953D02*
X70511Y-40096D01*
X70654Y-40110D01*
X70640Y-40096D01*
X70626Y-40067D01*
X70626Y-39996D01*
X70640Y-39967D01*
X70654Y-39953D01*
X70683Y-39938D01*
X70754Y-39938D01*
X70783Y-39953D01*
X70797Y-39967D01*
X70811Y-39996D01*
X70811Y-40067D01*
X70797Y-40096D01*
X70783Y-40110D01*
X70801Y-44306D02*
X70659Y-44406D01*
X70801Y-44478D02*
X70501Y-44478D01*
X70501Y-44363D01*
X70516Y-44335D01*
X70530Y-44320D01*
X70559Y-44306D01*
X70601Y-44306D01*
X70630Y-44320D01*
X70644Y-44335D01*
X70659Y-44363D01*
X70659Y-44478D01*
X70530Y-44192D02*
X70516Y-44178D01*
X70501Y-44149D01*
X70501Y-44078D01*
X70516Y-44049D01*
X70530Y-44035D01*
X70559Y-44020D01*
X70587Y-44020D01*
X70630Y-44035D01*
X70801Y-44206D01*
X70801Y-44020D01*
X70501Y-43834D02*
X70501Y-43806D01*
X70516Y-43777D01*
X70530Y-43763D01*
X70559Y-43749D01*
X70616Y-43734D01*
X70687Y-43734D01*
X70744Y-43749D01*
X70773Y-43763D01*
X70787Y-43777D01*
X70801Y-43806D01*
X70801Y-43834D01*
X70787Y-43863D01*
X70773Y-43877D01*
X70744Y-43892D01*
X70687Y-43906D01*
X70616Y-43906D01*
X70559Y-43892D01*
X70530Y-43877D01*
X70516Y-43863D01*
X70501Y-43834D01*
X70601Y-43477D02*
X70801Y-43477D01*
X70487Y-43548D02*
X70701Y-43620D01*
X70701Y-43434D01*
X64084Y-36931D02*
X63984Y-36789D01*
X63912Y-36931D02*
X63912Y-36631D01*
X64027Y-36631D01*
X64055Y-36646D01*
X64070Y-36660D01*
X64084Y-36689D01*
X64084Y-36731D01*
X64070Y-36760D01*
X64055Y-36774D01*
X64027Y-36789D01*
X63912Y-36789D01*
X64198Y-36660D02*
X64212Y-36646D01*
X64241Y-36631D01*
X64312Y-36631D01*
X64341Y-36646D01*
X64355Y-36660D01*
X64370Y-36689D01*
X64370Y-36717D01*
X64355Y-36760D01*
X64184Y-36931D01*
X64370Y-36931D01*
X64556Y-36631D02*
X64584Y-36631D01*
X64613Y-36646D01*
X64627Y-36660D01*
X64641Y-36689D01*
X64656Y-36746D01*
X64656Y-36817D01*
X64641Y-36874D01*
X64627Y-36903D01*
X64613Y-36917D01*
X64584Y-36931D01*
X64556Y-36931D01*
X64527Y-36917D01*
X64513Y-36903D01*
X64498Y-36874D01*
X64484Y-36817D01*
X64484Y-36746D01*
X64498Y-36689D01*
X64513Y-36660D01*
X64527Y-36646D01*
X64556Y-36631D01*
X64756Y-36631D02*
X64942Y-36631D01*
X64842Y-36746D01*
X64884Y-36746D01*
X64913Y-36760D01*
X64927Y-36774D01*
X64942Y-36803D01*
X64942Y-36874D01*
X64927Y-36903D01*
X64913Y-36917D01*
X64884Y-36931D01*
X64799Y-36931D01*
X64770Y-36917D01*
X64756Y-36903D01*
X70781Y-38476D02*
X70639Y-38576D01*
X70781Y-38648D02*
X70481Y-38648D01*
X70481Y-38533D01*
X70496Y-38505D01*
X70510Y-38490D01*
X70539Y-38476D01*
X70581Y-38476D01*
X70610Y-38490D01*
X70624Y-38505D01*
X70639Y-38533D01*
X70639Y-38648D01*
X70510Y-38362D02*
X70496Y-38348D01*
X70481Y-38319D01*
X70481Y-38248D01*
X70496Y-38219D01*
X70510Y-38205D01*
X70539Y-38190D01*
X70567Y-38190D01*
X70610Y-38205D01*
X70781Y-38376D01*
X70781Y-38190D01*
X70481Y-38004D02*
X70481Y-37976D01*
X70496Y-37947D01*
X70510Y-37933D01*
X70539Y-37919D01*
X70596Y-37904D01*
X70667Y-37904D01*
X70724Y-37919D01*
X70753Y-37933D01*
X70767Y-37947D01*
X70781Y-37976D01*
X70781Y-38004D01*
X70767Y-38033D01*
X70753Y-38047D01*
X70724Y-38062D01*
X70667Y-38076D01*
X70596Y-38076D01*
X70539Y-38062D01*
X70510Y-38047D01*
X70496Y-38033D01*
X70481Y-38004D01*
X70510Y-37790D02*
X70496Y-37776D01*
X70481Y-37747D01*
X70481Y-37676D01*
X70496Y-37647D01*
X70510Y-37633D01*
X70539Y-37618D01*
X70567Y-37618D01*
X70610Y-37633D01*
X70781Y-37804D01*
X70781Y-37618D01*
X70801Y-39646D02*
X70659Y-39746D01*
X70801Y-39818D02*
X70501Y-39818D01*
X70501Y-39703D01*
X70516Y-39675D01*
X70530Y-39660D01*
X70559Y-39646D01*
X70601Y-39646D01*
X70630Y-39660D01*
X70644Y-39675D01*
X70659Y-39703D01*
X70659Y-39818D01*
X70530Y-39532D02*
X70516Y-39518D01*
X70501Y-39489D01*
X70501Y-39418D01*
X70516Y-39389D01*
X70530Y-39375D01*
X70559Y-39360D01*
X70587Y-39360D01*
X70630Y-39375D01*
X70801Y-39546D01*
X70801Y-39360D01*
X70501Y-39174D02*
X70501Y-39146D01*
X70516Y-39117D01*
X70530Y-39103D01*
X70559Y-39089D01*
X70616Y-39074D01*
X70687Y-39074D01*
X70744Y-39089D01*
X70773Y-39103D01*
X70787Y-39117D01*
X70801Y-39146D01*
X70801Y-39174D01*
X70787Y-39203D01*
X70773Y-39217D01*
X70744Y-39232D01*
X70687Y-39246D01*
X70616Y-39246D01*
X70559Y-39232D01*
X70530Y-39217D01*
X70516Y-39203D01*
X70501Y-39174D01*
X70801Y-38788D02*
X70801Y-38960D01*
X70801Y-38874D02*
X70501Y-38874D01*
X70544Y-38903D01*
X70573Y-38931D01*
X70587Y-38960D01*
X59654Y-45723D02*
X59640Y-45737D01*
X59597Y-45751D01*
X59568Y-45751D01*
X59525Y-45737D01*
X59497Y-45709D01*
X59482Y-45680D01*
X59468Y-45623D01*
X59468Y-45580D01*
X59482Y-45523D01*
X59497Y-45494D01*
X59525Y-45466D01*
X59568Y-45451D01*
X59597Y-45451D01*
X59640Y-45466D01*
X59654Y-45480D01*
X59768Y-45480D02*
X59782Y-45466D01*
X59811Y-45451D01*
X59882Y-45451D01*
X59911Y-45466D01*
X59925Y-45480D01*
X59940Y-45509D01*
X59940Y-45537D01*
X59925Y-45580D01*
X59754Y-45751D01*
X59940Y-45751D01*
X60126Y-45451D02*
X60154Y-45451D01*
X60183Y-45466D01*
X60197Y-45480D01*
X60211Y-45509D01*
X60226Y-45566D01*
X60226Y-45637D01*
X60211Y-45694D01*
X60197Y-45723D01*
X60183Y-45737D01*
X60154Y-45751D01*
X60126Y-45751D01*
X60097Y-45737D01*
X60083Y-45723D01*
X60068Y-45694D01*
X60054Y-45637D01*
X60054Y-45566D01*
X60068Y-45509D01*
X60083Y-45480D01*
X60097Y-45466D01*
X60126Y-45451D01*
X60326Y-45451D02*
X60512Y-45451D01*
X60412Y-45566D01*
X60454Y-45566D01*
X60483Y-45580D01*
X60497Y-45594D01*
X60512Y-45623D01*
X60512Y-45694D01*
X60497Y-45723D01*
X60483Y-45737D01*
X60454Y-45751D01*
X60369Y-45751D01*
X60340Y-45737D01*
X60326Y-45723D01*
X70773Y-41936D02*
X70787Y-41950D01*
X70801Y-41993D01*
X70801Y-42022D01*
X70787Y-42065D01*
X70759Y-42093D01*
X70730Y-42108D01*
X70673Y-42122D01*
X70630Y-42122D01*
X70573Y-42108D01*
X70544Y-42093D01*
X70516Y-42065D01*
X70501Y-42022D01*
X70501Y-41993D01*
X70516Y-41950D01*
X70530Y-41936D01*
X70530Y-41822D02*
X70516Y-41808D01*
X70501Y-41779D01*
X70501Y-41708D01*
X70516Y-41679D01*
X70530Y-41665D01*
X70559Y-41650D01*
X70587Y-41650D01*
X70630Y-41665D01*
X70801Y-41836D01*
X70801Y-41650D01*
X70501Y-41464D02*
X70501Y-41436D01*
X70516Y-41407D01*
X70530Y-41393D01*
X70559Y-41379D01*
X70616Y-41364D01*
X70687Y-41364D01*
X70744Y-41379D01*
X70773Y-41393D01*
X70787Y-41407D01*
X70801Y-41436D01*
X70801Y-41464D01*
X70787Y-41493D01*
X70773Y-41507D01*
X70744Y-41522D01*
X70687Y-41536D01*
X70616Y-41536D01*
X70559Y-41522D01*
X70530Y-41507D01*
X70516Y-41493D01*
X70501Y-41464D01*
X70530Y-41250D02*
X70516Y-41236D01*
X70501Y-41207D01*
X70501Y-41136D01*
X70516Y-41107D01*
X70530Y-41093D01*
X70559Y-41078D01*
X70587Y-41078D01*
X70630Y-41093D01*
X70801Y-41264D01*
X70801Y-41078D01*
G54D15*
X64338Y-38392D02*
X64338Y-38797D01*
X64360Y-38845D01*
X64381Y-38869D01*
X64424Y-38892D01*
X64510Y-38892D01*
X64552Y-38869D01*
X64574Y-38845D01*
X64595Y-38797D01*
X64595Y-38392D01*
X64788Y-38440D02*
X64809Y-38416D01*
X64852Y-38392D01*
X64959Y-38392D01*
X65002Y-38416D01*
X65023Y-38440D01*
X65045Y-38488D01*
X65045Y-38535D01*
X65023Y-38607D01*
X64766Y-38892D01*
X65045Y-38892D01*
X65324Y-38392D02*
X65367Y-38392D01*
X65410Y-38416D01*
X65431Y-38440D01*
X65452Y-38488D01*
X65474Y-38583D01*
X65474Y-38702D01*
X65452Y-38797D01*
X65431Y-38845D01*
X65410Y-38869D01*
X65367Y-38892D01*
X65324Y-38892D01*
X65281Y-38869D01*
X65260Y-38845D01*
X65238Y-38797D01*
X65217Y-38702D01*
X65217Y-38583D01*
X65238Y-38488D01*
X65260Y-38440D01*
X65281Y-38416D01*
X65324Y-38392D01*
X65903Y-38892D02*
X65646Y-38892D01*
X65774Y-38892D02*
X65774Y-38392D01*
X65731Y-38464D01*
X65689Y-38511D01*
X65646Y-38535D01*
G54D16*
X64014Y-33602D02*
X64014Y-33202D01*
X64167Y-33202D01*
X64205Y-33221D01*
X64224Y-33240D01*
X64243Y-33278D01*
X64243Y-33335D01*
X64224Y-33373D01*
X64205Y-33392D01*
X64167Y-33411D01*
X64014Y-33411D01*
X64395Y-33240D02*
X64414Y-33221D01*
X64452Y-33202D01*
X64548Y-33202D01*
X64586Y-33221D01*
X64605Y-33240D01*
X64624Y-33278D01*
X64624Y-33316D01*
X64605Y-33373D01*
X64376Y-33602D01*
X64624Y-33602D01*
X64871Y-33202D02*
X64910Y-33202D01*
X64948Y-33221D01*
X64967Y-33240D01*
X64986Y-33278D01*
X65005Y-33354D01*
X65005Y-33450D01*
X64986Y-33526D01*
X64967Y-33564D01*
X64948Y-33583D01*
X64910Y-33602D01*
X64871Y-33602D01*
X64833Y-33583D01*
X64814Y-33564D01*
X64795Y-33526D01*
X64776Y-33450D01*
X64776Y-33354D01*
X64795Y-33278D01*
X64814Y-33240D01*
X64833Y-33221D01*
X64871Y-33202D01*
X65157Y-33240D02*
X65176Y-33221D01*
X65214Y-33202D01*
X65310Y-33202D01*
X65348Y-33221D01*
X65367Y-33240D01*
X65386Y-33278D01*
X65386Y-33316D01*
X65367Y-33373D01*
X65138Y-33602D01*
X65386Y-33602D01*
X66594Y-33622D02*
X66594Y-33222D01*
X66747Y-33222D01*
X66785Y-33241D01*
X66804Y-33260D01*
X66823Y-33298D01*
X66823Y-33355D01*
X66804Y-33393D01*
X66785Y-33412D01*
X66747Y-33431D01*
X66594Y-33431D01*
X66975Y-33260D02*
X66994Y-33241D01*
X67032Y-33222D01*
X67128Y-33222D01*
X67166Y-33241D01*
X67185Y-33260D01*
X67204Y-33298D01*
X67204Y-33336D01*
X67185Y-33393D01*
X66956Y-33622D01*
X67204Y-33622D01*
X67451Y-33222D02*
X67490Y-33222D01*
X67528Y-33241D01*
X67547Y-33260D01*
X67566Y-33298D01*
X67585Y-33374D01*
X67585Y-33470D01*
X67566Y-33546D01*
X67547Y-33584D01*
X67528Y-33603D01*
X67490Y-33622D01*
X67451Y-33622D01*
X67413Y-33603D01*
X67394Y-33584D01*
X67375Y-33546D01*
X67356Y-33470D01*
X67356Y-33374D01*
X67375Y-33298D01*
X67394Y-33260D01*
X67413Y-33241D01*
X67451Y-33222D01*
X67718Y-33222D02*
X67966Y-33222D01*
X67832Y-33374D01*
X67890Y-33374D01*
X67928Y-33393D01*
X67947Y-33412D01*
X67966Y-33450D01*
X67966Y-33546D01*
X67947Y-33584D01*
X67928Y-33603D01*
X67890Y-33622D01*
X67775Y-33622D01*
X67737Y-33603D01*
X67718Y-33584D01*
G54D13*
X57961Y-41661D02*
X57819Y-41761D01*
X57961Y-41833D02*
X57661Y-41833D01*
X57661Y-41718D01*
X57676Y-41690D01*
X57690Y-41675D01*
X57719Y-41661D01*
X57761Y-41661D01*
X57790Y-41675D01*
X57804Y-41690D01*
X57819Y-41718D01*
X57819Y-41833D01*
X57690Y-41547D02*
X57676Y-41533D01*
X57661Y-41504D01*
X57661Y-41433D01*
X57676Y-41404D01*
X57690Y-41390D01*
X57719Y-41375D01*
X57747Y-41375D01*
X57790Y-41390D01*
X57961Y-41561D01*
X57961Y-41375D01*
X57961Y-41089D02*
X57961Y-41261D01*
X57961Y-41175D02*
X57661Y-41175D01*
X57704Y-41204D01*
X57733Y-41232D01*
X57747Y-41261D01*
X57961Y-40803D02*
X57961Y-40975D01*
X57961Y-40889D02*
X57661Y-40889D01*
X57704Y-40918D01*
X57733Y-40946D01*
X57747Y-40975D01*
X58773Y-25372D02*
X58631Y-25472D01*
X58773Y-25544D02*
X58473Y-25544D01*
X58473Y-25429D01*
X58488Y-25401D01*
X58502Y-25386D01*
X58531Y-25372D01*
X58573Y-25372D01*
X58602Y-25386D01*
X58616Y-25401D01*
X58631Y-25429D01*
X58631Y-25544D01*
X58473Y-25272D02*
X58473Y-25086D01*
X58588Y-25186D01*
X58588Y-25144D01*
X58602Y-25115D01*
X58616Y-25101D01*
X58645Y-25086D01*
X58716Y-25086D01*
X58745Y-25101D01*
X58759Y-25115D01*
X58773Y-25144D01*
X58773Y-25229D01*
X58759Y-25258D01*
X58745Y-25272D01*
X58473Y-24900D02*
X58473Y-24872D01*
X58488Y-24843D01*
X58502Y-24829D01*
X58531Y-24815D01*
X58588Y-24800D01*
X58659Y-24800D01*
X58716Y-24815D01*
X58745Y-24829D01*
X58759Y-24843D01*
X58773Y-24872D01*
X58773Y-24900D01*
X58759Y-24929D01*
X58745Y-24943D01*
X58716Y-24958D01*
X58659Y-24972D01*
X58588Y-24972D01*
X58531Y-24958D01*
X58502Y-24943D01*
X58488Y-24929D01*
X58473Y-24900D01*
X58473Y-24543D02*
X58473Y-24600D01*
X58488Y-24629D01*
X58502Y-24643D01*
X58545Y-24672D01*
X58602Y-24686D01*
X58716Y-24686D01*
X58745Y-24672D01*
X58759Y-24657D01*
X58773Y-24629D01*
X58773Y-24572D01*
X58759Y-24543D01*
X58745Y-24529D01*
X58716Y-24514D01*
X58645Y-24514D01*
X58616Y-24529D01*
X58602Y-24543D01*
X58588Y-24572D01*
X58588Y-24629D01*
X58602Y-24657D01*
X58616Y-24672D01*
X58645Y-24686D01*
X71224Y-29181D02*
X71124Y-29039D01*
X71052Y-29181D02*
X71052Y-28881D01*
X71167Y-28881D01*
X71195Y-28896D01*
X71210Y-28910D01*
X71224Y-28939D01*
X71224Y-28981D01*
X71210Y-29010D01*
X71195Y-29024D01*
X71167Y-29039D01*
X71052Y-29039D01*
X71324Y-28881D02*
X71510Y-28881D01*
X71410Y-28996D01*
X71452Y-28996D01*
X71481Y-29010D01*
X71495Y-29024D01*
X71510Y-29053D01*
X71510Y-29124D01*
X71495Y-29153D01*
X71481Y-29167D01*
X71452Y-29181D01*
X71367Y-29181D01*
X71338Y-29167D01*
X71324Y-29153D01*
X71696Y-28881D02*
X71724Y-28881D01*
X71753Y-28896D01*
X71767Y-28910D01*
X71781Y-28939D01*
X71796Y-28996D01*
X71796Y-29067D01*
X71781Y-29124D01*
X71767Y-29153D01*
X71753Y-29167D01*
X71724Y-29181D01*
X71696Y-29181D01*
X71667Y-29167D01*
X71653Y-29153D01*
X71638Y-29124D01*
X71624Y-29067D01*
X71624Y-28996D01*
X71638Y-28939D01*
X71653Y-28910D01*
X71667Y-28896D01*
X71696Y-28881D01*
X72067Y-28881D02*
X71924Y-28881D01*
X71910Y-29024D01*
X71924Y-29010D01*
X71953Y-28996D01*
X72024Y-28996D01*
X72053Y-29010D01*
X72067Y-29024D01*
X72082Y-29053D01*
X72082Y-29124D01*
X72067Y-29153D01*
X72053Y-29167D01*
X72024Y-29181D01*
X71953Y-29181D01*
X71924Y-29167D01*
X71910Y-29153D01*
X59257Y-27484D02*
X59115Y-27584D01*
X59257Y-27656D02*
X58957Y-27656D01*
X58957Y-27541D01*
X58972Y-27513D01*
X58986Y-27498D01*
X59015Y-27484D01*
X59057Y-27484D01*
X59086Y-27498D01*
X59100Y-27513D01*
X59115Y-27541D01*
X59115Y-27656D01*
X58957Y-27384D02*
X58957Y-27198D01*
X59072Y-27298D01*
X59072Y-27256D01*
X59086Y-27227D01*
X59100Y-27213D01*
X59129Y-27198D01*
X59200Y-27198D01*
X59229Y-27213D01*
X59243Y-27227D01*
X59257Y-27256D01*
X59257Y-27341D01*
X59243Y-27370D01*
X59229Y-27384D01*
X58957Y-27012D02*
X58957Y-26984D01*
X58972Y-26955D01*
X58986Y-26941D01*
X59015Y-26927D01*
X59072Y-26912D01*
X59143Y-26912D01*
X59200Y-26927D01*
X59229Y-26941D01*
X59243Y-26955D01*
X59257Y-26984D01*
X59257Y-27012D01*
X59243Y-27041D01*
X59229Y-27055D01*
X59200Y-27070D01*
X59143Y-27084D01*
X59072Y-27084D01*
X59015Y-27070D01*
X58986Y-27055D01*
X58972Y-27041D01*
X58957Y-27012D01*
X59057Y-26655D02*
X59257Y-26655D01*
X58943Y-26726D02*
X59157Y-26798D01*
X59157Y-26612D01*
X67334Y-28681D02*
X67234Y-28539D01*
X67162Y-28681D02*
X67162Y-28381D01*
X67277Y-28381D01*
X67305Y-28396D01*
X67320Y-28410D01*
X67334Y-28439D01*
X67334Y-28481D01*
X67320Y-28510D01*
X67305Y-28524D01*
X67277Y-28539D01*
X67162Y-28539D01*
X67434Y-28381D02*
X67620Y-28381D01*
X67520Y-28496D01*
X67562Y-28496D01*
X67591Y-28510D01*
X67605Y-28524D01*
X67620Y-28553D01*
X67620Y-28624D01*
X67605Y-28653D01*
X67591Y-28667D01*
X67562Y-28681D01*
X67477Y-28681D01*
X67448Y-28667D01*
X67434Y-28653D01*
X67806Y-28381D02*
X67834Y-28381D01*
X67863Y-28396D01*
X67877Y-28410D01*
X67891Y-28439D01*
X67906Y-28496D01*
X67906Y-28567D01*
X67891Y-28624D01*
X67877Y-28653D01*
X67863Y-28667D01*
X67834Y-28681D01*
X67806Y-28681D01*
X67777Y-28667D01*
X67763Y-28653D01*
X67748Y-28624D01*
X67734Y-28567D01*
X67734Y-28496D01*
X67748Y-28439D01*
X67763Y-28410D01*
X67777Y-28396D01*
X67806Y-28381D01*
X68006Y-28381D02*
X68192Y-28381D01*
X68092Y-28496D01*
X68134Y-28496D01*
X68163Y-28510D01*
X68177Y-28524D01*
X68192Y-28553D01*
X68192Y-28624D01*
X68177Y-28653D01*
X68163Y-28667D01*
X68134Y-28681D01*
X68049Y-28681D01*
X68020Y-28667D01*
X68006Y-28653D01*
X68614Y-28681D02*
X68514Y-28539D01*
X68442Y-28681D02*
X68442Y-28381D01*
X68557Y-28381D01*
X68585Y-28396D01*
X68600Y-28410D01*
X68614Y-28439D01*
X68614Y-28481D01*
X68600Y-28510D01*
X68585Y-28524D01*
X68557Y-28539D01*
X68442Y-28539D01*
X68714Y-28381D02*
X68900Y-28381D01*
X68800Y-28496D01*
X68842Y-28496D01*
X68871Y-28510D01*
X68885Y-28524D01*
X68900Y-28553D01*
X68900Y-28624D01*
X68885Y-28653D01*
X68871Y-28667D01*
X68842Y-28681D01*
X68757Y-28681D01*
X68728Y-28667D01*
X68714Y-28653D01*
X69086Y-28381D02*
X69114Y-28381D01*
X69143Y-28396D01*
X69157Y-28410D01*
X69171Y-28439D01*
X69186Y-28496D01*
X69186Y-28567D01*
X69171Y-28624D01*
X69157Y-28653D01*
X69143Y-28667D01*
X69114Y-28681D01*
X69086Y-28681D01*
X69057Y-28667D01*
X69043Y-28653D01*
X69028Y-28624D01*
X69014Y-28567D01*
X69014Y-28496D01*
X69028Y-28439D01*
X69043Y-28410D01*
X69057Y-28396D01*
X69086Y-28381D01*
X69300Y-28410D02*
X69314Y-28396D01*
X69343Y-28381D01*
X69414Y-28381D01*
X69443Y-28396D01*
X69457Y-28410D01*
X69472Y-28439D01*
X69472Y-28467D01*
X69457Y-28510D01*
X69286Y-28681D01*
X69472Y-28681D01*
X69994Y-28701D02*
X69894Y-28559D01*
X69822Y-28701D02*
X69822Y-28401D01*
X69937Y-28401D01*
X69965Y-28416D01*
X69980Y-28430D01*
X69994Y-28459D01*
X69994Y-28501D01*
X69980Y-28530D01*
X69965Y-28544D01*
X69937Y-28559D01*
X69822Y-28559D01*
X70094Y-28401D02*
X70280Y-28401D01*
X70180Y-28516D01*
X70222Y-28516D01*
X70251Y-28530D01*
X70265Y-28544D01*
X70280Y-28573D01*
X70280Y-28644D01*
X70265Y-28673D01*
X70251Y-28687D01*
X70222Y-28701D01*
X70137Y-28701D01*
X70108Y-28687D01*
X70094Y-28673D01*
X70466Y-28401D02*
X70494Y-28401D01*
X70523Y-28416D01*
X70537Y-28430D01*
X70551Y-28459D01*
X70566Y-28516D01*
X70566Y-28587D01*
X70551Y-28644D01*
X70537Y-28673D01*
X70523Y-28687D01*
X70494Y-28701D01*
X70466Y-28701D01*
X70437Y-28687D01*
X70423Y-28673D01*
X70408Y-28644D01*
X70394Y-28587D01*
X70394Y-28516D01*
X70408Y-28459D01*
X70423Y-28430D01*
X70437Y-28416D01*
X70466Y-28401D01*
X70852Y-28701D02*
X70680Y-28701D01*
X70766Y-28701D02*
X70766Y-28401D01*
X70737Y-28444D01*
X70709Y-28473D01*
X70680Y-28487D01*
X70771Y-37366D02*
X70629Y-37466D01*
X70771Y-37538D02*
X70471Y-37538D01*
X70471Y-37423D01*
X70486Y-37395D01*
X70500Y-37380D01*
X70529Y-37366D01*
X70571Y-37366D01*
X70600Y-37380D01*
X70614Y-37395D01*
X70629Y-37423D01*
X70629Y-37538D01*
X70500Y-37252D02*
X70486Y-37238D01*
X70471Y-37209D01*
X70471Y-37138D01*
X70486Y-37109D01*
X70500Y-37095D01*
X70529Y-37080D01*
X70557Y-37080D01*
X70600Y-37095D01*
X70771Y-37266D01*
X70771Y-37080D01*
X70771Y-36794D02*
X70771Y-36966D01*
X70771Y-36880D02*
X70471Y-36880D01*
X70514Y-36909D01*
X70543Y-36937D01*
X70557Y-36966D01*
X70471Y-36537D02*
X70471Y-36594D01*
X70486Y-36623D01*
X70500Y-36637D01*
X70543Y-36666D01*
X70600Y-36680D01*
X70714Y-36680D01*
X70743Y-36666D01*
X70757Y-36651D01*
X70771Y-36623D01*
X70771Y-36566D01*
X70757Y-36537D01*
X70743Y-36523D01*
X70714Y-36508D01*
X70643Y-36508D01*
X70614Y-36523D01*
X70600Y-36537D01*
X70586Y-36566D01*
X70586Y-36623D01*
X70600Y-36651D01*
X70614Y-36666D01*
X70643Y-36680D01*
X59011Y-38271D02*
X58869Y-38371D01*
X59011Y-38443D02*
X58711Y-38443D01*
X58711Y-38328D01*
X58726Y-38300D01*
X58740Y-38285D01*
X58769Y-38271D01*
X58811Y-38271D01*
X58840Y-38285D01*
X58854Y-38300D01*
X58869Y-38328D01*
X58869Y-38443D01*
X58740Y-38157D02*
X58726Y-38143D01*
X58711Y-38114D01*
X58711Y-38043D01*
X58726Y-38014D01*
X58740Y-38000D01*
X58769Y-37985D01*
X58797Y-37985D01*
X58840Y-38000D01*
X59011Y-38171D01*
X59011Y-37985D01*
X59011Y-37699D02*
X59011Y-37871D01*
X59011Y-37785D02*
X58711Y-37785D01*
X58754Y-37814D01*
X58783Y-37842D01*
X58797Y-37871D01*
X58711Y-37428D02*
X58711Y-37571D01*
X58854Y-37585D01*
X58840Y-37571D01*
X58826Y-37542D01*
X58826Y-37471D01*
X58840Y-37442D01*
X58854Y-37428D01*
X58883Y-37413D01*
X58954Y-37413D01*
X58983Y-37428D01*
X58997Y-37442D01*
X59011Y-37471D01*
X59011Y-37542D01*
X58997Y-37571D01*
X58983Y-37585D01*
X58531Y-38256D02*
X58389Y-38356D01*
X58531Y-38428D02*
X58231Y-38428D01*
X58231Y-38313D01*
X58246Y-38285D01*
X58260Y-38270D01*
X58289Y-38256D01*
X58331Y-38256D01*
X58360Y-38270D01*
X58374Y-38285D01*
X58389Y-38313D01*
X58389Y-38428D01*
X58260Y-38142D02*
X58246Y-38128D01*
X58231Y-38099D01*
X58231Y-38028D01*
X58246Y-37999D01*
X58260Y-37985D01*
X58289Y-37970D01*
X58317Y-37970D01*
X58360Y-37985D01*
X58531Y-38156D01*
X58531Y-37970D01*
X58531Y-37684D02*
X58531Y-37856D01*
X58531Y-37770D02*
X58231Y-37770D01*
X58274Y-37799D01*
X58303Y-37827D01*
X58317Y-37856D01*
X58331Y-37427D02*
X58531Y-37427D01*
X58217Y-37498D02*
X58431Y-37570D01*
X58431Y-37384D01*
X58761Y-40046D02*
X58619Y-40146D01*
X58761Y-40218D02*
X58461Y-40218D01*
X58461Y-40103D01*
X58476Y-40075D01*
X58490Y-40060D01*
X58519Y-40046D01*
X58561Y-40046D01*
X58590Y-40060D01*
X58604Y-40075D01*
X58619Y-40103D01*
X58619Y-40218D01*
X58490Y-39932D02*
X58476Y-39918D01*
X58461Y-39889D01*
X58461Y-39818D01*
X58476Y-39789D01*
X58490Y-39775D01*
X58519Y-39760D01*
X58547Y-39760D01*
X58590Y-39775D01*
X58761Y-39946D01*
X58761Y-39760D01*
X58761Y-39474D02*
X58761Y-39646D01*
X58761Y-39560D02*
X58461Y-39560D01*
X58504Y-39589D01*
X58533Y-39617D01*
X58547Y-39646D01*
X58461Y-39374D02*
X58461Y-39188D01*
X58576Y-39288D01*
X58576Y-39246D01*
X58590Y-39217D01*
X58604Y-39203D01*
X58633Y-39188D01*
X58704Y-39188D01*
X58733Y-39203D01*
X58747Y-39217D01*
X58761Y-39246D01*
X58761Y-39331D01*
X58747Y-39360D01*
X58733Y-39374D01*
X59476Y-38271D02*
X59334Y-38371D01*
X59476Y-38443D02*
X59176Y-38443D01*
X59176Y-38328D01*
X59191Y-38300D01*
X59205Y-38285D01*
X59234Y-38271D01*
X59276Y-38271D01*
X59305Y-38285D01*
X59319Y-38300D01*
X59334Y-38328D01*
X59334Y-38443D01*
X59205Y-38157D02*
X59191Y-38143D01*
X59176Y-38114D01*
X59176Y-38043D01*
X59191Y-38014D01*
X59205Y-38000D01*
X59234Y-37985D01*
X59262Y-37985D01*
X59305Y-38000D01*
X59476Y-38171D01*
X59476Y-37985D01*
X59476Y-37699D02*
X59476Y-37871D01*
X59476Y-37785D02*
X59176Y-37785D01*
X59219Y-37814D01*
X59248Y-37842D01*
X59262Y-37871D01*
X59205Y-37585D02*
X59191Y-37571D01*
X59176Y-37542D01*
X59176Y-37471D01*
X59191Y-37442D01*
X59205Y-37428D01*
X59234Y-37413D01*
X59262Y-37413D01*
X59305Y-37428D01*
X59476Y-37599D01*
X59476Y-37413D01*
X59653Y-25372D02*
X59511Y-25472D01*
X59653Y-25544D02*
X59353Y-25544D01*
X59353Y-25429D01*
X59368Y-25401D01*
X59382Y-25386D01*
X59411Y-25372D01*
X59453Y-25372D01*
X59482Y-25386D01*
X59496Y-25401D01*
X59511Y-25429D01*
X59511Y-25544D01*
X59353Y-25272D02*
X59353Y-25086D01*
X59468Y-25186D01*
X59468Y-25144D01*
X59482Y-25115D01*
X59496Y-25101D01*
X59525Y-25086D01*
X59596Y-25086D01*
X59625Y-25101D01*
X59639Y-25115D01*
X59653Y-25144D01*
X59653Y-25229D01*
X59639Y-25258D01*
X59625Y-25272D01*
X59353Y-24900D02*
X59353Y-24872D01*
X59368Y-24843D01*
X59382Y-24829D01*
X59411Y-24815D01*
X59468Y-24800D01*
X59539Y-24800D01*
X59596Y-24815D01*
X59625Y-24829D01*
X59639Y-24843D01*
X59653Y-24872D01*
X59653Y-24900D01*
X59639Y-24929D01*
X59625Y-24943D01*
X59596Y-24958D01*
X59539Y-24972D01*
X59468Y-24972D01*
X59411Y-24958D01*
X59382Y-24943D01*
X59368Y-24929D01*
X59353Y-24900D01*
X59353Y-24700D02*
X59353Y-24500D01*
X59653Y-24629D01*
X68661Y-27446D02*
X68519Y-27546D01*
X68661Y-27618D02*
X68361Y-27618D01*
X68361Y-27503D01*
X68376Y-27475D01*
X68390Y-27460D01*
X68419Y-27446D01*
X68461Y-27446D01*
X68490Y-27460D01*
X68504Y-27475D01*
X68519Y-27503D01*
X68519Y-27618D01*
X68361Y-27346D02*
X68361Y-27160D01*
X68476Y-27260D01*
X68476Y-27218D01*
X68490Y-27189D01*
X68504Y-27175D01*
X68533Y-27160D01*
X68604Y-27160D01*
X68633Y-27175D01*
X68647Y-27189D01*
X68661Y-27218D01*
X68661Y-27303D01*
X68647Y-27332D01*
X68633Y-27346D01*
X68361Y-26974D02*
X68361Y-26946D01*
X68376Y-26917D01*
X68390Y-26903D01*
X68419Y-26889D01*
X68476Y-26874D01*
X68547Y-26874D01*
X68604Y-26889D01*
X68633Y-26903D01*
X68647Y-26917D01*
X68661Y-26946D01*
X68661Y-26974D01*
X68647Y-27003D01*
X68633Y-27017D01*
X68604Y-27032D01*
X68547Y-27046D01*
X68476Y-27046D01*
X68419Y-27032D01*
X68390Y-27017D01*
X68376Y-27003D01*
X68361Y-26974D01*
X68490Y-26703D02*
X68476Y-26731D01*
X68461Y-26746D01*
X68433Y-26760D01*
X68419Y-26760D01*
X68390Y-26746D01*
X68376Y-26731D01*
X68361Y-26703D01*
X68361Y-26646D01*
X68376Y-26617D01*
X68390Y-26603D01*
X68419Y-26588D01*
X68433Y-26588D01*
X68461Y-26603D01*
X68476Y-26617D01*
X68490Y-26646D01*
X68490Y-26703D01*
X68504Y-26731D01*
X68519Y-26746D01*
X68547Y-26760D01*
X68604Y-26760D01*
X68633Y-26746D01*
X68647Y-26731D01*
X68661Y-26703D01*
X68661Y-26646D01*
X68647Y-26617D01*
X68633Y-26603D01*
X68604Y-26588D01*
X68547Y-26588D01*
X68519Y-26603D01*
X68504Y-26617D01*
X68490Y-26646D01*
X72741Y-27596D02*
X72599Y-27696D01*
X72741Y-27768D02*
X72441Y-27768D01*
X72441Y-27653D01*
X72456Y-27625D01*
X72470Y-27610D01*
X72499Y-27596D01*
X72541Y-27596D01*
X72570Y-27610D01*
X72584Y-27625D01*
X72599Y-27653D01*
X72599Y-27768D01*
X72441Y-27496D02*
X72441Y-27310D01*
X72556Y-27410D01*
X72556Y-27368D01*
X72570Y-27339D01*
X72584Y-27325D01*
X72613Y-27310D01*
X72684Y-27310D01*
X72713Y-27325D01*
X72727Y-27339D01*
X72741Y-27368D01*
X72741Y-27453D01*
X72727Y-27482D01*
X72713Y-27496D01*
X72441Y-27124D02*
X72441Y-27096D01*
X72456Y-27067D01*
X72470Y-27053D01*
X72499Y-27039D01*
X72556Y-27024D01*
X72627Y-27024D01*
X72684Y-27039D01*
X72713Y-27053D01*
X72727Y-27067D01*
X72741Y-27096D01*
X72741Y-27124D01*
X72727Y-27153D01*
X72713Y-27167D01*
X72684Y-27182D01*
X72627Y-27196D01*
X72556Y-27196D01*
X72499Y-27182D01*
X72470Y-27167D01*
X72456Y-27153D01*
X72441Y-27124D01*
X72741Y-26881D02*
X72741Y-26824D01*
X72727Y-26796D01*
X72713Y-26781D01*
X72670Y-26753D01*
X72613Y-26738D01*
X72499Y-26738D01*
X72470Y-26753D01*
X72456Y-26767D01*
X72441Y-26796D01*
X72441Y-26853D01*
X72456Y-26881D01*
X72470Y-26896D01*
X72499Y-26910D01*
X72570Y-26910D01*
X72599Y-26896D01*
X72613Y-26881D01*
X72627Y-26853D01*
X72627Y-26796D01*
X72613Y-26767D01*
X72599Y-26753D01*
X72570Y-26738D01*
X65421Y-22686D02*
X65279Y-22786D01*
X65421Y-22858D02*
X65121Y-22858D01*
X65121Y-22743D01*
X65136Y-22715D01*
X65150Y-22700D01*
X65179Y-22686D01*
X65221Y-22686D01*
X65250Y-22700D01*
X65264Y-22715D01*
X65279Y-22743D01*
X65279Y-22858D01*
X65121Y-22586D02*
X65121Y-22400D01*
X65236Y-22500D01*
X65236Y-22458D01*
X65250Y-22429D01*
X65264Y-22415D01*
X65293Y-22400D01*
X65364Y-22400D01*
X65393Y-22415D01*
X65407Y-22429D01*
X65421Y-22458D01*
X65421Y-22543D01*
X65407Y-22572D01*
X65393Y-22586D01*
X65421Y-22114D02*
X65421Y-22286D01*
X65421Y-22200D02*
X65121Y-22200D01*
X65164Y-22229D01*
X65193Y-22257D01*
X65207Y-22286D01*
X65121Y-21928D02*
X65121Y-21900D01*
X65136Y-21871D01*
X65150Y-21857D01*
X65179Y-21843D01*
X65236Y-21828D01*
X65307Y-21828D01*
X65364Y-21843D01*
X65393Y-21857D01*
X65407Y-21871D01*
X65421Y-21900D01*
X65421Y-21928D01*
X65407Y-21957D01*
X65393Y-21971D01*
X65364Y-21986D01*
X65307Y-22000D01*
X65236Y-22000D01*
X65179Y-21986D01*
X65150Y-21971D01*
X65136Y-21957D01*
X65121Y-21928D01*
X62601Y-22656D02*
X62459Y-22756D01*
X62601Y-22828D02*
X62301Y-22828D01*
X62301Y-22713D01*
X62316Y-22685D01*
X62330Y-22670D01*
X62359Y-22656D01*
X62401Y-22656D01*
X62430Y-22670D01*
X62444Y-22685D01*
X62459Y-22713D01*
X62459Y-22828D01*
X62301Y-22556D02*
X62301Y-22370D01*
X62416Y-22470D01*
X62416Y-22428D01*
X62430Y-22399D01*
X62444Y-22385D01*
X62473Y-22370D01*
X62544Y-22370D01*
X62573Y-22385D01*
X62587Y-22399D01*
X62601Y-22428D01*
X62601Y-22513D01*
X62587Y-22542D01*
X62573Y-22556D01*
X62601Y-22084D02*
X62601Y-22256D01*
X62601Y-22170D02*
X62301Y-22170D01*
X62344Y-22199D01*
X62373Y-22227D01*
X62387Y-22256D01*
X62601Y-21798D02*
X62601Y-21970D01*
X62601Y-21884D02*
X62301Y-21884D01*
X62344Y-21913D01*
X62373Y-21941D01*
X62387Y-21970D01*
X59713Y-27484D02*
X59727Y-27498D01*
X59741Y-27541D01*
X59741Y-27570D01*
X59727Y-27613D01*
X59699Y-27641D01*
X59670Y-27656D01*
X59613Y-27670D01*
X59570Y-27670D01*
X59513Y-27656D01*
X59484Y-27641D01*
X59456Y-27613D01*
X59441Y-27570D01*
X59441Y-27541D01*
X59456Y-27498D01*
X59470Y-27484D01*
X59441Y-27384D02*
X59441Y-27198D01*
X59556Y-27298D01*
X59556Y-27256D01*
X59570Y-27227D01*
X59584Y-27213D01*
X59613Y-27198D01*
X59684Y-27198D01*
X59713Y-27213D01*
X59727Y-27227D01*
X59741Y-27256D01*
X59741Y-27341D01*
X59727Y-27370D01*
X59713Y-27384D01*
X59441Y-27012D02*
X59441Y-26984D01*
X59456Y-26955D01*
X59470Y-26941D01*
X59499Y-26927D01*
X59556Y-26912D01*
X59627Y-26912D01*
X59684Y-26927D01*
X59713Y-26941D01*
X59727Y-26955D01*
X59741Y-26984D01*
X59741Y-27012D01*
X59727Y-27041D01*
X59713Y-27055D01*
X59684Y-27070D01*
X59627Y-27084D01*
X59556Y-27084D01*
X59499Y-27070D01*
X59470Y-27055D01*
X59456Y-27041D01*
X59441Y-27012D01*
X59470Y-26798D02*
X59456Y-26784D01*
X59441Y-26755D01*
X59441Y-26684D01*
X59456Y-26655D01*
X59470Y-26641D01*
X59499Y-26626D01*
X59527Y-26626D01*
X59570Y-26641D01*
X59741Y-26812D01*
X59741Y-26626D01*
X58767Y-27506D02*
X58781Y-27520D01*
X58795Y-27563D01*
X58795Y-27592D01*
X58781Y-27635D01*
X58753Y-27663D01*
X58724Y-27678D01*
X58667Y-27692D01*
X58624Y-27692D01*
X58567Y-27678D01*
X58538Y-27663D01*
X58510Y-27635D01*
X58495Y-27592D01*
X58495Y-27563D01*
X58510Y-27520D01*
X58524Y-27506D01*
X58495Y-27406D02*
X58495Y-27220D01*
X58610Y-27320D01*
X58610Y-27278D01*
X58624Y-27249D01*
X58638Y-27235D01*
X58667Y-27220D01*
X58738Y-27220D01*
X58767Y-27235D01*
X58781Y-27249D01*
X58795Y-27278D01*
X58795Y-27363D01*
X58781Y-27392D01*
X58767Y-27406D01*
X58495Y-27034D02*
X58495Y-27006D01*
X58510Y-26977D01*
X58524Y-26963D01*
X58553Y-26949D01*
X58610Y-26934D01*
X58681Y-26934D01*
X58738Y-26949D01*
X58767Y-26963D01*
X58781Y-26977D01*
X58795Y-27006D01*
X58795Y-27034D01*
X58781Y-27063D01*
X58767Y-27077D01*
X58738Y-27092D01*
X58681Y-27106D01*
X58610Y-27106D01*
X58553Y-27092D01*
X58524Y-27077D01*
X58510Y-27063D01*
X58495Y-27034D01*
X58795Y-26648D02*
X58795Y-26820D01*
X58795Y-26734D02*
X58495Y-26734D01*
X58538Y-26763D01*
X58567Y-26791D01*
X58581Y-26820D01*
G54D16*
X58855Y-33422D02*
X58912Y-33441D01*
X58931Y-33460D01*
X58950Y-33499D01*
X58950Y-33556D01*
X58931Y-33594D01*
X58912Y-33613D01*
X58874Y-33632D01*
X58721Y-33632D01*
X58721Y-33232D01*
X58855Y-33232D01*
X58893Y-33251D01*
X58912Y-33270D01*
X58931Y-33308D01*
X58931Y-33346D01*
X58912Y-33384D01*
X58893Y-33403D01*
X58855Y-33422D01*
X58721Y-33422D01*
X59064Y-33232D02*
X59293Y-33232D01*
X59178Y-33632D02*
X59178Y-33232D01*
X59407Y-33270D02*
X59426Y-33251D01*
X59464Y-33232D01*
X59560Y-33232D01*
X59598Y-33251D01*
X59617Y-33270D01*
X59636Y-33308D01*
X59636Y-33346D01*
X59617Y-33403D01*
X59388Y-33632D01*
X59636Y-33632D01*
X59883Y-33232D02*
X59922Y-33232D01*
X59960Y-33251D01*
X59979Y-33270D01*
X59998Y-33308D01*
X60017Y-33384D01*
X60017Y-33480D01*
X59998Y-33556D01*
X59979Y-33594D01*
X59960Y-33613D01*
X59922Y-33632D01*
X59883Y-33632D01*
X59845Y-33613D01*
X59826Y-33594D01*
X59807Y-33556D01*
X59788Y-33480D01*
X59788Y-33384D01*
X59807Y-33308D01*
X59826Y-33270D01*
X59845Y-33251D01*
X59883Y-33232D01*
X60398Y-33632D02*
X60169Y-33632D01*
X60283Y-33632D02*
X60283Y-33232D01*
X60245Y-33289D01*
X60207Y-33327D01*
X60169Y-33346D01*
X61226Y-33613D02*
X61283Y-33632D01*
X61379Y-33632D01*
X61417Y-33613D01*
X61436Y-33594D01*
X61455Y-33556D01*
X61455Y-33518D01*
X61436Y-33480D01*
X61417Y-33460D01*
X61379Y-33441D01*
X61302Y-33422D01*
X61264Y-33403D01*
X61245Y-33384D01*
X61226Y-33346D01*
X61226Y-33308D01*
X61245Y-33270D01*
X61264Y-33251D01*
X61302Y-33232D01*
X61398Y-33232D01*
X61455Y-33251D01*
X61588Y-33232D02*
X61683Y-33632D01*
X61760Y-33346D01*
X61836Y-33632D01*
X61931Y-33232D01*
X62064Y-33270D02*
X62083Y-33251D01*
X62121Y-33232D01*
X62217Y-33232D01*
X62255Y-33251D01*
X62274Y-33270D01*
X62293Y-33308D01*
X62293Y-33346D01*
X62274Y-33403D01*
X62045Y-33632D01*
X62293Y-33632D01*
X62540Y-33232D02*
X62579Y-33232D01*
X62617Y-33251D01*
X62636Y-33270D01*
X62655Y-33308D01*
X62674Y-33384D01*
X62674Y-33480D01*
X62655Y-33556D01*
X62636Y-33594D01*
X62617Y-33613D01*
X62579Y-33632D01*
X62540Y-33632D01*
X62502Y-33613D01*
X62483Y-33594D01*
X62464Y-33556D01*
X62445Y-33480D01*
X62445Y-33384D01*
X62464Y-33308D01*
X62483Y-33270D01*
X62502Y-33251D01*
X62540Y-33232D01*
X63055Y-33632D02*
X62826Y-33632D01*
X62940Y-33632D02*
X62940Y-33232D01*
X62902Y-33289D01*
X62864Y-33327D01*
X62826Y-33346D01*
X62444Y-18227D02*
X62487Y-18241D01*
X62558Y-18241D01*
X62587Y-18227D01*
X62601Y-18213D01*
X62616Y-18184D01*
X62616Y-18156D01*
X62601Y-18127D01*
X62587Y-18113D01*
X62558Y-18099D01*
X62501Y-18084D01*
X62473Y-18070D01*
X62458Y-18056D01*
X62444Y-18027D01*
X62444Y-17999D01*
X62458Y-17970D01*
X62473Y-17956D01*
X62501Y-17941D01*
X62573Y-17941D01*
X62616Y-17956D01*
X62716Y-17941D02*
X62787Y-18241D01*
X62844Y-18027D01*
X62902Y-18241D01*
X62973Y-17941D01*
X63059Y-17941D02*
X63245Y-17941D01*
X63145Y-18056D01*
X63187Y-18056D01*
X63216Y-18070D01*
X63230Y-18084D01*
X63245Y-18113D01*
X63245Y-18184D01*
X63230Y-18213D01*
X63216Y-18227D01*
X63187Y-18241D01*
X63102Y-18241D01*
X63073Y-18227D01*
X63059Y-18213D01*
X63431Y-17941D02*
X63459Y-17941D01*
X63488Y-17956D01*
X63502Y-17970D01*
X63516Y-17999D01*
X63531Y-18056D01*
X63531Y-18127D01*
X63516Y-18184D01*
X63502Y-18213D01*
X63488Y-18227D01*
X63459Y-18241D01*
X63431Y-18241D01*
X63402Y-18227D01*
X63388Y-18213D01*
X63373Y-18184D01*
X63359Y-18127D01*
X63359Y-18056D01*
X63373Y-17999D01*
X63388Y-17970D01*
X63402Y-17956D01*
X63431Y-17941D01*
X63817Y-18241D02*
X63645Y-18241D01*
X63731Y-18241D02*
X63731Y-17941D01*
X63702Y-17984D01*
X63674Y-18013D01*
X63645Y-18027D01*
X68232Y-18271D02*
X68232Y-17971D01*
X68347Y-17971D01*
X68375Y-17986D01*
X68390Y-18000D01*
X68404Y-18029D01*
X68404Y-18071D01*
X68390Y-18100D01*
X68375Y-18114D01*
X68347Y-18129D01*
X68232Y-18129D01*
X68504Y-17971D02*
X68690Y-17971D01*
X68590Y-18086D01*
X68632Y-18086D01*
X68661Y-18100D01*
X68675Y-18114D01*
X68690Y-18143D01*
X68690Y-18214D01*
X68675Y-18243D01*
X68661Y-18257D01*
X68632Y-18271D01*
X68547Y-18271D01*
X68518Y-18257D01*
X68504Y-18243D01*
X68876Y-17971D02*
X68904Y-17971D01*
X68933Y-17986D01*
X68947Y-18000D01*
X68961Y-18029D01*
X68976Y-18086D01*
X68976Y-18157D01*
X68961Y-18214D01*
X68947Y-18243D01*
X68933Y-18257D01*
X68904Y-18271D01*
X68876Y-18271D01*
X68847Y-18257D01*
X68833Y-18243D01*
X68818Y-18214D01*
X68804Y-18157D01*
X68804Y-18086D01*
X68818Y-18029D01*
X68833Y-18000D01*
X68847Y-17986D01*
X68876Y-17971D01*
X69262Y-18271D02*
X69090Y-18271D01*
X69176Y-18271D02*
X69176Y-17971D01*
X69147Y-18014D01*
X69119Y-18043D01*
X69090Y-18057D01*
X59708Y-18084D02*
X59751Y-18099D01*
X59766Y-18113D01*
X59780Y-18141D01*
X59780Y-18184D01*
X59766Y-18213D01*
X59751Y-18227D01*
X59723Y-18241D01*
X59608Y-18241D01*
X59608Y-17941D01*
X59708Y-17941D01*
X59737Y-17956D01*
X59751Y-17970D01*
X59766Y-17999D01*
X59766Y-18027D01*
X59751Y-18056D01*
X59737Y-18070D01*
X59708Y-18084D01*
X59608Y-18084D01*
X59866Y-17941D02*
X60037Y-17941D01*
X59951Y-18241D02*
X59951Y-17941D01*
X60109Y-17941D02*
X60295Y-17941D01*
X60195Y-18056D01*
X60237Y-18056D01*
X60266Y-18070D01*
X60280Y-18084D01*
X60295Y-18113D01*
X60295Y-18184D01*
X60280Y-18213D01*
X60266Y-18227D01*
X60237Y-18241D01*
X60152Y-18241D01*
X60123Y-18227D01*
X60109Y-18213D01*
X60481Y-17941D02*
X60509Y-17941D01*
X60538Y-17956D01*
X60552Y-17970D01*
X60566Y-17999D01*
X60581Y-18056D01*
X60581Y-18127D01*
X60566Y-18184D01*
X60552Y-18213D01*
X60538Y-18227D01*
X60509Y-18241D01*
X60481Y-18241D01*
X60452Y-18227D01*
X60438Y-18213D01*
X60423Y-18184D01*
X60409Y-18127D01*
X60409Y-18056D01*
X60423Y-17999D01*
X60438Y-17970D01*
X60452Y-17956D01*
X60481Y-17941D01*
X60867Y-18241D02*
X60695Y-18241D01*
X60781Y-18241D02*
X60781Y-17941D01*
X60752Y-17984D01*
X60724Y-18013D01*
X60695Y-18027D01*
G54D11*
X66075Y-23241D02*
X66075Y-23484D01*
X66090Y-23513D01*
X66104Y-23527D01*
X66133Y-23541D01*
X66190Y-23541D01*
X66218Y-23527D01*
X66233Y-23513D01*
X66247Y-23484D01*
X66247Y-23241D01*
X66361Y-23241D02*
X66547Y-23241D01*
X66447Y-23356D01*
X66489Y-23356D01*
X66518Y-23370D01*
X66532Y-23384D01*
X66547Y-23413D01*
X66547Y-23484D01*
X66532Y-23513D01*
X66518Y-23527D01*
X66489Y-23541D01*
X66404Y-23541D01*
X66375Y-23527D01*
X66361Y-23513D01*
X66733Y-23241D02*
X66761Y-23241D01*
X66790Y-23256D01*
X66804Y-23270D01*
X66818Y-23299D01*
X66833Y-23356D01*
X66833Y-23427D01*
X66818Y-23484D01*
X66804Y-23513D01*
X66790Y-23527D01*
X66761Y-23541D01*
X66733Y-23541D01*
X66704Y-23527D01*
X66690Y-23513D01*
X66675Y-23484D01*
X66661Y-23427D01*
X66661Y-23356D01*
X66675Y-23299D01*
X66690Y-23270D01*
X66704Y-23256D01*
X66733Y-23241D01*
X67119Y-23541D02*
X66947Y-23541D01*
X67033Y-23541D02*
X67033Y-23241D01*
X67004Y-23284D01*
X66976Y-23313D01*
X66947Y-23327D01*
G54D15*
X71505Y-23811D02*
X71489Y-23833D01*
X71439Y-23854D01*
X71405Y-23854D01*
X71355Y-23833D01*
X71322Y-23790D01*
X71305Y-23747D01*
X71289Y-23661D01*
X71289Y-23597D01*
X71305Y-23511D01*
X71322Y-23468D01*
X71355Y-23426D01*
X71405Y-23404D01*
X71439Y-23404D01*
X71489Y-23426D01*
X71505Y-23447D01*
X71622Y-23404D02*
X71839Y-23404D01*
X71722Y-23576D01*
X71772Y-23576D01*
X71805Y-23597D01*
X71822Y-23618D01*
X71839Y-23661D01*
X71839Y-23768D01*
X71822Y-23811D01*
X71805Y-23833D01*
X71772Y-23854D01*
X71672Y-23854D01*
X71639Y-23833D01*
X71622Y-23811D01*
X72055Y-23404D02*
X72088Y-23404D01*
X72122Y-23426D01*
X72138Y-23447D01*
X72155Y-23490D01*
X72172Y-23576D01*
X72172Y-23683D01*
X72155Y-23768D01*
X72138Y-23811D01*
X72122Y-23833D01*
X72088Y-23854D01*
X72055Y-23854D01*
X72022Y-23833D01*
X72005Y-23811D01*
X71988Y-23768D01*
X71972Y-23683D01*
X71972Y-23576D01*
X71988Y-23490D01*
X72005Y-23447D01*
X72022Y-23426D01*
X72055Y-23404D01*
X72288Y-23404D02*
X72521Y-23404D01*
X72371Y-23854D01*
G54D17*
X70401Y-23951D02*
X70401Y-23608D01*
X70572Y-23779D02*
X70229Y-23779D01*
G54D11*
X65642Y-28517D02*
X65628Y-28531D01*
X65585Y-28545D01*
X65556Y-28545D01*
X65513Y-28531D01*
X65485Y-28503D01*
X65470Y-28474D01*
X65456Y-28417D01*
X65456Y-28374D01*
X65470Y-28317D01*
X65485Y-28288D01*
X65513Y-28260D01*
X65556Y-28245D01*
X65585Y-28245D01*
X65628Y-28260D01*
X65642Y-28274D01*
X65742Y-28245D02*
X65928Y-28245D01*
X65828Y-28360D01*
X65870Y-28360D01*
X65899Y-28374D01*
X65913Y-28388D01*
X65928Y-28417D01*
X65928Y-28488D01*
X65913Y-28517D01*
X65899Y-28531D01*
X65870Y-28545D01*
X65785Y-28545D01*
X65756Y-28531D01*
X65742Y-28517D01*
X66114Y-28245D02*
X66142Y-28245D01*
X66171Y-28260D01*
X66185Y-28274D01*
X66199Y-28303D01*
X66214Y-28360D01*
X66214Y-28431D01*
X66199Y-28488D01*
X66185Y-28517D01*
X66171Y-28531D01*
X66142Y-28545D01*
X66114Y-28545D01*
X66085Y-28531D01*
X66071Y-28517D01*
X66056Y-28488D01*
X66042Y-28431D01*
X66042Y-28360D01*
X66056Y-28303D01*
X66071Y-28274D01*
X66085Y-28260D01*
X66114Y-28245D01*
X66471Y-28245D02*
X66414Y-28245D01*
X66385Y-28260D01*
X66371Y-28274D01*
X66342Y-28317D01*
X66328Y-28374D01*
X66328Y-28488D01*
X66342Y-28517D01*
X66357Y-28531D01*
X66385Y-28545D01*
X66442Y-28545D01*
X66471Y-28531D01*
X66485Y-28517D01*
X66500Y-28488D01*
X66500Y-28417D01*
X66485Y-28388D01*
X66471Y-28374D01*
X66442Y-28360D01*
X66385Y-28360D01*
X66357Y-28374D01*
X66342Y-28388D01*
X66328Y-28417D01*
G54D17*
X65981Y-29101D02*
X65981Y-28758D01*
X66152Y-28929D02*
X65809Y-28929D01*
G54D11*
X63838Y-28627D02*
X63824Y-28641D01*
X63781Y-28655D01*
X63752Y-28655D01*
X63709Y-28641D01*
X63681Y-28613D01*
X63666Y-28584D01*
X63652Y-28527D01*
X63652Y-28484D01*
X63666Y-28427D01*
X63681Y-28398D01*
X63709Y-28370D01*
X63752Y-28355D01*
X63781Y-28355D01*
X63824Y-28370D01*
X63838Y-28384D01*
X63938Y-28355D02*
X64124Y-28355D01*
X64024Y-28470D01*
X64066Y-28470D01*
X64095Y-28484D01*
X64109Y-28498D01*
X64124Y-28527D01*
X64124Y-28598D01*
X64109Y-28627D01*
X64095Y-28641D01*
X64066Y-28655D01*
X63981Y-28655D01*
X63952Y-28641D01*
X63938Y-28627D01*
X64310Y-28355D02*
X64338Y-28355D01*
X64367Y-28370D01*
X64381Y-28384D01*
X64395Y-28413D01*
X64410Y-28470D01*
X64410Y-28541D01*
X64395Y-28598D01*
X64381Y-28627D01*
X64367Y-28641D01*
X64338Y-28655D01*
X64310Y-28655D01*
X64281Y-28641D01*
X64267Y-28627D01*
X64252Y-28598D01*
X64238Y-28541D01*
X64238Y-28470D01*
X64252Y-28413D01*
X64267Y-28384D01*
X64281Y-28370D01*
X64310Y-28355D01*
X64681Y-28355D02*
X64538Y-28355D01*
X64524Y-28498D01*
X64538Y-28484D01*
X64567Y-28470D01*
X64638Y-28470D01*
X64667Y-28484D01*
X64681Y-28498D01*
X64696Y-28527D01*
X64696Y-28598D01*
X64681Y-28627D01*
X64667Y-28641D01*
X64638Y-28655D01*
X64567Y-28655D01*
X64538Y-28641D01*
X64524Y-28627D01*
G54D17*
X63351Y-29101D02*
X63351Y-28758D01*
X63522Y-28929D02*
X63179Y-28929D01*
G54D15*
X70867Y-21875D02*
X70851Y-21897D01*
X70801Y-21918D01*
X70767Y-21918D01*
X70717Y-21897D01*
X70684Y-21854D01*
X70667Y-21811D01*
X70651Y-21725D01*
X70651Y-21661D01*
X70667Y-21575D01*
X70684Y-21532D01*
X70717Y-21490D01*
X70767Y-21468D01*
X70801Y-21468D01*
X70851Y-21490D01*
X70867Y-21511D01*
X70984Y-21468D02*
X71201Y-21468D01*
X71084Y-21640D01*
X71134Y-21640D01*
X71167Y-21661D01*
X71184Y-21682D01*
X71201Y-21725D01*
X71201Y-21832D01*
X71184Y-21875D01*
X71167Y-21897D01*
X71134Y-21918D01*
X71034Y-21918D01*
X71001Y-21897D01*
X70984Y-21875D01*
X71417Y-21468D02*
X71450Y-21468D01*
X71484Y-21490D01*
X71500Y-21511D01*
X71517Y-21554D01*
X71534Y-21640D01*
X71534Y-21747D01*
X71517Y-21832D01*
X71500Y-21875D01*
X71484Y-21897D01*
X71450Y-21918D01*
X71417Y-21918D01*
X71384Y-21897D01*
X71367Y-21875D01*
X71350Y-21832D01*
X71334Y-21747D01*
X71334Y-21640D01*
X71350Y-21554D01*
X71367Y-21511D01*
X71384Y-21490D01*
X71417Y-21468D01*
X71833Y-21618D02*
X71833Y-21918D01*
X71750Y-21447D02*
X71667Y-21768D01*
X71883Y-21768D01*
G54D17*
X69471Y-21521D02*
X69471Y-21178D01*
X69642Y-21349D02*
X69299Y-21349D01*
G54D15*
X59529Y-22891D02*
X59551Y-22907D01*
X59572Y-22957D01*
X59572Y-22991D01*
X59551Y-23041D01*
X59508Y-23074D01*
X59465Y-23091D01*
X59379Y-23107D01*
X59315Y-23107D01*
X59229Y-23091D01*
X59186Y-23074D01*
X59144Y-23041D01*
X59122Y-22991D01*
X59122Y-22957D01*
X59144Y-22907D01*
X59165Y-22891D01*
X59122Y-22774D02*
X59122Y-22557D01*
X59294Y-22674D01*
X59294Y-22624D01*
X59315Y-22591D01*
X59336Y-22574D01*
X59379Y-22557D01*
X59486Y-22557D01*
X59529Y-22574D01*
X59551Y-22591D01*
X59572Y-22624D01*
X59572Y-22724D01*
X59551Y-22757D01*
X59529Y-22774D01*
X59122Y-22341D02*
X59122Y-22308D01*
X59144Y-22274D01*
X59165Y-22258D01*
X59208Y-22241D01*
X59294Y-22224D01*
X59401Y-22224D01*
X59486Y-22241D01*
X59529Y-22258D01*
X59551Y-22274D01*
X59572Y-22308D01*
X59572Y-22341D01*
X59551Y-22374D01*
X59529Y-22391D01*
X59486Y-22408D01*
X59401Y-22424D01*
X59294Y-22424D01*
X59208Y-22408D01*
X59165Y-22391D01*
X59144Y-22374D01*
X59122Y-22341D01*
X59122Y-22108D02*
X59122Y-21891D01*
X59294Y-22008D01*
X59294Y-21958D01*
X59315Y-21925D01*
X59336Y-21908D01*
X59379Y-21891D01*
X59486Y-21891D01*
X59529Y-21908D01*
X59551Y-21925D01*
X59572Y-21958D01*
X59572Y-22058D01*
X59551Y-22091D01*
X59529Y-22108D01*
G54D17*
X60361Y-21641D02*
X60361Y-21298D01*
X60532Y-21469D02*
X60189Y-21469D01*
G54D15*
X66539Y-38879D02*
X66523Y-38901D01*
X66473Y-38922D01*
X66439Y-38922D01*
X66389Y-38901D01*
X66356Y-38858D01*
X66339Y-38815D01*
X66323Y-38729D01*
X66323Y-38665D01*
X66339Y-38579D01*
X66356Y-38536D01*
X66389Y-38494D01*
X66439Y-38472D01*
X66473Y-38472D01*
X66523Y-38494D01*
X66539Y-38515D01*
X66673Y-38515D02*
X66689Y-38494D01*
X66723Y-38472D01*
X66806Y-38472D01*
X66839Y-38494D01*
X66856Y-38515D01*
X66873Y-38558D01*
X66873Y-38601D01*
X66856Y-38665D01*
X66656Y-38922D01*
X66873Y-38922D01*
X67089Y-38472D02*
X67122Y-38472D01*
X67156Y-38494D01*
X67172Y-38515D01*
X67189Y-38558D01*
X67206Y-38644D01*
X67206Y-38751D01*
X67189Y-38836D01*
X67172Y-38879D01*
X67156Y-38901D01*
X67122Y-38922D01*
X67089Y-38922D01*
X67056Y-38901D01*
X67039Y-38879D01*
X67022Y-38836D01*
X67006Y-38751D01*
X67006Y-38644D01*
X67022Y-38558D01*
X67039Y-38515D01*
X67056Y-38494D01*
X67089Y-38472D01*
X67505Y-38622D02*
X67505Y-38922D01*
X67422Y-38451D02*
X67339Y-38772D01*
X67555Y-38772D01*
G54D17*
X65729Y-37591D02*
X66072Y-37591D01*
X65901Y-37762D02*
X65901Y-37419D01*
G54D16*
X65542Y-18251D02*
X65542Y-17951D01*
X65657Y-17951D01*
X65685Y-17966D01*
X65700Y-17980D01*
X65714Y-18009D01*
X65714Y-18051D01*
X65700Y-18080D01*
X65685Y-18094D01*
X65657Y-18109D01*
X65542Y-18109D01*
X65814Y-17951D02*
X66000Y-17951D01*
X65900Y-18066D01*
X65942Y-18066D01*
X65971Y-18080D01*
X65985Y-18094D01*
X66000Y-18123D01*
X66000Y-18194D01*
X65985Y-18223D01*
X65971Y-18237D01*
X65942Y-18251D01*
X65857Y-18251D01*
X65828Y-18237D01*
X65814Y-18223D01*
X66186Y-17951D02*
X66214Y-17951D01*
X66243Y-17966D01*
X66257Y-17980D01*
X66271Y-18009D01*
X66286Y-18066D01*
X66286Y-18137D01*
X66271Y-18194D01*
X66257Y-18223D01*
X66243Y-18237D01*
X66214Y-18251D01*
X66186Y-18251D01*
X66157Y-18237D01*
X66143Y-18223D01*
X66128Y-18194D01*
X66114Y-18137D01*
X66114Y-18066D01*
X66128Y-18009D01*
X66143Y-17980D01*
X66157Y-17966D01*
X66186Y-17951D01*
X66400Y-17980D02*
X66414Y-17966D01*
X66443Y-17951D01*
X66514Y-17951D01*
X66543Y-17966D01*
X66557Y-17980D01*
X66572Y-18009D01*
X66572Y-18037D01*
X66557Y-18080D01*
X66386Y-18251D01*
X66572Y-18251D01*
G54D11*
X58056Y-29337D02*
X57956Y-29195D01*
X57884Y-29337D02*
X57884Y-29037D01*
X57999Y-29037D01*
X58027Y-29052D01*
X58042Y-29066D01*
X58056Y-29095D01*
X58056Y-29137D01*
X58042Y-29166D01*
X58027Y-29180D01*
X57999Y-29195D01*
X57884Y-29195D01*
X58142Y-29037D02*
X58242Y-29337D01*
X58342Y-29037D01*
X58413Y-29037D02*
X58599Y-29037D01*
X58499Y-29152D01*
X58541Y-29152D01*
X58570Y-29166D01*
X58584Y-29180D01*
X58599Y-29209D01*
X58599Y-29280D01*
X58584Y-29309D01*
X58570Y-29323D01*
X58541Y-29337D01*
X58456Y-29337D01*
X58427Y-29323D01*
X58413Y-29309D01*
X58785Y-29037D02*
X58813Y-29037D01*
X58842Y-29052D01*
X58856Y-29066D01*
X58870Y-29095D01*
X58885Y-29152D01*
X58885Y-29223D01*
X58870Y-29280D01*
X58856Y-29309D01*
X58842Y-29323D01*
X58813Y-29337D01*
X58785Y-29337D01*
X58756Y-29323D01*
X58742Y-29309D01*
X58727Y-29280D01*
X58713Y-29223D01*
X58713Y-29152D01*
X58727Y-29095D01*
X58742Y-29066D01*
X58756Y-29052D01*
X58785Y-29037D01*
X59171Y-29337D02*
X58999Y-29337D01*
X59085Y-29337D02*
X59085Y-29037D01*
X59056Y-29080D01*
X59028Y-29109D01*
X58999Y-29123D01*
G54D13*
X59163Y-25350D02*
X59177Y-25364D01*
X59191Y-25407D01*
X59191Y-25436D01*
X59177Y-25479D01*
X59149Y-25507D01*
X59120Y-25522D01*
X59063Y-25536D01*
X59020Y-25536D01*
X58963Y-25522D01*
X58934Y-25507D01*
X58906Y-25479D01*
X58891Y-25436D01*
X58891Y-25407D01*
X58906Y-25364D01*
X58920Y-25350D01*
X58891Y-25250D02*
X58891Y-25064D01*
X59006Y-25164D01*
X59006Y-25122D01*
X59020Y-25093D01*
X59034Y-25079D01*
X59063Y-25064D01*
X59134Y-25064D01*
X59163Y-25079D01*
X59177Y-25093D01*
X59191Y-25122D01*
X59191Y-25207D01*
X59177Y-25236D01*
X59163Y-25250D01*
X58891Y-24878D02*
X58891Y-24850D01*
X58906Y-24821D01*
X58920Y-24807D01*
X58949Y-24793D01*
X59006Y-24778D01*
X59077Y-24778D01*
X59134Y-24793D01*
X59163Y-24807D01*
X59177Y-24821D01*
X59191Y-24850D01*
X59191Y-24878D01*
X59177Y-24907D01*
X59163Y-24921D01*
X59134Y-24936D01*
X59077Y-24950D01*
X59006Y-24950D01*
X58949Y-24936D01*
X58920Y-24921D01*
X58906Y-24907D01*
X58891Y-24878D01*
X59020Y-24607D02*
X59006Y-24635D01*
X58991Y-24650D01*
X58963Y-24664D01*
X58949Y-24664D01*
X58920Y-24650D01*
X58906Y-24635D01*
X58891Y-24607D01*
X58891Y-24550D01*
X58906Y-24521D01*
X58920Y-24507D01*
X58949Y-24492D01*
X58963Y-24492D01*
X58991Y-24507D01*
X59006Y-24521D01*
X59020Y-24550D01*
X59020Y-24607D01*
X59034Y-24635D01*
X59049Y-24650D01*
X59077Y-24664D01*
X59134Y-24664D01*
X59163Y-24650D01*
X59177Y-24635D01*
X59191Y-24607D01*
X59191Y-24550D01*
X59177Y-24521D01*
X59163Y-24507D01*
X59134Y-24492D01*
X59077Y-24492D01*
X59049Y-24507D01*
X59034Y-24521D01*
X59020Y-24550D01*
X72323Y-27586D02*
X72337Y-27600D01*
X72351Y-27643D01*
X72351Y-27672D01*
X72337Y-27715D01*
X72309Y-27743D01*
X72280Y-27758D01*
X72223Y-27772D01*
X72180Y-27772D01*
X72123Y-27758D01*
X72094Y-27743D01*
X72066Y-27715D01*
X72051Y-27672D01*
X72051Y-27643D01*
X72066Y-27600D01*
X72080Y-27586D01*
X72051Y-27486D02*
X72051Y-27300D01*
X72166Y-27400D01*
X72166Y-27358D01*
X72180Y-27329D01*
X72194Y-27315D01*
X72223Y-27300D01*
X72294Y-27300D01*
X72323Y-27315D01*
X72337Y-27329D01*
X72351Y-27358D01*
X72351Y-27443D01*
X72337Y-27472D01*
X72323Y-27486D01*
X72051Y-27114D02*
X72051Y-27086D01*
X72066Y-27057D01*
X72080Y-27043D01*
X72109Y-27029D01*
X72166Y-27014D01*
X72237Y-27014D01*
X72294Y-27029D01*
X72323Y-27043D01*
X72337Y-27057D01*
X72351Y-27086D01*
X72351Y-27114D01*
X72337Y-27143D01*
X72323Y-27157D01*
X72294Y-27172D01*
X72237Y-27186D01*
X72166Y-27186D01*
X72109Y-27172D01*
X72080Y-27157D01*
X72066Y-27143D01*
X72051Y-27114D01*
X72351Y-26871D02*
X72351Y-26814D01*
X72337Y-26786D01*
X72323Y-26771D01*
X72280Y-26743D01*
X72223Y-26728D01*
X72109Y-26728D01*
X72080Y-26743D01*
X72066Y-26757D01*
X72051Y-26786D01*
X72051Y-26843D01*
X72066Y-26871D01*
X72080Y-26886D01*
X72109Y-26900D01*
X72180Y-26900D01*
X72209Y-26886D01*
X72223Y-26871D01*
X72237Y-26843D01*
X72237Y-26786D01*
X72223Y-26757D01*
X72209Y-26743D01*
X72180Y-26728D01*
G54D15*
X63629Y-46489D02*
X63613Y-46511D01*
X63563Y-46532D01*
X63529Y-46532D01*
X63479Y-46511D01*
X63446Y-46468D01*
X63429Y-46425D01*
X63413Y-46339D01*
X63413Y-46275D01*
X63429Y-46189D01*
X63446Y-46146D01*
X63479Y-46104D01*
X63529Y-46082D01*
X63563Y-46082D01*
X63613Y-46104D01*
X63629Y-46125D01*
X63763Y-46125D02*
X63779Y-46104D01*
X63813Y-46082D01*
X63896Y-46082D01*
X63929Y-46104D01*
X63946Y-46125D01*
X63963Y-46168D01*
X63963Y-46211D01*
X63946Y-46275D01*
X63746Y-46532D01*
X63963Y-46532D01*
X64179Y-46082D02*
X64212Y-46082D01*
X64246Y-46104D01*
X64262Y-46125D01*
X64279Y-46168D01*
X64296Y-46254D01*
X64296Y-46361D01*
X64279Y-46446D01*
X64262Y-46489D01*
X64246Y-46511D01*
X64212Y-46532D01*
X64179Y-46532D01*
X64146Y-46511D01*
X64129Y-46489D01*
X64112Y-46446D01*
X64096Y-46361D01*
X64096Y-46254D01*
X64112Y-46168D01*
X64129Y-46125D01*
X64146Y-46104D01*
X64179Y-46082D01*
X64612Y-46082D02*
X64445Y-46082D01*
X64429Y-46296D01*
X64445Y-46275D01*
X64479Y-46254D01*
X64562Y-46254D01*
X64595Y-46275D01*
X64612Y-46296D01*
X64629Y-46339D01*
X64629Y-46446D01*
X64612Y-46489D01*
X64595Y-46511D01*
X64562Y-46532D01*
X64479Y-46532D01*
X64445Y-46511D01*
X64429Y-46489D01*
G54D17*
X65841Y-44651D02*
X65841Y-44308D01*
X66012Y-44479D02*
X65669Y-44479D01*
G54D11*
X56698Y-44256D02*
X56719Y-44270D01*
X56739Y-44313D01*
X56739Y-44342D01*
X56719Y-44385D01*
X56678Y-44413D01*
X56637Y-44428D01*
X56555Y-44442D01*
X56493Y-44442D01*
X56411Y-44428D01*
X56370Y-44413D01*
X56330Y-44385D01*
X56309Y-44342D01*
X56309Y-44313D01*
X56330Y-44270D01*
X56350Y-44256D01*
X56350Y-44142D02*
X56330Y-44128D01*
X56309Y-44099D01*
X56309Y-44028D01*
X56330Y-43999D01*
X56350Y-43985D01*
X56391Y-43970D01*
X56432Y-43970D01*
X56493Y-43985D01*
X56739Y-44156D01*
X56739Y-43970D01*
X56309Y-43784D02*
X56309Y-43756D01*
X56330Y-43727D01*
X56350Y-43713D01*
X56391Y-43699D01*
X56473Y-43684D01*
X56575Y-43684D01*
X56657Y-43699D01*
X56698Y-43713D01*
X56719Y-43727D01*
X56739Y-43756D01*
X56739Y-43784D01*
X56719Y-43813D01*
X56698Y-43827D01*
X56657Y-43842D01*
X56575Y-43856D01*
X56473Y-43856D01*
X56391Y-43842D01*
X56350Y-43827D01*
X56330Y-43813D01*
X56309Y-43784D01*
X56309Y-43427D02*
X56309Y-43484D01*
X56330Y-43513D01*
X56350Y-43527D01*
X56411Y-43556D01*
X56493Y-43570D01*
X56657Y-43570D01*
X56698Y-43556D01*
X56719Y-43541D01*
X56739Y-43513D01*
X56739Y-43456D01*
X56719Y-43427D01*
X56698Y-43413D01*
X56657Y-43398D01*
X56555Y-43398D01*
X56514Y-43413D01*
X56493Y-43427D01*
X56473Y-43456D01*
X56473Y-43513D01*
X56493Y-43541D01*
X56514Y-43556D01*
X56555Y-43570D01*
G54D17*
X58091Y-42591D02*
X58091Y-42248D01*
X58262Y-42419D02*
X57919Y-42419D01*
%LPC*%
G54D18*
X57240Y-34940D03*
G54D19*
X68630Y-42680D03*
X69930Y-42680D03*
G54D20*
X62860Y-44890D03*
X62860Y-43590D03*
X61380Y-43590D03*
X61380Y-44890D03*
X71390Y-41740D03*
X71390Y-40440D03*
X61770Y-42000D03*
X61770Y-40700D03*
X60580Y-42000D03*
X60580Y-40700D03*
G54D19*
X69930Y-40520D03*
X68630Y-40520D03*
X68650Y-43980D03*
X69950Y-43980D03*
X65060Y-37550D03*
X63760Y-37550D03*
X69950Y-38180D03*
X68650Y-38180D03*
X68650Y-39440D03*
X69950Y-39440D03*
G54D20*
X60080Y-44870D03*
X60080Y-43570D03*
G54D19*
X68650Y-41580D03*
X69950Y-41580D03*
G54D21*
X63980Y-39600D03*
G54D22*
X63980Y-40600D03*
X63980Y-41600D03*
X63980Y-42600D03*
X66980Y-42600D03*
X66980Y-41600D03*
X66980Y-40600D03*
X66980Y-39600D03*
G54D23*
X64940Y-34940D03*
X65940Y-34940D03*
X67520Y-34960D03*
X68520Y-34960D03*
G54D20*
X59460Y-40710D03*
X59460Y-42010D03*
X60470Y-25630D03*
X60470Y-24330D03*
X71550Y-31000D03*
X71550Y-29700D03*
X61740Y-26700D03*
X61740Y-28000D03*
X67730Y-29220D03*
X67730Y-30520D03*
X69040Y-29210D03*
X69040Y-30510D03*
X70340Y-29210D03*
X70340Y-30510D03*
G54D19*
X69960Y-37070D03*
X68660Y-37070D03*
G54D20*
X61350Y-38660D03*
X61350Y-37360D03*
X60190Y-37370D03*
X60190Y-38670D03*
G54D19*
X59380Y-39710D03*
X60680Y-39710D03*
G54D20*
X62530Y-38670D03*
X62530Y-37370D03*
X62950Y-25660D03*
X62950Y-24360D03*
X69290Y-27780D03*
X69290Y-26480D03*
X71460Y-26480D03*
X71460Y-27780D03*
X64480Y-21690D03*
X64480Y-22990D03*
X63220Y-22990D03*
X63220Y-21690D03*
X62970Y-26670D03*
X62970Y-27970D03*
X60440Y-27920D03*
X60440Y-26620D03*
G54D23*
X59800Y-34970D03*
X60800Y-34970D03*
X62390Y-34970D03*
X63390Y-34970D03*
X63380Y-19620D03*
X64380Y-19620D03*
X68990Y-19650D03*
X69990Y-19650D03*
X60480Y-19620D03*
X61480Y-19620D03*
G54D21*
X64720Y-24325D03*
G54D22*
X64720Y-25325D03*
X64720Y-26325D03*
X64720Y-27325D03*
X67720Y-27325D03*
X67720Y-26325D03*
X67720Y-25325D03*
X67720Y-24325D03*
G54D24*
X70390Y-24280D03*
G54D25*
X70390Y-25280D03*
G54D24*
X65970Y-29430D03*
G54D25*
X65970Y-30430D03*
G54D24*
X63340Y-29430D03*
G54D25*
X63340Y-30430D03*
G54D24*
X69460Y-21850D03*
G54D25*
X69460Y-22850D03*
G54D24*
X60950Y-22040D03*
G54D25*
X60950Y-23040D03*
G54D24*
X66400Y-37580D03*
G54D25*
X67400Y-37580D03*
G54D23*
X66300Y-19630D03*
X67300Y-19630D03*
G54D25*
X59550Y-30190D03*
X60550Y-29190D03*
X61550Y-30190D03*
G54D18*
X71380Y-45780D03*
X71380Y-34840D03*
X57430Y-19530D03*
X57260Y-30240D03*
X71710Y-19710D03*
X57240Y-45750D03*
G54D20*
X61690Y-25660D03*
X61690Y-24360D03*
X70380Y-26480D03*
X70380Y-27780D03*
G54D24*
X65830Y-44980D03*
G54D25*
X65830Y-45980D03*
G54D24*
X58080Y-42920D03*
G54D25*
X58080Y-43920D03*
M02*
