G04 (created by PCBNEW-RS274X (2012-apr-16-27)-stable) date Sat 01 Mar 2014 16:34:46 GMT*
G01*
G70*
G90*
%MOIN*%
G04 Gerber Fmt 3.4, Leading zero omitted, Abs format*
%FSLAX34Y34*%
G04 APERTURE LIST*
%ADD10C,0.006000*%
%ADD11C,0.180000*%
%ADD12R,0.075000X0.075000*%
%ADD13C,0.075000*%
%ADD14R,0.080000X0.080000*%
%ADD15C,0.080000*%
G04 APERTURE END LIST*
G54D10*
G54D11*
X57240Y-34940D03*
G54D12*
X63980Y-39600D03*
G54D13*
X63980Y-40600D03*
X63980Y-41600D03*
X63980Y-42600D03*
X66980Y-42600D03*
X66980Y-41600D03*
X66980Y-40600D03*
X66980Y-39600D03*
G54D12*
X64720Y-24325D03*
G54D13*
X64720Y-25325D03*
X64720Y-26325D03*
X64720Y-27325D03*
X67720Y-27325D03*
X67720Y-26325D03*
X67720Y-25325D03*
X67720Y-24325D03*
G54D14*
X70390Y-24280D03*
G54D15*
X70390Y-25280D03*
G54D14*
X65970Y-29430D03*
G54D15*
X65970Y-30430D03*
G54D14*
X63340Y-29430D03*
G54D15*
X63340Y-30430D03*
G54D14*
X69460Y-21850D03*
G54D15*
X69460Y-22850D03*
G54D14*
X60950Y-22040D03*
G54D15*
X60950Y-23040D03*
G54D14*
X66400Y-37580D03*
G54D15*
X67400Y-37580D03*
X59550Y-30190D03*
X60550Y-29190D03*
X61550Y-30190D03*
G54D11*
X71380Y-45780D03*
X71380Y-34840D03*
X57430Y-19530D03*
X57260Y-30240D03*
X71710Y-19710D03*
X57240Y-45750D03*
G54D14*
X65830Y-44980D03*
G54D15*
X65830Y-45980D03*
G54D14*
X58080Y-42920D03*
G54D15*
X58080Y-43920D03*
M02*
